ISO-10303-21;
HEADER;
FILE_DESCRIPTION (( 'STEP AP203' ),
    '1' );
FILE_NAME ('ALPA_STANDARD_BOARD_blank.STEP',
    '2024-10-05T06:54:35',
    ( '' ),
    ( '' ),
    'SwSTEP 2.0',
    'SolidWorks 2022',
    '' );
FILE_SCHEMA (( 'CONFIG_CONTROL_DESIGN' ));
ENDSEC;

DATA;
#1 = VERTEX_POINT ( 'NONE', #919 ) ;
#2 = PLANE ( 'NONE',  #301 ) ;
#3 = PLANE ( 'NONE',  #536 ) ;
#4 = EDGE_CURVE ( 'NONE', #466, #551, #341, .T. ) ;
#5 = CARTESIAN_POINT ( 'NONE',  ( 41.24999999999992184, 2.000000000000000000, -36.24999999999997158 ) ) ;
#6 = LINE ( 'NONE', #97, #522 ) ;
#7 = VERTEX_POINT ( 'NONE', #427 ) ;
#8 = CARTESIAN_POINT ( 'NONE',  ( -34.99999999999999289, 2.000000000000000000, -35.00000000000000000 ) ) ;
#9 = CARTESIAN_POINT ( 'NONE',  ( 41.24999999999992895, 2.000000000000000000, 36.24999999999992895 ) ) ;
#10 = EDGE_CURVE ( 'NONE', #552, #568, #1118, .T. ) ;
#11 = VECTOR ( 'NONE', #1088, 1000.000000000000000 ) ;
#12 = DIRECTION ( 'NONE',  ( 0.000000000000000000, 0.000000000000000000, 1.000000000000000000 ) ) ;
#13 = CC_DESIGN_PERSON_AND_ORGANIZATION_ASSIGNMENT ( #639, #984, ( #288 ) ) ;
#14 = ORIENTED_EDGE ( 'NONE', *, *, #983, .F. ) ;
#15 = AXIS2_PLACEMENT_3D ( 'NONE', #514, #528, #244 ) ;
#16 = FACE_OUTER_BOUND ( 'NONE', #995, .T. ) ;
#17 = ADVANCED_FACE ( 'NONE', ( #584 ), #668, .T. ) ;
#18 = DIRECTION ( 'NONE',  ( 0.000000000000000000, -0.1961161351381809637, -0.9805806756909206667 ) ) ;
#19 = PERSON_AND_ORGANIZATION ( #803, #890 ) ;
#20 = ORIENTED_EDGE ( 'NONE', *, *, #501, .F. ) ;
#21 = DIRECTION ( 'NONE',  ( 0.000000000000000000, 0.000000000000000000, -1.000000000000000000 ) ) ;
#22 = AXIS2_PLACEMENT_3D ( 'NONE', #1035, #865, #712 ) ;
#23 = CYLINDRICAL_SURFACE ( 'NONE', #527, 4.000000000000000000 ) ;
#24 = EDGE_CURVE ( 'NONE', #644, #1001, #95, .T. ) ;
#25 = PERSON_AND_ORGANIZATION ( #803, #890 ) ;
#26 = ORIENTED_EDGE ( 'NONE', *, *, #241, .T. ) ;
#27 = CYLINDRICAL_SURFACE ( 'NONE', #278, 8.000000000000000000 ) ;
#28 = FACE_OUTER_BOUND ( 'NONE', #825, .T. ) ;
#29 = VECTOR ( 'NONE', #742, 1000.000000000000000 ) ;
#30 = APPROVAL_ROLE ( '' ) ;
#31 = VERTEX_POINT ( 'NONE', #511 ) ;
#32 = APPROVAL ( #36, '未指定' ) ;
#33 = CIRCLE ( 'NONE', #667, 3.000000000000002665 ) ;
#34 = CONICAL_SURFACE ( 'NONE', #1074, 4.999999999999920952, 1.373400766945019003 ) ;
#35 = DIRECTION ( 'NONE',  ( 0.000000000000000000, 1.000000000000000000, -0.000000000000000000 ) ) ;
#36 = APPROVAL_STATUS ( 'not_yet_approved' ) ;
#37 = VERTEX_POINT ( 'NONE', #753 ) ;
#38 = DIRECTION ( 'NONE',  ( 0.000000000000000000, 0.000000000000000000, -1.000000000000000000 ) ) ;
#39 = ORIENTED_EDGE ( 'NONE', *, *, #895, .T. ) ;
#40 = CARTESIAN_POINT ( 'NONE',  ( -38.00000000000000000, 2.000000000000000000, 34.99999999999999289 ) ) ;
#41 = CIRCLE ( 'NONE', #674, 4.000000000000003553 ) ;
#42 = CARTESIAN_POINT ( 'NONE',  ( -44.24999999999998579, 1.399999999999993916, 36.24999999999992895 ) ) ;
#43 = VERTEX_POINT ( 'NONE', #1103 ) ;
#44 = VECTOR ( 'NONE', #250, 1000.000000000000000 ) ;
#45 = ORIENTED_EDGE ( 'NONE', *, *, #177, .T. ) ;
#46 = CARTESIAN_POINT ( 'NONE',  ( -44.24999999999998579, 0.000000000000000000, 36.24999999999992895 ) ) ;
#47 = CYLINDRICAL_SURFACE ( 'NONE', #80, 3.000000000000002665 ) ;
#48 = DATE_AND_TIME ( #736, #105 ) ;
#49 = ADVANCED_FACE ( 'NONE', ( #857 ), #338, .F. ) ;
#50 = ORIENTED_EDGE ( 'NONE', *, *, #55, .T. ) ;
#51 = LINE ( 'NONE', #654, #968 ) ;
#52 =( NAMED_UNIT ( * ) PLANE_ANGLE_UNIT ( ) SI_UNIT ( $, .RADIAN. ) );
#53 = ORIENTED_EDGE ( 'NONE', *, *, #400, .T. ) ;
#54 = ORIENTED_EDGE ( 'NONE', *, *, #318, .T. ) ;
#55 = EDGE_CURVE ( 'NONE', #886, #758, #51, .T. ) ;
#56 = EDGE_LOOP ( 'NONE', ( #461, #500, #494, #398 ) ) ;
#57 = LINE ( 'NONE', #924, #663 ) ;
#58 = EDGE_LOOP ( 'NONE', ( #1117, #999, #1046, #438 ) ) ;
#59 = LINE ( 'NONE', #820, #1129 ) ;
#60 = ORIENTED_EDGE ( 'NONE', *, *, #223, .F. ) ;
#61 = VECTOR ( 'NONE', #997, 1000.000000000000000 ) ;
#62 = DIRECTION ( 'NONE',  ( -0.000000000000000000, -1.000000000000000000, -0.000000000000000000 ) ) ;
#63 = EDGE_CURVE ( 'NONE', #599, #750, #136, .T. ) ;
#64 = LINE ( 'NONE', #761, #230 ) ;
#65 = DIRECTION ( 'NONE',  ( -0.9805806756909206667, -0.1961161351381809637, 0.000000000000000000 ) ) ;
#66 = ORIENTED_EDGE ( 'NONE', *, *, #572, .F. ) ;
#67 = CARTESIAN_POINT ( 'NONE',  ( -35.00000000000000000, 3.000000000000000000, 34.99999999999999289 ) ) ;
#68 = DIRECTION ( 'NONE',  ( -1.000000000000000000, -0.000000000000000000, -0.000000000000000000 ) ) ;
#69 = EDGE_CURVE ( 'NONE', #152, #907, #1015, .T. ) ;
#70 = DIRECTION ( 'NONE',  ( 0.000000000000000000, 1.000000000000000000, -0.000000000000000000 ) ) ;
#71 = EDGE_LOOP ( 'NONE', ( #258, #416, #563, #282 ) ) ;
#72 = VECTOR ( 'NONE', #315, 1000.000000000000114 ) ;
#73 = DIRECTION ( 'NONE',  ( 0.000000000000000000, 0.000000000000000000, 1.000000000000000000 ) ) ;
#74 = DIRECTION ( 'NONE',  ( -0.000000000000000000, -1.000000000000000000, -0.000000000000000000 ) ) ;
#75 = CARTESIAN_POINT ( 'NONE',  ( -35.00000000000000000, 2.000000000000000000, 37.99999999999999289 ) ) ;
#76 = APPROVAL ( #205, '未指定' ) ;
#77 = EDGE_LOOP ( 'NONE', ( #299, #763, #1033, #635 ) ) ;
#78 = VERTEX_POINT ( 'NONE', #1096 ) ;
#79 = CARTESIAN_POINT ( 'NONE',  ( -35.00000000000000000, 3.000000000000000000, -38.00000000000000711 ) ) ;
#80 = AXIS2_PLACEMENT_3D ( 'NONE', #658, #582, #1028 ) ;
#81 = PLANE ( 'NONE',  #1064 ) ;
#82 = DIRECTION ( 'NONE',  ( 0.000000000000000000, 0.000000000000000000, -1.000000000000000000 ) ) ;
#83 = CARTESIAN_POINT ( 'NONE',  ( -34.99999999999999289, 3.000000000000000000, -38.00000000000000711 ) ) ;
#84 = CIRCLE ( 'NONE', #1012, 8.000000000000000000 ) ;
#85 = VECTOR ( 'NONE', #722, 1000.000000000000000 ) ;
#86 = ORIENTED_EDGE ( 'NONE', *, *, #854, .F. ) ;
#87 = EDGE_CURVE ( 'NONE', #1005, #1029, #325, .T. ) ;
#88 = DIRECTION ( 'NONE',  ( -0.000000000000000000, -1.000000000000000000, -0.000000000000000000 ) ) ;
#89 = DIRECTION ( 'NONE',  ( 0.000000000000000000, 0.000000000000000000, -1.000000000000000000 ) ) ;
#90 = DIRECTION ( 'NONE',  ( 0.000000000000000000, 0.000000000000000000, -1.000000000000000000 ) ) ;
#91 = EDGE_CURVE ( 'NONE', #922, #1, #1007, .T. ) ;
#92 = EDGE_LOOP ( 'NONE', ( #531, #317, #610, #892 ) ) ;
#93 = LINE ( 'NONE', #704, #859 ) ;
#94 = DIRECTION ( 'NONE',  ( 0.000000000000000000, 0.000000000000000000, -1.000000000000000000 ) ) ;
#95 = CIRCLE ( 'NONE', #565, 8.000000000000000000 ) ;
#96 = DIRECTION ( 'NONE',  ( -0.000000000000000000, -0.000000000000000000, 1.000000000000000000 ) ) ;
#97 = CARTESIAN_POINT ( 'NONE',  ( -35.00000000000000000, 3.000000000000000000, 37.99999999999999289 ) ) ;
#98 = ORIENTED_EDGE ( 'NONE', *, *, #885, .T. ) ;
#99 = DIRECTION ( 'NONE',  ( 0.000000000000000000, 0.000000000000000000, -1.000000000000000000 ) ) ;
#100 = DIRECTION ( 'NONE',  ( 0.000000000000000000, -1.000000000000000000, 0.000000000000000000 ) ) ;
#101 = ADVANCED_FACE ( 'NONE', ( #577 ), #923, .F. ) ;
#102 = ORIENTED_EDGE ( 'NONE', *, *, #709, .F. ) ;
#103 = DIRECTION ( 'NONE',  ( -0.000000000000000000, -1.000000000000000000, -0.000000000000000000 ) ) ;
#104 = CARTESIAN_POINT ( 'NONE',  ( 36.24999999999995026, 0.000000000000000000, -44.25000000000000711 ) ) ;
#105 = LOCAL_TIME ( 14, 54, 35.00000000000000000, #906 ) ;
#106 = EDGE_CURVE ( 'NONE', #922, #670, #363, .T. ) ;
#107 = APPROVAL_STATUS ( 'not_yet_approved' ) ;
#108 = ORIENTED_EDGE ( 'NONE', *, *, #828, .F. ) ;
#109 = CYLINDRICAL_SURFACE ( 'NONE', #576, 8.000000000000000000 ) ;
#110 = DIRECTION ( 'NONE',  ( -0.000000000000000000, -1.000000000000000000, -0.000000000000000000 ) ) ;
#111 = CIRCLE ( 'NONE', #22, 8.000000000000000000 ) ;
#112 = FACE_OUTER_BOUND ( 'NONE', #1061, .T. ) ;
#113 = ORIENTED_EDGE ( 'NONE', *, *, #988, .T. ) ;
#114 = LINE ( 'NONE', #699, #701 ) ;
#115 = DIRECTION ( 'NONE',  ( -0.9805806756909207778, 0.1961161351381806028, 0.000000000000000000 ) ) ;
#116 = AXIS2_PLACEMENT_3D ( 'NONE', #1116, #442, #365 ) ;
#117 = CARTESIAN_POINT ( 'NONE',  ( 36.24999999999995026, 2.000000000000000000, -41.24999999999992895 ) ) ;
#118 = VERTEX_POINT ( 'NONE', #261 ) ;
#119 = EDGE_CURVE ( 'NONE', #443, #354, #259, .T. ) ;
#120 = AXIS2_PLACEMENT_3D ( 'NONE', #169, #417, #1108 ) ;
#121 = DIRECTION ( 'NONE',  ( 0.000000000000000000, 0.1961161351381809637, -0.9805806756909206667 ) ) ;
#122 = CARTESIAN_POINT ( 'NONE',  ( 44.25000000000000711, 1.399999999999993694, -36.24999999999995026 ) ) ;
#123 = LOCAL_TIME ( 14, 54, 35.00000000000000000, #710 ) ;
#124 = PERSON_AND_ORGANIZATION ( #803, #890 ) ;
#125 = ORIENTED_EDGE ( 'NONE', *, *, #691, .T. ) ;
#126 = EDGE_CURVE ( 'NONE', #666, #1005, #111, .T. ) ;
#127 = DIRECTION ( 'NONE',  ( 9.912705577010325549E-17, 0.000000000000000000, -1.000000000000000000 ) ) ;
#128 = CC_DESIGN_PERSON_AND_ORGANIZATION_ASSIGNMENT ( #719, #626, ( #295 ) ) ;
#129 = LINE ( 'NONE', #473, #765 ) ;
#130 = DIRECTION ( 'NONE',  ( 0.000000000000000000, 0.000000000000000000, 1.000000000000000000 ) ) ;
#131 = ORIENTED_EDGE ( 'NONE', *, *, #789, .T. ) ;
#132 = CARTESIAN_POINT ( 'NONE',  ( -35.00000000000000000, 2.000000000000000000, 34.99999999999999289 ) ) ;
#133 = ADVANCED_FACE ( 'NONE', ( #972 ), #2, .T. ) ;
#134 = CIRCLE ( 'NONE', #328, 4.999999999999920952 ) ;
#135 = VERTEX_POINT ( 'NONE', #192 ) ;
#136 = LINE ( 'NONE', #408, #285 ) ;
#137 = CARTESIAN_POINT ( 'NONE',  ( -44.24999999999998579, 0.000000000000000000, 36.24999999999992895 ) ) ;
#138 = CIRCLE ( 'NONE', #961, 3.000000000000002665 ) ;
#139 = ORIENTED_EDGE ( 'NONE', *, *, #470, .F. ) ;
#140 = ADVANCED_FACE ( 'NONE', ( #367 ), #966, .F. ) ;
#141 = LINE ( 'NONE', #926, #423 ) ;
#142 = CALENDAR_DATE ( 2024, 5, 10 ) ;
#143 = APPROVAL_PERSON_ORGANIZATION ( #25, #76, #30 ) ;
#144 = ORIENTED_EDGE ( 'NONE', *, *, #798, .T. ) ;
#145 = CARTESIAN_POINT ( 'NONE',  ( 39.00000000000000000, 2.000000000000000000, 34.99999999999999289 ) ) ;
#146 = ORIENTED_EDGE ( 'NONE', *, *, #223, .T. ) ;
#147 = DIRECTION ( 'NONE',  ( 1.000000000000000000, 0.000000000000000000, 0.000000000000000000 ) ) ;
#148 = ORIENTED_EDGE ( 'NONE', *, *, #662, .F. ) ;
#149 = DIRECTION ( 'NONE',  ( -0.000000000000000000, -1.000000000000000000, -0.000000000000000000 ) ) ;
#150 = FACE_OUTER_BOUND ( 'NONE', #598, .T. ) ;
#151 = DIRECTION ( 'NONE',  ( -0.000000000000000000, -1.000000000000000000, -0.000000000000000000 ) ) ;
#152 = VERTEX_POINT ( 'NONE', #446 ) ;
#153 = AXIS2_PLACEMENT_3D ( 'NONE', #762, #934, #842 ) ;
#154 = ADVANCED_FACE ( 'NONE', ( #268 ), #253, .T. ) ;
#155 = ORIENTED_EDGE ( 'NONE', *, *, #255, .T. ) ;
#156 = DIRECTION ( 'NONE',  ( 1.000000000000000000, 0.000000000000000000, 0.000000000000000000 ) ) ;
#157 = CARTESIAN_POINT ( 'NONE',  ( -39.00000000000000711, 3.000000000000000000, -35.00000000000000000 ) ) ;
#158 = CONICAL_SURFACE ( 'NONE', #943, 4.999999999999920952, 1.373400766945019003 ) ;
#159 = CARTESIAN_POINT ( 'NONE',  ( 34.99999999999999289, 3.000000000000000000, 38.00000000000000000 ) ) ;
#160 = ORIENTED_EDGE ( 'NONE', *, *, #311, .F. ) ;
#161 = DIRECTION ( 'NONE',  ( 0.000000000000000000, -1.000000000000000000, 0.000000000000000000 ) ) ;
#162 = DIRECTION ( 'NONE',  ( 0.000000000000000000, 0.000000000000000000, -1.000000000000000000 ) ) ;
#163 = DIRECTION ( 'NONE',  ( 0.000000000000000000, 0.000000000000000000, -1.000000000000000000 ) ) ;
#164 = CARTESIAN_POINT ( 'NONE',  ( 44.25000000000000711, 1.399999999999993916, 36.24999999999992895 ) ) ;
#165 = ORIENTED_EDGE ( 'NONE', *, *, #1115, .F. ) ;
#166 = VECTOR ( 'NONE', #103, 1000.000000000000000 ) ;
#167 = ORIENTED_EDGE ( 'NONE', *, *, #817, .F. ) ;
#168 = DIRECTION ( 'NONE',  ( -1.982541115402065110E-16, 0.000000000000000000, -1.000000000000000000 ) ) ;
#169 = CARTESIAN_POINT ( 'NONE',  ( -36.24999999999998579, 0.000000000000000000, 36.24999999999998579 ) ) ;
#170 = ADVANCED_FACE ( 'NONE', ( #612 ), #462, .F. ) ;
#171 = DIRECTION ( 'NONE',  ( -0.000000000000000000, -1.000000000000000000, -0.000000000000000000 ) ) ;
#172 = EDGE_LOOP ( 'NONE', ( #917, #664, #251, #721 ) ) ;
#173 = VERTEX_POINT ( 'NONE', #629 ) ;
#174 = AXIS2_PLACEMENT_3D ( 'NONE', #564, #393, #558 ) ;
#175 = CARTESIAN_POINT ( 'NONE',  ( -44.24999999999998579, 1.399999999999993916, -36.24999999999995026 ) ) ;
#176 = FACE_OUTER_BOUND ( 'NONE', #839, .T. ) ;
#177 = EDGE_CURVE ( 'NONE', #929, #380, #93, .T. ) ;
#178 = EDGE_LOOP ( 'NONE', ( #54, #144, #1106, #1091, #426, #492, #410, #579 ) ) ;
#179 = CARTESIAN_POINT ( 'NONE',  ( -35.00000000000000000, 3.000000000000000000, 37.99999999999999289 ) ) ;
#180 = CARTESIAN_POINT ( 'NONE',  ( 34.99999999999999289, 2.000000000000000000, 38.00000000000000000 ) ) ;
#181 = DIRECTION ( 'NONE',  ( 0.000000000000000000, 0.000000000000000000, -1.000000000000000000 ) ) ;
#182 = DIRECTION ( 'NONE',  ( 0.000000000000000000, -0.000000000000000000, -1.000000000000000000 ) ) ;
#183 = LINE ( 'NONE', #291, #213 ) ;
#184 = CARTESIAN_POINT ( 'NONE',  ( 0.000000000000000000, 0.000000000000000000, 0.000000000000000000 ) ) ;
#185 = VERTEX_POINT ( 'NONE', #543 ) ;
#186 = DIRECTION ( 'NONE',  ( -0.000000000000000000, -1.000000000000000000, -0.000000000000000000 ) ) ;
#187 = DIRECTION ( 'NONE',  ( 0.000000000000000000, 1.000000000000000000, -0.000000000000000000 ) ) ;
#188 = AXIS2_PLACEMENT_3D ( 'NONE', #1120, #595, #669 ) ;
#189 = PLANE ( 'NONE',  #770 ) ;
#190 = APPLICATION_PROTOCOL_DEFINITION ( 'international standard', 'config_control_design', 1994, #197 ) ;
#191 = ORIENTED_EDGE ( 'NONE', *, *, #709, .T. ) ;
#192 = CARTESIAN_POINT ( 'NONE',  ( -41.24999999999990763, 2.000000000000000000, -36.24999999999995026 ) ) ;
#193 = DIRECTION ( 'NONE',  ( 0.000000000000000000, 0.000000000000000000, -1.000000000000000000 ) ) ;
#194 = ADVANCED_FACE ( 'NONE', ( #887 ), #802, .T. ) ;
#195 = CIRCLE ( 'NONE', #557, 3.000000000000002665 ) ;
#196 = DESIGN_CONTEXT ( 'detailed design', #455, 'design' ) ;
#197 = APPLICATION_CONTEXT ( 'configuration controlled 3d designs of mechanical parts and assemblies' ) ;
#198 = APPLICATION_PROTOCOL_DEFINITION ( 'international standard', 'config_control_design', 1994, #455 ) ;
#199 = CARTESIAN_POINT ( 'NONE',  ( -35.00000000000000000, 2.000000000000000000, 37.99999999999999289 ) ) ;
#200 = CARTESIAN_POINT ( 'NONE',  ( -39.00000000000000000, 3.000000000000000000, 34.99999999999999289 ) ) ;
#201 = ORIENTED_EDGE ( 'NONE', *, *, #1105, .T. ) ;
#202 = EDGE_LOOP ( 'NONE', ( #703, #1131, #113, #373 ) ) ;
#203 = LINE ( 'NONE', #308, #72 ) ;
#204 = EDGE_CURVE ( 'NONE', #7, #1001, #203, .T. ) ;
#205 = APPROVAL_STATUS ( 'not_yet_approved' ) ;
#206 = ORIENTED_EDGE ( 'NONE', *, *, #643, .F. ) ;
#207 = CARTESIAN_POINT ( 'NONE',  ( 34.99999999999999289, 3.000000000000000000, -39.00000000000001421 ) ) ;
#208 = AXIS2_PLACEMENT_3D ( 'NONE', #1038, #954, #869 ) ;
#209 = CARTESIAN_POINT ( 'NONE',  ( 34.99999999999999289, 3.000000000000000000, -39.00000000000001421 ) ) ;
#210 = EDGE_CURVE ( 'NONE', #354, #841, #215, .T. ) ;
#211 = EDGE_LOOP ( 'NONE', ( #852, #191, #872, #793 ) ) ;
#212 = CC_DESIGN_PERSON_AND_ORGANIZATION_ASSIGNMENT ( #19, #274, ( #1040 ) ) ;
#213 = VECTOR ( 'NONE', #980, 1000.000000000000000 ) ;
#214 =( LENGTH_UNIT ( ) NAMED_UNIT ( * ) SI_UNIT ( .MILLI., .METRE. ) );
#215 = LINE ( 'NONE', #40, #951 ) ;
#216 = LINE ( 'NONE', #225, #1073 ) ;
#217 = ORIENTED_EDGE ( 'NONE', *, *, #370, .T. ) ;
#218 = EDGE_CURVE ( 'NONE', #929, #439, #554, .T. ) ;
#219 = AXIS2_PLACEMENT_3D ( 'NONE', #525, #88, #276 ) ;
#220 = EDGE_LOOP ( 'NONE', ( #412, #356, #60, #901 ) ) ;
#221 = ORIENTED_EDGE ( 'NONE', *, *, #550, .F. ) ;
#222 = DIRECTION ( 'NONE',  ( -0.000000000000000000, -1.000000000000000000, -0.000000000000000000 ) ) ;
#223 = EDGE_CURVE ( 'NONE', #755, #568, #129, .T. ) ;
#224 = EDGE_LOOP ( 'NONE', ( #1014, #506, #45, #26 ) ) ;
#225 = CARTESIAN_POINT ( 'NONE',  ( -35.00000000000000000, 2.000000000000000000, -39.00000000000001421 ) ) ;
#226 = CONICAL_SURFACE ( 'NONE', #153, 4.999999999999920952, 1.373400766945019003 ) ;
#227 = ORIENTED_EDGE ( 'NONE', *, *, #733, .T. ) ;
#228 = CARTESIAN_POINT ( 'NONE',  ( 39.00000000000000000, 3.000000000000000000, 34.99999999999999289 ) ) ;
#229 = CARTESIAN_POINT ( 'NONE',  ( -44.24999999999998579, 2.000000000000000000, -36.24999999999995026 ) ) ;
#230 = VECTOR ( 'NONE', #441, 1000.000000000000000 ) ;
#231 = ORIENTED_EDGE ( 'NONE', *, *, #280, .T. ) ;
#232 = CARTESIAN_POINT ( 'NONE',  ( 34.99999999999999289, 2.000000000000000000, -35.00000000000000000 ) ) ;
#233 = CARTESIAN_POINT ( 'NONE',  ( -35.00000000000000000, 3.000000000000000000, -39.00000000000001421 ) ) ;
#234 = EDGE_LOOP ( 'NONE', ( #683, #419, #125, #39 ) ) ;
#235 = VECTOR ( 'NONE', #893, 1000.000000000000000 ) ;
#236 = ORIENTED_EDGE ( 'NONE', *, *, #311, .T. ) ;
#237 = CARTESIAN_POINT ( 'NONE',  ( -34.99999999999999289, 3.000000000000000000, -35.00000000000000000 ) ) ;
#238 = DIRECTION ( 'NONE',  ( 0.000000000000000000, -1.000000000000000000, 0.000000000000000000 ) ) ;
#239 = CARTESIAN_POINT ( 'NONE',  ( -38.00000000000000000, 2.000000000000000000, 34.99999999999999289 ) ) ;
#240 = VECTOR ( 'NONE', #149, 1000.000000000000000 ) ;
#241 = EDGE_CURVE ( 'NONE', #380, #583, #813, .T. ) ;
#242 = ORIENTED_EDGE ( 'NONE', *, *, #828, .T. ) ;
#243 = EDGE_LOOP ( 'NONE', ( #1039, #201, #675, #361, #1093, #98, #242, #689 ) ) ;
#244 = DIRECTION ( 'NONE',  ( 1.000000000000000000, 0.000000000000000000, -0.000000000000000000 ) ) ;
#245 = EDGE_LOOP ( 'NONE', ( #227, #247, #833, #912 ) ) ;
#246 = EDGE_CURVE ( 'NONE', #118, #517, #1000, .T. ) ;
#247 = ORIENTED_EDGE ( 'NONE', *, *, #562, .F. ) ;
#248 = DIRECTION ( 'NONE',  ( 0.000000000000000000, 1.000000000000000000, -0.000000000000000000 ) ) ;
#249 = CARTESIAN_POINT ( 'NONE',  ( 44.25000000000000711, 2.000000000000000000, -36.24999999999995026 ) ) ;
#250 = DIRECTION ( 'NONE',  ( 1.000000000000000000, 0.000000000000000000, 0.000000000000000000 ) ) ;
#251 = ORIENTED_EDGE ( 'NONE', *, *, #798, .F. ) ;
#252 = ORIENTED_EDGE ( 'NONE', *, *, #246, .F. ) ;
#253 = PLANE ( 'NONE',  #678 ) ;
#254 = DIRECTION ( 'NONE',  ( -0.000000000000000000, -1.000000000000000000, -0.000000000000000000 ) ) ;
#255 = EDGE_CURVE ( 'NONE', #432, #1130, #642, .T. ) ;
#256 = LINE ( 'NONE', #756, #333 ) ;
#257 = CARTESIAN_POINT ( 'NONE',  ( 37.99999999999999289, 3.000000000000000000, -35.00000000000000000 ) ) ;
#258 = ORIENTED_EDGE ( 'NONE', *, *, #204, .T. ) ;
#259 = CIRCLE ( 'NONE', #516, 3.000000000000002665 ) ;
#260 = ORIENTED_EDGE ( 'NONE', *, *, #733, .F. ) ;
#261 = CARTESIAN_POINT ( 'NONE',  ( 39.00000000000000711, 2.000000000000000000, -35.00000000000000000 ) ) ;
#262 = DIRECTION ( 'NONE',  ( 0.000000000000000000, 0.000000000000000000, -1.000000000000000000 ) ) ;
#263 = ADVANCED_FACE ( 'NONE', ( #607 ), #81, .F. ) ;
#264 = CARTESIAN_POINT ( 'NONE',  ( 35.00000000000000000, 3.000000000000000000, -38.00000000000000711 ) ) ;
#265 = FACE_OUTER_BOUND ( 'NONE', #489, .T. ) ;
#266 = ORIENTED_EDGE ( 'NONE', *, *, #1072, .F. ) ;
#267 = ORIENTED_EDGE ( 'NONE', *, *, #210, .F. ) ;
#268 = FACE_OUTER_BOUND ( 'NONE', #77, .T. ) ;
#269 = CARTESIAN_POINT ( 'NONE',  ( -36.24999999999992895, 2.000000000000000000, -44.25000000000000711 ) ) ;
#270 = DIRECTION ( 'NONE',  ( -0.000000000000000000, -0.000000000000000000, 1.000000000000000000 ) ) ;
#271 = CARTESIAN_POINT ( 'NONE',  ( -41.24999999999990763, 2.000000000000000000, 36.24999999999992895 ) ) ;
#272 = EDGE_CURVE ( 'NONE', #31, #354, #939, .T. ) ;
#273 = VECTOR ( 'NONE', #74, 1000.000000000000000 ) ;
#274 = PERSON_AND_ORGANIZATION_ROLE ( 'design_owner' ) ;
#275 = EDGE_LOOP ( 'NONE', ( #948, #985, #486, #406 ) ) ;
#276 = DIRECTION ( 'NONE',  ( 0.000000000000000000, 0.000000000000000000, -1.000000000000000000 ) ) ;
#277 = CARTESIAN_POINT ( 'NONE',  ( 36.25000000000000711, 2.000000000000000000, -36.25000000000000711 ) ) ;
#278 = AXIS2_PLACEMENT_3D ( 'NONE', #277, #613, #622 ) ;
#279 = FACE_BOUND ( 'NONE', #737, .T. ) ;
#280 = EDGE_CURVE ( 'NONE', #173, #711, #930, .T. ) ;
#281 = PERSON_AND_ORGANIZATION ( #803, #890 ) ;
#282 = ORIENTED_EDGE ( 'NONE', *, *, #964, .F. ) ;
#283 = CARTESIAN_POINT ( 'NONE',  ( -36.24999999999992895, 2.000000000000000000, 44.24999999999998579 ) ) ;
#284 = DIRECTION ( 'NONE',  ( 0.000000000000000000, 0.000000000000000000, -1.000000000000000000 ) ) ;
#285 = VECTOR ( 'NONE', #845, 1000.000000000000000 ) ;
#286 = CARTESIAN_POINT ( 'NONE',  ( 34.99999999999999289, 2.000000000000000000, 38.99999999999999289 ) ) ;
#287 = EDGE_LOOP ( 'NONE', ( #652, #445, #801, #131, #217, #362, #524, #920 ) ) ;
#288 = PRODUCT_DEFINITION ( '未知', '', #295, #196 ) ;
#289 = VECTOR ( 'NONE', #127, 1000.000000000000000 ) ;
#290 = EDGE_LOOP ( 'NONE', ( #638, #775, #649, #366 ) ) ;
#291 = CARTESIAN_POINT ( 'NONE',  ( 36.24999999999995026, 2.000000000000000000, -44.25000000000000711 ) ) ;
#292 = SECURITY_CLASSIFICATION_LEVEL ( 'unclassified' ) ;
#293 = VECTOR ( 'NONE', #110, 1000.000000000000000 ) ;
#294 = ORIENTED_EDGE ( 'NONE', *, *, #126, .F. ) ;
#295 = PRODUCT_DEFINITION_FORMATION_WITH_SPECIFIED_SOURCE ( '任何', '', #1040, .NOT_KNOWN. ) ;
#296 = LINE ( 'NONE', #718, #293 ) ;
#297 = VECTOR ( 'NONE', #168, 1000.000000000000000 ) ;
#298 = DATE_AND_TIME ( #385, #123 ) ;
#299 = ORIENTED_EDGE ( 'NONE', *, *, #381, .F. ) ;
#300 = FACE_OUTER_BOUND ( 'NONE', #1101, .T. ) ;
#301 = AXIS2_PLACEMENT_3D ( 'NONE', #79, #695, #1047 ) ;
#302 = ADVANCED_FACE ( 'NONE', ( #421 ), #502, .F. ) ;
#303 = DIRECTION ( 'NONE',  ( 0.000000000000000000, 0.000000000000000000, -1.000000000000000000 ) ) ;
#304 = CARTESIAN_POINT ( 'NONE',  ( 36.25000000000000711, 0.000000000000000000, 36.24999999999998579 ) ) ;
#305 = EDGE_LOOP ( 'NONE', ( #787, #716, #307, #155 ) ) ;
#306 = CARTESIAN_POINT ( 'NONE',  ( -36.24999999999992895, 0.000000000000000000, -44.25000000000000711 ) ) ;
#307 = ORIENTED_EDGE ( 'NONE', *, *, #493, .T. ) ;
#308 = CARTESIAN_POINT ( 'NONE',  ( -36.24999999999995026, 2.000000000000000000, -41.24999999999992184 ) ) ;
#309 = VECTOR ( 'NONE', #121, 1000.000000000000227 ) ;
#310 = PLANE ( 'NONE',  #490 ) ;
#311 = EDGE_CURVE ( 'NONE', #960, #31, #451, .T. ) ;
#312 = ORIENTED_EDGE ( 'NONE', *, *, #789, .F. ) ;
#313 = AXIS2_PLACEMENT_3D ( 'NONE', #434, #682, #958 ) ;
#314 = LINE ( 'NONE', #332, #61 ) ;
#315 = DIRECTION ( 'NONE',  ( 6.804145272840766215E-15, -0.1961161351381806028, -0.9805806756909207778 ) ) ;
#316 = CARTESIAN_POINT ( 'NONE',  ( 36.25000000000000711, 1.399999999999993916, 36.24999999999998579 ) ) ;
#317 = ORIENTED_EDGE ( 'NONE', *, *, #69, .F. ) ;
#318 = EDGE_CURVE ( 'NONE', #480, #78, #585, .T. ) ;
#319 = LINE ( 'NONE', #478, #975 ) ;
#320 = EDGE_LOOP ( 'NONE', ( #631, #266, #1066, #1041 ) ) ;
#321 = AXIS2_PLACEMENT_3D ( 'NONE', #938, #344, #944 ) ;
#322 = DIRECTION ( 'NONE',  ( -1.000000000000000000, -0.000000000000000000, -0.000000000000000000 ) ) ;
#323 = LINE ( 'NONE', #488, #44 ) ;
#324 = ORIENTED_EDGE ( 'NONE', *, *, #1050, .T. ) ;
#325 = LINE ( 'NONE', #660, #714 ) ;
#326 = LINE ( 'NONE', #1008, #29 ) ;
#327 = CARTESIAN_POINT ( 'NONE',  ( 34.99999999999999289, 3.000000000000000000, 34.99999999999999289 ) ) ;
#328 = AXIS2_PLACEMENT_3D ( 'NONE', #927, #849, #499 ) ;
#329 = APPROVAL_DATE_TIME ( #1100, #32 ) ;
#330 = ORIENTED_EDGE ( 'NONE', *, *, #106, .F. ) ;
#331 = DIRECTION ( 'NONE',  ( 0.1961161351381809914, -0.9805806756909207778, 0.000000000000000000 ) ) ;
#332 = CARTESIAN_POINT ( 'NONE',  ( -35.00000000000000000, 3.000000000000000000, -38.00000000000000711 ) ) ;
#333 = VECTOR ( 'NONE', #608, 1000.000000000000000 ) ;
#334 = EDGE_CURVE ( 'NONE', #1001, #552, #677, .T. ) ;
#335 = CARTESIAN_POINT ( 'NONE',  ( -34.99999999999999289, 3.000000000000000000, -35.00000000000000000 ) ) ;
#336 = EDGE_LOOP ( 'NONE', ( #816, #694, #160, #745, #773, #1082, #14, #676 ) ) ;
#337 = AXIS2_PLACEMENT_3D ( 'NONE', #382, #548, #1063 ) ;
#338 = PLANE ( 'NONE',  #749 ) ;
#339 = DIRECTION ( 'NONE',  ( -0.000000000000000000, -1.000000000000000000, -0.000000000000000000 ) ) ;
#340 = ADVANCED_FACE ( 'NONE', ( #846 ), #345, .F. ) ;
#341 = CIRCLE ( 'NONE', #1094, 3.000000000000002665 ) ;
#342 = CC_DESIGN_PERSON_AND_ORGANIZATION_ASSIGNMENT ( #281, #981, ( #295 ) ) ;
#343 = EDGE_LOOP ( 'NONE', ( #594, #1111, #782, #294 ) ) ;
#344 = DIRECTION ( 'NONE',  ( -0.000000000000000000, -1.000000000000000000, -0.000000000000000000 ) ) ;
#345 = PLANE ( 'NONE',  #1024 ) ;
#346 = DIRECTION ( 'NONE',  ( -1.000000000000000000, -0.000000000000000000, -0.000000000000000000 ) ) ;
#347 = VECTOR ( 'NONE', #415, 1000.000000000000000 ) ;
#348 = ORIENTED_EDGE ( 'NONE', *, *, #936, .F. ) ;
#349 = ADVANCED_FACE ( 'NONE', ( #769 ), #3, .F. ) ;
#350 = CARTESIAN_POINT ( 'NONE',  ( 41.24999999999992184, 2.000000000000000000, 36.24999999999998579 ) ) ;
#351 = VECTOR ( 'NONE', #147, 1000.000000000000000 ) ;
#352 = CYLINDRICAL_SURFACE ( 'NONE', #707, 3.000000000000002665 ) ;
#353 = DIRECTION ( 'NONE',  ( -0.000000000000000000, -1.000000000000000000, -0.000000000000000000 ) ) ;
#354 = VERTEX_POINT ( 'NONE', #447 ) ;
#355 = EDGE_CURVE ( 'NONE', #807, #604, #41, .T. ) ;
#356 = ORIENTED_EDGE ( 'NONE', *, *, #996, .F. ) ;
#357 = DIRECTION ( 'NONE',  ( 1.982541115402065110E-16, 0.000000000000000000, 1.000000000000000000 ) ) ;
#358 = DIRECTION ( 'NONE',  ( 0.000000000000000000, 0.000000000000000000, 1.000000000000000000 ) ) ;
#359 = CARTESIAN_POINT ( 'NONE',  ( -34.99999999999999289, 2.000000000000000000, -39.00000000000000711 ) ) ;
#360 = CARTESIAN_POINT ( 'NONE',  ( -36.24999999999998579, 2.000000000000000000, 36.24999999999998579 ) ) ;
#361 = ORIENTED_EDGE ( 'NONE', *, *, #538, .T. ) ;
#362 = ORIENTED_EDGE ( 'NONE', *, *, #530, .T. ) ;
#363 = LINE ( 'NONE', #621, #166 ) ;
#364 = CARTESIAN_POINT ( 'NONE',  ( -44.24999999999998579, 2.000000000000000000, 36.24999999999992895 ) ) ;
#365 = DIRECTION ( 'NONE',  ( 0.000000000000000000, 0.000000000000000000, -1.000000000000000000 ) ) ;
#366 = ORIENTED_EDGE ( 'NONE', *, *, #1019, .F. ) ;
#367 = FACE_OUTER_BOUND ( 'NONE', #741, .T. ) ;
#368 = AXIS2_PLACEMENT_3D ( 'NONE', #779, #12, #963 ) ;
#369 = PRODUCT_DEFINITION_SHAPE ( 'NONE', 'NONE',  #288 ) ;
#370 = EDGE_CURVE ( 'NONE', #907, #730, #526, .T. ) ;
#371 = CARTESIAN_POINT ( 'NONE',  ( -36.24999999999998579, 2.000000000000000000, -36.25000000000000711 ) ) ;
#372 = CIRCLE ( 'NONE', #993, 4.000000000000000000 ) ;
#373 = ORIENTED_EDGE ( 'NONE', *, *, #545, .T. ) ;
#374 = CARTESIAN_POINT ( 'NONE',  ( -38.00000000000000000, 3.000000000000000000, 34.99999999999999289 ) ) ;
#375 = ADVANCED_FACE ( 'NONE', ( #150 ), #1126, .T. ) ;
#376 = ORIENTED_EDGE ( 'NONE', *, *, #1122, .F. ) ;
#377 = AXIS2_PLACEMENT_3D ( 'NONE', #949, #1132, #357 ) ;
#378 = DIRECTION ( 'NONE',  ( -0.000000000000000000, -1.000000000000000000, -0.000000000000000000 ) ) ;
#379 = CALENDAR_DATE ( 2024, 5, 10 ) ;
#380 = VERTEX_POINT ( 'NONE', #519 ) ;
#381 = EDGE_CURVE ( 'NONE', #871, #392, #866, .T. ) ;
#382 = CARTESIAN_POINT ( 'NONE',  ( 36.25000000000000711, 2.000000000000000000, 36.24999999999998579 ) ) ;
#383 = AXIS2_PLACEMENT_3D ( 'NONE', #1136, #1051, #603 ) ;
#384 = CARTESIAN_POINT ( 'NONE',  ( -36.24999999999998579, 2.000000000000000000, 36.24999999999998579 ) ) ;
#385 = CALENDAR_DATE ( 2024, 5, 10 ) ;
#386 = AXIS2_PLACEMENT_3D ( 'NONE', #327, #1011, #130 ) ;
#387 = ORIENTED_EDGE ( 'NONE', *, *, #781, .F. ) ;
#388 = EDGE_CURVE ( 'NONE', #561, #439, #818, .T. ) ;
#389 = CARTESIAN_POINT ( 'NONE',  ( -39.00000000000000000, 2.000000000000000000, -34.99999999999999289 ) ) ;
#390 = CARTESIAN_POINT ( 'NONE',  ( 34.99999999999999289, 2.000000000000000000, -35.00000000000000000 ) ) ;
#391 = SHAPE_DEFINITION_REPRESENTATION ( #369, #1121 ) ;
#392 = VERTEX_POINT ( 'NONE', #180 ) ;
#393 = DIRECTION ( 'NONE',  ( 0.000000000000000000, -1.000000000000000000, 0.000000000000000000 ) ) ;
#394 = VECTOR ( 'NONE', #156, 1000.000000000000000 ) ;
#395 = DIRECTION ( 'NONE',  ( 0.9805806756909207778, -0.1961161351381806028, 6.804145272840766215E-15 ) ) ;
#396 = EDGE_CURVE ( 'NONE', #1, #547, #835, .T. ) ;
#397 = DIRECTION ( 'NONE',  ( 0.9805806756909206667, 0.1961161351381809637, 0.000000000000000000 ) ) ;
#398 = ORIENTED_EDGE ( 'NONE', *, *, #106, .T. ) ;
#399 = PLANE ( 'NONE',  #174 ) ;
#400 = EDGE_CURVE ( 'NONE', #1001, #1130, #973, .T. ) ;
#401 = ORIENTED_EDGE ( 'NONE', *, *, #1072, .T. ) ;
#402 = LINE ( 'NONE', #650, #347 ) ;
#403 = VECTOR ( 'NONE', #18, 1000.000000000000227 ) ;
#404 = CC_DESIGN_APPROVAL ( #76, ( #288 ) ) ;
#405 = DIRECTION ( 'NONE',  ( -0.000000000000000000, -1.000000000000000000, -0.000000000000000000 ) ) ;
#406 = ORIENTED_EDGE ( 'NONE', *, *, #562, .T. ) ;
#407 = CC_DESIGN_PERSON_AND_ORGANIZATION_ASSIGNMENT ( #970, #546, ( #1134 ) ) ;
#408 = CARTESIAN_POINT ( 'NONE',  ( -36.24999999999992895, 0.000000000000000000, 44.24999999999998579 ) ) ;
#409 = CARTESIAN_POINT ( 'NONE',  ( -35.00000000000000000, 2.000000000000000000, 38.99999999999999289 ) ) ;
#410 = ORIENTED_EDGE ( 'NONE', *, *, #355, .T. ) ;
#411 = CARTESIAN_POINT ( 'NONE',  ( 34.99999999999999289, 3.000000000000000000, 38.00000000000000000 ) ) ;
#412 = ORIENTED_EDGE ( 'NONE', *, *, #218, .F. ) ;
#413 = ADVANCED_FACE ( 'NONE', ( #16 ), #795, .T. ) ;
#414 = DIRECTION ( 'NONE',  ( 0.000000000000000000, 0.000000000000000000, -1.000000000000000000 ) ) ;
#415 = DIRECTION ( 'NONE',  ( 0.000000000000000000, 0.000000000000000000, 1.000000000000000000 ) ) ;
#416 = ORIENTED_EDGE ( 'NONE', *, *, #24, .F. ) ;
#417 = DIRECTION ( 'NONE',  ( 0.000000000000000000, 1.000000000000000000, -0.000000000000000000 ) ) ;
#418 = CIRCLE ( 'NONE', #847, 4.999999999999920952 ) ;
#419 = ORIENTED_EDGE ( 'NONE', *, *, #10, .T. ) ;
#420 = DIRECTION ( 'NONE',  ( 9.912705577010325549E-17, 0.000000000000000000, -1.000000000000000000 ) ) ;
#421 = FACE_OUTER_BOUND ( 'NONE', #290, .T. ) ;
#422 = ADVANCED_FACE ( 'NONE', ( #1067 ), #109, .T. ) ;
#423 = VECTOR ( 'NONE', #665, 1000.000000000000000 ) ;
#424 = CARTESIAN_POINT ( 'NONE',  ( -38.00000000000000000, 3.000000000000000000, 34.99999999999999289 ) ) ;
#425 = LINE ( 'NONE', #159, #1069 ) ;
#426 = ORIENTED_EDGE ( 'NONE', *, *, #396, .T. ) ;
#427 = CARTESIAN_POINT ( 'NONE',  ( -36.24999999999995026, 2.000000000000000000, -41.24999999999992184 ) ) ;
#428 = LINE ( 'NONE', #586, #648 ) ;
#429 = ADVANCED_FACE ( 'NONE', ( #888 ), #34, .T. ) ;
#430 = VECTOR ( 'NONE', #303, 1000.000000000000000 ) ;
#431 = ORIENTED_EDGE ( 'NONE', *, *, #619, .F. ) ;
#432 = VERTEX_POINT ( 'NONE', #104 ) ;
#433 = CARTESIAN_POINT ( 'NONE',  ( -38.00000000000000000, 3.000000000000000000, -35.00000000000000000 ) ) ;
#434 = CARTESIAN_POINT ( 'NONE',  ( -36.24999999999998579, 2.000000000000000000, 36.24999999999998579 ) ) ;
#435 = PLANE ( 'NONE',  #368 ) ;
#436 = EDGE_CURVE ( 'NONE', #604, #894, #788, .T. ) ;
#437 = AXIS2_PLACEMENT_3D ( 'NONE', #132, #1083, #1090 ) ;
#438 = ORIENTED_EDGE ( 'NONE', *, *, #572, .T. ) ;
#439 = VERTEX_POINT ( 'NONE', #9 ) ;
#440 = AXIS2_PLACEMENT_3D ( 'NONE', #449, #790, #979 ) ;
#441 = DIRECTION ( 'NONE',  ( -1.000000000000000000, 0.000000000000000000, 0.000000000000000000 ) ) ;
#442 = DIRECTION ( 'NONE',  ( 0.000000000000000000, 1.000000000000000000, -0.000000000000000000 ) ) ;
#443 = VERTEX_POINT ( 'NONE', #717 ) ;
#444 = LOCAL_TIME ( 14, 54, 35.00000000000000000, #555 ) ;
#445 = ORIENTED_EDGE ( 'NONE', *, *, #1107, .T. ) ;
#446 = CARTESIAN_POINT ( 'NONE',  ( 38.00000000000000711, 3.000000000000000000, 34.99999999999999289 ) ) ;
#447 = CARTESIAN_POINT ( 'NONE',  ( -38.00000000000000000, 2.000000000000000000, -35.00000000000000000 ) ) ;
#448 = AXIS2_PLACEMENT_3D ( 'NONE', #544, #187, #284 ) ;
#449 = CARTESIAN_POINT ( 'NONE',  ( -39.00000000000000000, 3.000000000000000000, 34.99999999999999289 ) ) ;
#450 = CARTESIAN_POINT ( 'NONE',  ( -35.00000000000000000, 2.000000000000000000, 38.99999999999999289 ) ) ;
#451 = CIRCLE ( 'NONE', #1081, 3.000000000000002665 ) ;
#452 = ORIENTED_EDGE ( 'NONE', *, *, #811, .T. ) ;
#453 = CARTESIAN_POINT ( 'NONE',  ( -36.24999999999998579, 2.000000000000000000, -36.25000000000000711 ) ) ;
#454 = EDGE_CURVE ( 'NONE', #758, #670, #874, .T. ) ;
#455 = APPLICATION_CONTEXT ( 'configuration controlled 3d designs of mechanical parts and assemblies' ) ;
#456 = LINE ( 'NONE', #634, #830 ) ;
#457 = DIRECTION ( 'NONE',  ( 1.000000000000000000, 0.000000000000000000, 0.000000000000000000 ) ) ;
#458 = APPROVAL_DATE_TIME ( #883, #1060 ) ;
#459 = ORIENTED_EDGE ( 'NONE', *, *, #1050, .F. ) ;
#460 = EDGE_CURVE ( 'NONE', #666, #599, #967, .T. ) ;
#461 = ORIENTED_EDGE ( 'NONE', *, *, #1095, .T. ) ;
#462 = PLANE ( 'NONE',  #913 ) ;
#463 = CARTESIAN_POINT ( 'NONE',  ( 36.25000000000000711, 2.000000000000000000, 36.24999999999998579 ) ) ;
#464 = CC_DESIGN_APPROVAL ( #32, ( #1134 ) ) ;
#465 = ADVANCED_FACE ( 'NONE', ( #808 ), #27, .T. ) ;
#466 = VERTEX_POINT ( 'NONE', #624 ) ;
#467 = CARTESIAN_POINT ( 'NONE',  ( -36.24999999999992895, 2.000000000000000000, 44.24999999999998579 ) ) ;
#468 = VECTOR ( 'NONE', #115, 1000.000000000000114 ) ;
#469 = CARTESIAN_POINT ( 'NONE',  ( 36.24999999999995026, 0.000000000000000000, 44.24999999999998579 ) ) ;
#470 = EDGE_CURVE ( 'NONE', #1123, #552, #799, .T. ) ;
#471 = AXIS2_PLACEMENT_3D ( 'NONE', #1044, #35, #534 ) ;
#472 = DIRECTION ( 'NONE',  ( -0.000000000000000000, -1.000000000000000000, -0.000000000000000000 ) ) ;
#473 = CARTESIAN_POINT ( 'NONE',  ( 41.24999999999992184, 2.000000000000000000, -36.24999999999997158 ) ) ;
#474 = VECTOR ( 'NONE', #397, 1000.000000000000227 ) ;
#475 = AXIS2_PLACEMENT_3D ( 'NONE', #632, #976, #705 ) ;
#476 = ORIENTED_EDGE ( 'NONE', *, *, #854, .T. ) ;
#477 = ADVANCED_FACE ( 'NONE', ( #112 ), #809, .T. ) ;
#478 = CARTESIAN_POINT ( 'NONE',  ( -35.00000000000000000, 3.000000000000000000, -39.00000000000001421 ) ) ;
#479 = DIRECTION ( 'NONE',  ( 0.000000000000000000, 0.000000000000000000, 1.000000000000000000 ) ) ;
#480 = VERTEX_POINT ( 'NONE', #713 ) ;
#481 =( NAMED_UNIT ( * ) SI_UNIT ( $, .STERADIAN. ) SOLID_ANGLE_UNIT ( ) );
#482 = AXIS2_PLACEMENT_3D ( 'NONE', #495, #1062, #783 ) ;
#483 = ADVANCED_FACE ( 'NONE', ( #1065 ), #23, .T. ) ;
#484 = ORIENTED_EDGE ( 'NONE', *, *, #1084, .T. ) ;
#485 = CARTESIAN_POINT ( 'NONE',  ( 44.25000000000000711, 0.000000000000000000, 36.24999999999992895 ) ) ;
#486 = ORIENTED_EDGE ( 'NONE', *, *, #318, .F. ) ;
#487 = CARTESIAN_POINT ( 'NONE',  ( 34.99999999999999289, 3.000000000000000000, 34.99999999999999289 ) ) ;
#488 = CARTESIAN_POINT ( 'NONE',  ( -35.00000000000000000, 3.000000000000000000, 38.99999999999999289 ) ) ;
#489 = EDGE_LOOP ( 'NONE', ( #838, #1112, #836, #539 ) ) ;
#490 = AXIS2_PLACEMENT_3D ( 'NONE', #647, #910, #994 ) ;
#491 = CARTESIAN_POINT ( 'NONE',  ( -36.24999999999998579, 1.399999999999993916, -36.25000000000000711 ) ) ;
#492 = ORIENTED_EDGE ( 'NONE', *, *, #643, .T. ) ;
#493 = EDGE_CURVE ( 'NONE', #552, #432, #183, .T. ) ;
#494 = ORIENTED_EDGE ( 'NONE', *, *, #91, .F. ) ;
#495 = CARTESIAN_POINT ( 'NONE',  ( -36.24999999999998579, 2.000000000000000000, 41.24999999999990763 ) ) ;
#496 = LINE ( 'NONE', #46, #826 ) ;
#497 = ORIENTED_EDGE ( 'NONE', *, *, #781, .T. ) ;
#498 = CARTESIAN_POINT ( 'NONE',  ( 36.24999999999995026, 1.399999999999993916, -44.25000000000000711 ) ) ;
#499 = DIRECTION ( 'NONE',  ( 3.469446951953669094E-14, 0.000000000000000000, -1.000000000000000000 ) ) ;
#500 = ORIENTED_EDGE ( 'NONE', *, *, #915, .F. ) ;
#501 = EDGE_CURVE ( 'NONE', #517, #693, #216, .T. ) ;
#502 = PLANE ( 'NONE',  #804 ) ;
#503 = LINE ( 'NONE', #249, #273 ) ;
#504 = VECTOR ( 'NONE', #646, 1000.000000000000000 ) ;
#505 = ORIENTED_EDGE ( 'NONE', *, *, #119, .F. ) ;
#506 = ORIENTED_EDGE ( 'NONE', *, *, #996, .T. ) ;
#507 = DIRECTION ( 'NONE',  ( -1.000000000000000000, 0.000000000000000000, 0.000000000000000000 ) ) ;
#508 = EDGE_CURVE ( 'NONE', #929, #185, #873, .T. ) ;
#509 = PLANE ( 'NONE',  #313 ) ;
#510 = FACE_OUTER_BOUND ( 'NONE', #343, .T. ) ;
#511 = CARTESIAN_POINT ( 'NONE',  ( -38.00000000000000000, 3.000000000000000000, -35.00000000000000000 ) ) ;
#512 = CARTESIAN_POINT ( 'NONE',  ( -35.00000000000000000, 3.000000000000000000, 38.99999999999999289 ) ) ;
#513 = EDGE_CURVE ( 'NONE', #711, #1023, #141, .T. ) ;
#514 = CARTESIAN_POINT ( 'NONE',  ( -36.24999999999992895, 2.000000000000000000, -44.25000000000000711 ) ) ;
#515 = LINE ( 'NONE', #786, #1006 ) ;
#516 = AXIS2_PLACEMENT_3D ( 'NONE', #8, #794, #99 ) ;
#517 = VERTEX_POINT ( 'NONE', #751 ) ;
#518 = EDGE_LOOP ( 'NONE', ( #991, #1137, #165, #102 ) ) ;
#519 = CARTESIAN_POINT ( 'NONE',  ( 44.25000000000000711, 0.000000000000000000, 36.24999999999992895 ) ) ;
#520 = PLANE ( 'NONE',  #15 ) ;
#521 = CYLINDRICAL_SURFACE ( 'NONE', #1049, 3.000000000000002665 ) ;
#522 = VECTOR ( 'NONE', #457, 1000.000000000000000 ) ;
#523 = VERTEX_POINT ( 'NONE', #411 ) ;
#524 = ORIENTED_EDGE ( 'NONE', *, *, #617, .T. ) ;
#525 = CARTESIAN_POINT ( 'NONE',  ( 34.99999999999999289, 3.000000000000000000, -35.00000000000000000 ) ) ;
#526 = LINE ( 'NONE', #853, #297 ) ;
#527 = AXIS2_PLACEMENT_3D ( 'NONE', #535, #378, #1070 ) ;
#528 = DIRECTION ( 'NONE',  ( 0.000000000000000000, 0.000000000000000000, 1.000000000000000000 ) ) ;
#529 = CYLINDRICAL_SURFACE ( 'NONE', #208, 4.000000000000003553 ) ;
#530 = EDGE_CURVE ( 'NONE', #730, #1023, #138, .T. ) ;
#531 = ORIENTED_EDGE ( 'NONE', *, *, #370, .F. ) ;
#532 = DIRECTION ( 'NONE',  ( -1.000000000000000000, 0.000000000000000000, -0.000000000000000000 ) ) ;
#533 = CARTESIAN_POINT ( 'NONE',  ( -36.24999999999998579, 0.000000000000000000, -36.25000000000000711 ) ) ;
#534 = DIRECTION ( 'NONE',  ( 0.000000000000000000, 0.000000000000000000, -1.000000000000000000 ) ) ;
#535 = CARTESIAN_POINT ( 'NONE',  ( -35.00000000000000000, 3.000000000000000000, 34.99999999999999289 ) ) ;
#536 = AXIS2_PLACEMENT_3D ( 'NONE', #512, #1016, #1026 ) ;
#537 = CALENDAR_DATE ( 2024, 5, 10 ) ;
#538 = EDGE_CURVE ( 'NONE', #37, #561, #1092, .T. ) ;
#539 = ORIENTED_EDGE ( 'NONE', *, *, #735, .T. ) ;
#540 = CC_DESIGN_DATE_AND_TIME_ASSIGNMENT ( #702, #800, ( #288 ) ) ;
#541 = APPROVAL_ROLE ( '' ) ;
#542 = EDGE_LOOP ( 'NONE', ( #148, #1098, #387, #780, #982, #574, #66, #688 ) ) ;
#543 = CARTESIAN_POINT ( 'NONE',  ( 36.24999999999995026, 1.399999999999993916, 44.24999999999998579 ) ) ;
#544 = CARTESIAN_POINT ( 'NONE',  ( 34.99999999999999289, 3.000000000000000000, -35.00000000000000000 ) ) ;
#545 = EDGE_CURVE ( 'NONE', #960, #443, #905, .T. ) ;
#546 = PERSON_AND_ORGANIZATION_ROLE ( 'classification_officer' ) ;
#547 = VERTEX_POINT ( 'NONE', #209 ) ;
#548 = DIRECTION ( 'NONE',  ( 0.000000000000000000, 1.000000000000000000, -0.000000000000000000 ) ) ;
#549 = APPROVAL_PERSON_ORGANIZATION ( #805, #1060, #541 ) ;
#550 = EDGE_CURVE ( 'NONE', #886, #922, #851, .T. ) ;
#551 = VERTEX_POINT ( 'NONE', #739 ) ;
#552 = VERTEX_POINT ( 'NONE', #498 ) ;
#553 = CARTESIAN_POINT ( 'NONE',  ( 34.99999999999999289, 3.000000000000000000, -35.00000000000000000 ) ) ;
#554 = LINE ( 'NONE', #571, #468 ) ;
#555 = COORDINATED_UNIVERSAL_TIME_OFFSET ( 8, 0, .AHEAD. ) ;
#556 = ORIENTED_EDGE ( 'NONE', *, *, #983, .T. ) ;
#557 = AXIS2_PLACEMENT_3D ( 'NONE', #487, #655, #840 ) ;
#558 = DIRECTION ( 'NONE',  ( 0.000000000000000000, -0.000000000000000000, -1.000000000000000000 ) ) ;
#559 = DIRECTION ( 'NONE',  ( -0.000000000000000000, -0.000000000000000000, 1.000000000000000000 ) ) ;
#560 = VECTOR ( 'NONE', #346, 1000.000000000000000 ) ;
#561 = VERTEX_POINT ( 'NONE', #998 ) ;
#562 = EDGE_CURVE ( 'NONE', #480, #1071, #59, .T. ) ;
#563 = ORIENTED_EDGE ( 'NONE', *, *, #806, .F. ) ;
#564 = CARTESIAN_POINT ( 'NONE',  ( -36.24999999999998579, 0.000000000000000000, 36.24999999999998579 ) ) ;
#565 = AXIS2_PLACEMENT_3D ( 'NONE', #491, #161, #414 ) ;
#566 = LINE ( 'NONE', #42, #474 ) ;
#567 = ORIENTED_EDGE ( 'NONE', *, *, #915, .T. ) ;
#568 = VERTEX_POINT ( 'NONE', #122 ) ;
#569 = AXIS2_PLACEMENT_3D ( 'NONE', #553, #472, #862 ) ;
#570 = ORIENTED_EDGE ( 'NONE', *, *, #396, .F. ) ;
#571 = CARTESIAN_POINT ( 'NONE',  ( 44.25000000000000711, 1.399999999999993694, 36.24999999999992895 ) ) ;
#572 = EDGE_CURVE ( 'NONE', #750, #380, #757, .T. ) ;
#573 = COORDINATED_UNIVERSAL_TIME_OFFSET ( 8, 0, .AHEAD. ) ;
#574 = ORIENTED_EDGE ( 'NONE', *, *, #241, .F. ) ;
#575 = AXIS2_PLACEMENT_3D ( 'NONE', #364, #962, #181 ) ;
#576 = AXIS2_PLACEMENT_3D ( 'NONE', #463, #696, #21 ) ;
#577 = FACE_OUTER_BOUND ( 'NONE', #518, .T. ) ;
#578 = LINE ( 'NONE', #409, #989 ) ;
#579 = ORIENTED_EDGE ( 'NONE', *, *, #740, .T. ) ;
#580 = EDGE_CURVE ( 'NONE', #1005, #864, #566, .T. ) ;
#581 = DIRECTION ( 'NONE',  ( 0.000000000000000000, 0.000000000000000000, -1.000000000000000000 ) ) ;
#582 = DIRECTION ( 'NONE',  ( -0.000000000000000000, -1.000000000000000000, -0.000000000000000000 ) ) ;
#583 = VERTEX_POINT ( 'NONE', #916 ) ;
#584 = FACE_OUTER_BOUND ( 'NONE', #810, .T. ) ;
#585 = CIRCLE ( 'NONE', #188, 4.000000000000000000 ) ;
#586 = CARTESIAN_POINT ( 'NONE',  ( 36.24999999999995026, 2.000000000000000000, 44.24999999999998579 ) ) ;
#587 = FACE_OUTER_BOUND ( 'NONE', #657, .T. ) ;
#588 = ORIENTED_EDGE ( 'NONE', *, *, #24, .T. ) ;
#589 = ADVANCED_FACE ( 'NONE', ( #734, #1085 ), #310, .F. ) ;
#590 = CARTESIAN_POINT ( 'NONE',  ( 36.25000000000000711, 1.399999999999993916, -36.25000000000000711 ) ) ;
#591 = CARTESIAN_POINT ( 'NONE',  ( -34.99999999999999289, 3.000000000000000000, -35.00000000000000000 ) ) ;
#592 = CARTESIAN_POINT ( 'NONE',  ( 39.00000000000000000, 2.000000000000000000, 34.99999999999999289 ) ) ;
#593 = EDGE_CURVE ( 'NONE', #466, #841, #679, .T. ) ;
#594 = ORIENTED_EDGE ( 'NONE', *, *, #1115, .T. ) ;
#595 = DIRECTION ( 'NONE',  ( 0.000000000000000000, 1.000000000000000000, -0.000000000000000000 ) ) ;
#596 = CARTESIAN_POINT ( 'NONE',  ( 39.00000000000000000, 3.000000000000000000, 34.99999999999999289 ) ) ;
#597 = LINE ( 'NONE', #837, #867 ) ;
#598 = EDGE_LOOP ( 'NONE', ( #1003, #330, #221, #50 ) ) ;
#599 = VERTEX_POINT ( 'NONE', #685 ) ;
#600 = DIRECTION ( 'NONE',  ( 0.000000000000000000, 0.000000000000000000, -1.000000000000000000 ) ) ;
#601 = DIRECTION ( 'NONE',  ( 0.000000000000000000, 0.000000000000000000, -1.000000000000000000 ) ) ;
#602 = LINE ( 'NONE', #778, #904 ) ;
#603 = DIRECTION ( 'NONE',  ( -1.387778780781467566E-15, 0.000000000000000000, -1.000000000000000000 ) ) ;
#604 = VERTEX_POINT ( 'NONE', #157 ) ;
#605 = ORIENTED_EDGE ( 'NONE', *, *, #513, .T. ) ;
#606 = DIRECTION ( 'NONE',  ( -1.000000000000000000, 0.000000000000000000, -0.000000000000000000 ) ) ;
#607 = FACE_OUTER_BOUND ( 'NONE', #224, .T. ) ;
#608 = DIRECTION ( 'NONE',  ( -1.000000000000000000, -0.000000000000000000, -0.000000000000000000 ) ) ;
#609 = DIRECTION ( 'NONE',  ( 0.000000000000000000, -1.000000000000000000, 0.000000000000000000 ) ) ;
#610 = ORIENTED_EDGE ( 'NONE', *, *, #899, .T. ) ;
#611 = ORIENTED_EDGE ( 'NONE', *, *, #272, .F. ) ;
#612 = FACE_OUTER_BOUND ( 'NONE', #211, .T. ) ;
#613 = DIRECTION ( 'NONE',  ( -0.000000000000000000, -1.000000000000000000, -0.000000000000000000 ) ) ;
#614 = AXIS2_PLACEMENT_3D ( 'NONE', #596, #848, #671 ) ;
#615 = CARTESIAN_POINT ( 'NONE',  ( 37.99999999999999289, 2.000000000000000000, -35.00000000000000000 ) ) ;
#616 = CARTESIAN_POINT ( 'NONE',  ( 38.00000000000000711, 2.000000000000000000, 34.99999999999999289 ) ) ;
#617 = EDGE_CURVE ( 'NONE', #1023, #443, #256, .T. ) ;
#618 = COORDINATED_UNIVERSAL_TIME_OFFSET ( 8, 0, .AHEAD. ) ;
#619 = EDGE_CURVE ( 'NONE', #185, #561, #602, .T. ) ;
#620 = ORIENTED_EDGE ( 'NONE', *, *, #454, .F. ) ;
#621 = CARTESIAN_POINT ( 'NONE',  ( 38.99999999999999289, 3.000000000000000000, 34.99999999999999289 ) ) ;
#622 = DIRECTION ( 'NONE',  ( 0.000000000000000000, 0.000000000000000000, -1.000000000000000000 ) ) ;
#623 = LINE ( 'NONE', #692, #900 ) ;
#624 = CARTESIAN_POINT ( 'NONE',  ( -38.00000000000000000, 3.000000000000000000, 34.99999999999999289 ) ) ;
#625 = AXIS2_PLACEMENT_3D ( 'NONE', #590, #1124, #1031 ) ;
#626 = PERSON_AND_ORGANIZATION_ROLE ( 'design_supplier' ) ;
#627 = ORIENTED_EDGE ( 'NONE', *, *, #87, .T. ) ;
#628 = ADVANCED_FACE ( 'NONE', ( #953 ), #1027, .F. ) ;
#629 = CARTESIAN_POINT ( 'NONE',  ( 37.99999999999999289, 3.000000000000000000, -35.00000000000000000 ) ) ;
#630 = DIRECTION ( 'NONE',  ( 0.000000000000000000, -1.000000000000000000, 0.000000000000000000 ) ) ;
#631 = ORIENTED_EDGE ( 'NONE', *, *, #806, .T. ) ;
#632 = CARTESIAN_POINT ( 'NONE',  ( 34.99999999999999289, 2.000000000000000000, 34.99999999999999289 ) ) ;
#633 = EDGE_CURVE ( 'NONE', #185, #750, #428, .T. ) ;
#634 = CARTESIAN_POINT ( 'NONE',  ( -39.00000000000000000, 2.000000000000000000, 34.99999999999999289 ) ) ;
#635 = ORIENTED_EDGE ( 'NONE', *, *, #817, .T. ) ;
#636 = AXIS2_PLACEMENT_3D ( 'NONE', #797, #630, #1068 ) ;
#637 = DIRECTION ( 'NONE',  ( 0.000000000000000000, 0.000000000000000000, 1.000000000000000000 ) ) ;
#638 = ORIENTED_EDGE ( 'NONE', *, *, #470, .T. ) ;
#639 = PERSON_AND_ORGANIZATION ( #803, #890 ) ;
#640 = ORIENTED_EDGE ( 'NONE', *, *, #69, .T. ) ;
#641 = CARTESIAN_POINT ( 'NONE',  ( 34.99999999999999289, 3.000000000000000000, 38.99999999999999289 ) ) ;
#642 = LINE ( 'NONE', #903, #731 ) ;
#643 = EDGE_CURVE ( 'NONE', #547, #807, #855, .T. ) ;
#644 = VERTEX_POINT ( 'NONE', #175 ) ;
#645 = VECTOR ( 'NONE', #902, 1000.000000000000000 ) ;
#646 = DIRECTION ( 'NONE',  ( -1.000000000000000000, 0.000000000000000000, 0.000000000000000000 ) ) ;
#647 = CARTESIAN_POINT ( 'NONE',  ( -35.00000000000000000, 3.000000000000000000, 34.99999999999999289 ) ) ;
#648 = VECTOR ( 'NONE', #151, 1000.000000000000000 ) ;
#649 = ORIENTED_EDGE ( 'NONE', *, *, #204, .F. ) ;
#650 = CARTESIAN_POINT ( 'NONE',  ( -41.24999999999990763, 2.000000000000000000, 36.24999999999998579 ) ) ;
#651 = DIRECTION ( 'NONE',  ( -0.000000000000000000, -1.000000000000000000, -0.000000000000000000 ) ) ;
#652 = ORIENTED_EDGE ( 'NONE', *, *, #210, .T. ) ;
#653 = ADVANCED_FACE ( 'NONE', ( #1127 ), #520, .F. ) ;
#654 = CARTESIAN_POINT ( 'NONE',  ( 34.99999999999999289, 3.000000000000000000, 38.99999999999999289 ) ) ;
#655 = DIRECTION ( 'NONE',  ( 0.000000000000000000, 1.000000000000000000, 0.000000000000000000 ) ) ;
#656 = VECTOR ( 'NONE', #339, 1000.000000000000000 ) ;
#657 = EDGE_LOOP ( 'NONE', ( #312, #167, #556, #640 ) ) ;
#658 = CARTESIAN_POINT ( 'NONE',  ( 34.99999999999999289, 3.000000000000000000, 34.99999999999999289 ) ) ;
#659 = EDGE_LOOP ( 'NONE', ( #843, #971, #570, #567 ) ) ;
#660 = CARTESIAN_POINT ( 'NONE',  ( -44.24999999999998579, 2.000000000000000000, 36.24999999999992895 ) ) ;
#661 = CARTESIAN_POINT ( 'NONE',  ( -36.24999999999992895, 1.399999999999993694, -44.25000000000000711 ) ) ;
#662 = EDGE_CURVE ( 'NONE', #1029, #599, #777, .T. ) ;
#663 = VECTOR ( 'NONE', #38, 1000.000000000000000 ) ;
#664 = ORIENTED_EDGE ( 'NONE', *, *, #55, .F. ) ;
#665 = DIRECTION ( 'NONE',  ( -0.000000000000000000, -1.000000000000000000, -0.000000000000000000 ) ) ;
#666 = VERTEX_POINT ( 'NONE', #868 ) ;
#667 = AXIS2_PLACEMENT_3D ( 'NONE', #673, #942, #1021 ) ;
#668 = CYLINDRICAL_SURFACE ( 'NONE', #321, 8.000000000000000000 ) ;
#669 = DIRECTION ( 'NONE',  ( 0.000000000000000000, 0.000000000000000000, -1.000000000000000000 ) ) ;
#670 = VERTEX_POINT ( 'NONE', #592 ) ;
#671 = DIRECTION ( 'NONE',  ( -9.912705577010325549E-17, 0.000000000000000000, 1.000000000000000000 ) ) ;
#672 = ADVANCED_FACE ( 'NONE', ( #941 ), #352, .F. ) ;
#673 = CARTESIAN_POINT ( 'NONE',  ( 34.99999999999999289, 2.000000000000000000, 34.99999999999999289 ) ) ;
#674 = AXIS2_PLACEMENT_3D ( 'NONE', #237, #858, #262 ) ;
#675 = ORIENTED_EDGE ( 'NONE', *, *, #945, .T. ) ;
#676 = ORIENTED_EDGE ( 'NONE', *, *, #978, .F. ) ;
#677 = LINE ( 'NONE', #950, #394 ) ;
#678 = AXIS2_PLACEMENT_3D ( 'NONE', #179, #600, #606 ) ;
#679 = LINE ( 'NONE', #424, #1109 ) ;
#680 = ADVANCED_FACE ( 'NONE', ( #933 ), #509, .F. ) ;
#681 = DIRECTION ( 'NONE',  ( 0.000000000000000000, 1.000000000000000000, -0.000000000000000000 ) ) ;
#682 = DIRECTION ( 'NONE',  ( 0.000000000000000000, -1.000000000000000000, 0.000000000000000000 ) ) ;
#683 = ORIENTED_EDGE ( 'NONE', *, *, #493, .F. ) ;
#684 = DIRECTION ( 'NONE',  ( -0.1961161351381805751, -0.9805806756909208888, -0.000000000000000000 ) ) ;
#685 = CARTESIAN_POINT ( 'NONE',  ( -36.24999999999992895, 0.000000000000000000, 44.24999999999998579 ) ) ;
#686 = DIRECTION ( 'NONE',  ( -0.000000000000000000, -1.000000000000000000, -0.000000000000000000 ) ) ;
#687 = CC_DESIGN_SECURITY_CLASSIFICATION ( #1134, ( #295 ) ) ;
#688 = ORIENTED_EDGE ( 'NONE', *, *, #63, .F. ) ;
#689 = ORIENTED_EDGE ( 'NONE', *, *, #1019, .T. ) ;
#690 = CARTESIAN_POINT ( 'NONE',  ( 44.25000000000000711, 2.000000000000000000, 36.24999999999992895 ) ) ;
#691 = EDGE_CURVE ( 'NONE', #568, #583, #503, .T. ) ;
#692 = CARTESIAN_POINT ( 'NONE',  ( 41.24999999999992184, 2.000000000000000000, 36.24999999999998579 ) ) ;
#693 = VERTEX_POINT ( 'NONE', #359 ) ;
#694 = ORIENTED_EDGE ( 'NONE', *, *, #811, .F. ) ;
#695 = DIRECTION ( 'NONE',  ( 0.000000000000000000, 0.000000000000000000, 1.000000000000000000 ) ) ;
#696 = DIRECTION ( 'NONE',  ( -0.000000000000000000, -1.000000000000000000, -0.000000000000000000 ) ) ;
#697 = EDGE_CURVE ( 'NONE', #1071, #965, #372, .T. ) ;
#698 = LINE ( 'NONE', #200, #921 ) ;
#699 = CARTESIAN_POINT ( 'NONE',  ( 38.00000000000000711, 3.000000000000000000, 34.99999999999999289 ) ) ;
#700 = ADVANCED_FACE ( 'NONE', ( #1043 ), #158, .T. ) ;
#701 = VECTOR ( 'NONE', #898, 1000.000000000000000 ) ;
#702 = DATE_AND_TIME ( #379, #444 ) ;
#703 = ORIENTED_EDGE ( 'NONE', *, *, #617, .F. ) ;
#704 = CARTESIAN_POINT ( 'NONE',  ( 44.25000000000000711, 2.000000000000000000, 36.24999999999992895 ) ) ;
#705 = DIRECTION ( 'NONE',  ( 0.000000000000000000, 0.000000000000000000, 1.000000000000000000 ) ) ;
#706 = UNCERTAINTY_MEASURE_WITH_UNIT (LENGTH_MEASURE( 1.000000000000000082E-05 ), #214, 'distance_accuracy_value', 'NONE');
#707 = AXIS2_PLACEMENT_3D ( 'NONE', #335, #1135, #163 ) ;
#708 = DIRECTION ( 'NONE',  ( 0.000000000000000000, 0.000000000000000000, -1.000000000000000000 ) ) ;
#709 = EDGE_CURVE ( 'NONE', #185, #666, #64, .T. ) ;
#710 = COORDINATED_UNIVERSAL_TIME_OFFSET ( 8, 0, .AHEAD. ) ;
#711 = VERTEX_POINT ( 'NONE', #264 ) ;
#712 = DIRECTION ( 'NONE',  ( 0.000000000000000000, 0.000000000000000000, -1.000000000000000000 ) ) ;
#713 = CARTESIAN_POINT ( 'NONE',  ( -39.00000000000000000, 3.000000000000000000, 34.99999999999999289 ) ) ;
#714 = VECTOR ( 'NONE', #62, 1000.000000000000000 ) ;
#715 = ADVANCED_FACE ( 'NONE', ( #1114 ), #977, .T. ) ;
#716 = ORIENTED_EDGE ( 'NONE', *, *, #334, .T. ) ;
#717 = CARTESIAN_POINT ( 'NONE',  ( -34.99999999999999289, 2.000000000000000000, -38.00000000000000711 ) ) ;
#718 = CARTESIAN_POINT ( 'NONE',  ( -35.00000000000000000, 3.000000000000000000, 37.99999999999999289 ) ) ;
#719 = PERSON_AND_ORGANIZATION ( #803, #890 ) ;
#720 = CIRCLE ( 'NONE', #471, 8.000000000000000000 ) ;
#721 = ORIENTED_EDGE ( 'NONE', *, *, #937, .T. ) ;
#722 = DIRECTION ( 'NONE',  ( -0.000000000000000000, -1.000000000000000000, -0.000000000000000000 ) ) ;
#723 = PLANE ( 'NONE',  #575 ) ;
#724 = AXIS2_PLACEMENT_3D ( 'NONE', #384, #1075, #1052 ) ;
#725 = ORIENTED_EDGE ( 'NONE', *, *, #218, .T. ) ;
#726 = AXIS2_PLACEMENT_3D ( 'NONE', #784, #254, #601 ) ;
#727 = DIRECTION ( 'NONE',  ( -0.000000000000000000, -1.000000000000000000, -0.000000000000000000 ) ) ;
#728 = DIRECTION ( 'NONE',  ( 0.000000000000000000, 1.000000000000000000, -0.000000000000000000 ) ) ;
#729 = DIRECTION ( 'NONE',  ( 0.000000000000000000, -1.000000000000000000, 0.000000000000000000 ) ) ;
#730 = VERTEX_POINT ( 'NONE', #615 ) ;
#731 = VECTOR ( 'NONE', #68, 1000.000000000000000 ) ;
#732 = CARTESIAN_POINT ( 'NONE',  ( 36.24999999999995026, 2.000000000000000000, -41.24999999999992895 ) ) ;
#733 = EDGE_CURVE ( 'NONE', #894, #1071, #456, .T. ) ;
#734 = FACE_OUTER_BOUND ( 'NONE', #178, .T. ) ;
#735 = EDGE_CURVE ( 'NONE', #551, #871, #296, .T. ) ;
#736 = CALENDAR_DATE ( 2024, 5, 10 ) ;
#737 = EDGE_LOOP ( 'NONE', ( #1018, #260, #86, #20, #252, #764, #620, #832 ) ) ;
#738 = DIRECTION ( 'NONE',  ( -0.000000000000000000, -0.000000000000000000, 1.000000000000000000 ) ) ;
#739 = CARTESIAN_POINT ( 'NONE',  ( -35.00000000000000000, 3.000000000000000000, 37.99999999999999289 ) ) ;
#740 = EDGE_CURVE ( 'NONE', #604, #480, #698, .T. ) ;
#741 = EDGE_LOOP ( 'NONE', ( #1087, #348, #231, #605 ) ) ;
#742 = DIRECTION ( 'NONE',  ( 0.000000000000000000, 0.000000000000000000, 1.000000000000000000 ) ) ;
#743 = LOCAL_TIME ( 14, 54, 35.00000000000000000, #573 ) ;
#744 = DIRECTION ( 'NONE',  ( 0.000000000000000000, 1.000000000000000000, -0.000000000000000000 ) ) ;
#745 = ORIENTED_EDGE ( 'NONE', *, *, #988, .F. ) ;
#746 = ADVANCED_FACE ( 'NONE', ( #974 ), #1057, .F. ) ;
#747 = CARTESIAN_POINT ( 'NONE',  ( 38.00000000000000711, 3.000000000000000000, 34.99999999999999289 ) ) ;
#748 = DIRECTION ( 'NONE',  ( 1.000000000000000000, 0.000000000000000000, 0.000000000000000000 ) ) ;
#749 = AXIS2_PLACEMENT_3D ( 'NONE', #1025, #331, #73 ) ;
#750 = VERTEX_POINT ( 'NONE', #469 ) ;
#751 = CARTESIAN_POINT ( 'NONE',  ( 34.99999999999999289, 2.000000000000000000, -39.00000000000001421 ) ) ;
#752 = ORIENTED_EDGE ( 'NONE', *, *, #508, .F. ) ;
#753 = CARTESIAN_POINT ( 'NONE',  ( -36.24999999999992895, 2.000000000000000000, 41.24999999999990763 ) ) ;
#754 = LINE ( 'NONE', #207, #11 ) ;
#755 = VERTEX_POINT ( 'NONE', #5 ) ;
#756 = CARTESIAN_POINT ( 'NONE',  ( -35.00000000000000000, 2.000000000000000000, -38.00000000000000711 ) ) ;
#757 = CIRCLE ( 'NONE', #1055, 8.000000000000000000 ) ;
#758 = VERTEX_POINT ( 'NONE', #286 ) ;
#759 = DIRECTION ( 'NONE',  ( 0.000000000000000000, -0.9805806756909208888, 0.1961161351381805751 ) ) ;
#760 = CC_DESIGN_APPROVAL ( #1060, ( #295 ) ) ;
#761 = CARTESIAN_POINT ( 'NONE',  ( -36.24999999999992895, 1.399999999999993916, 44.24999999999998579 ) ) ;
#762 = CARTESIAN_POINT ( 'NONE',  ( -36.24999999999998579, 2.000000000000000000, 36.24999999999998579 ) ) ;
#763 = ORIENTED_EDGE ( 'NONE', *, *, #735, .F. ) ;
#764 = ORIENTED_EDGE ( 'NONE', *, *, #1095, .F. ) ;
#765 = VECTOR ( 'NONE', #395, 1000.000000000000114 ) ;
#766 = CC_DESIGN_DATE_AND_TIME_ASSIGNMENT ( #48, #911, ( #1134 ) ) ;
#767 = ORIENTED_EDGE ( 'NONE', *, *, #662, .T. ) ;
#768 = ORIENTED_EDGE ( 'NONE', *, *, #126, .T. ) ;
#769 = FACE_OUTER_BOUND ( 'NONE', #172, .T. ) ;
#770 = AXIS2_PLACEMENT_3D ( 'NONE', #360, #609, #182 ) ;
#771 = DIRECTION ( 'NONE',  ( 6.804145272840781203E-15, 0.1961161351381809637, -0.9805806756909206667 ) ) ;
#772 = CARTESIAN_POINT ( 'NONE',  ( -35.00000000000000000, 3.000000000000000000, 34.99999999999999289 ) ) ;
#773 = ORIENTED_EDGE ( 'NONE', *, *, #280, .F. ) ;
#774 = ADVANCED_FACE ( 'NONE', ( #28 ), #723, .F. ) ;
#775 = ORIENTED_EDGE ( 'NONE', *, *, #334, .F. ) ;
#776 = DIRECTION ( 'NONE',  ( 0.000000000000000000, 0.000000000000000000, -1.000000000000000000 ) ) ;
#777 = CIRCLE ( 'NONE', #120, 8.000000000000000000 ) ;
#778 = CARTESIAN_POINT ( 'NONE',  ( 36.24999999999995026, 1.399999999999993916, 44.24999999999998579 ) ) ;
#779 = CARTESIAN_POINT ( 'NONE',  ( -35.00000000000000000, 3.000000000000000000, -39.00000000000001421 ) ) ;
#780 = ORIENTED_EDGE ( 'NONE', *, *, #255, .F. ) ;
#781 = EDGE_CURVE ( 'NONE', #1130, #43, #84, .T. ) ;
#782 = ORIENTED_EDGE ( 'NONE', *, *, #580, .F. ) ;
#783 = DIRECTION ( 'NONE',  ( 1.000000000000000000, 0.000000000000000000, 0.000000000000000000 ) ) ;
#784 = CARTESIAN_POINT ( 'NONE',  ( 34.99999999999999289, 3.000000000000000000, 34.99999999999999289 ) ) ;
#785 = CLOSED_SHELL ( 'NONE', ( #908, #477, #170, #422, #263, #465, #653, #17, #774, #1034, #340, #700, #715, #302, #101, #429, #844, #49, #589, #483, #349, #375, #628, #861, #928, #952, #746, #870, #154, #823, #194, #140, #133, #672, #413, #680 ) ) ;
#786 = CARTESIAN_POINT ( 'NONE',  ( -35.00000000000000000, 3.000000000000000000, 38.99999999999999289 ) ) ;
#787 = ORIENTED_EDGE ( 'NONE', *, *, #400, .F. ) ;
#788 = LINE ( 'NONE', #1048, #85 ) ;
#789 = EDGE_CURVE ( 'NONE', #392, #907, #33, .T. ) ;
#790 = DIRECTION ( 'NONE',  ( 1.000000000000000000, -0.000000000000000000, 0.000000000000000000 ) ) ;
#791 = DIRECTION ( 'NONE',  ( 0.000000000000000000, 0.000000000000000000, -1.000000000000000000 ) ) ;
#792 = CIRCLE ( 'NONE', #437, 3.000000000000002665 ) ;
#793 = ORIENTED_EDGE ( 'NONE', *, *, #63, .T. ) ;
#794 = DIRECTION ( 'NONE',  ( 0.000000000000000000, 1.000000000000000000, -0.000000000000000000 ) ) ;
#795 = PLANE ( 'NONE',  #1077 ) ;
#796 = VECTOR ( 'NONE', #1099, 1000.000000000000000 ) ;
#797 = CARTESIAN_POINT ( 'NONE',  ( 36.25000000000000711, 2.000000000000000000, 36.24999999999998579 ) ) ;
#798 = EDGE_CURVE ( 'NONE', #78, #886, #323, .T. ) ;
#799 = LINE ( 'NONE', #117, #403 ) ;
#800 = DATE_TIME_ROLE ( 'creation_date' ) ;
#801 = ORIENTED_EDGE ( 'NONE', *, *, #381, .T. ) ;
#802 = PLANE ( 'NONE',  #377 ) ;
#803 = PERSON ( '未指定', '未指定', '未指定', ('未指定'), ('未指定'), ('未指定') ) ;
#804 = AXIS2_PLACEMENT_3D ( 'NONE', #875, #759, #507 ) ;
#805 = PERSON_AND_ORGANIZATION ( #803, #890 ) ;
#806 = EDGE_CURVE ( 'NONE', #135, #644, #597, .T. ) ;
#807 = VERTEX_POINT ( 'NONE', #233 ) ;
#808 = FACE_OUTER_BOUND ( 'NONE', #234, .T. ) ;
#809 = CYLINDRICAL_SURFACE ( 'NONE', #724, 8.000000000000000000 ) ;
#810 = EDGE_LOOP ( 'NONE', ( #459, #588, #53, #497 ) ) ;
#811 = EDGE_CURVE ( 'NONE', #31, #466, #947, .T. ) ;
#812 = CARTESIAN_POINT ( 'NONE',  ( 39.00000000000000711, 3.000000000000000000, -35.00000000000000000 ) ) ;
#813 = LINE ( 'NONE', #485, #430 ) ;
#814 = AXIS2_PLACEMENT_3D ( 'NONE', #316, #729, #581 ) ;
#815 = MECHANICAL_CONTEXT ( 'NONE', #197, 'mechanical' ) ;
#816 = ORIENTED_EDGE ( 'NONE', *, *, #4, .F. ) ;
#817 = EDGE_CURVE ( 'NONE', #523, #392, #425, .T. ) ;
#818 = CIRCLE ( 'NONE', #337, 4.999999999999920952 ) ;
#819 = FACE_OUTER_BOUND ( 'NONE', #542, .T. ) ;
#820 = CARTESIAN_POINT ( 'NONE',  ( -39.00000000000000000, 3.000000000000000000, 34.99999999999999289 ) ) ;
#821 = ORIENTED_EDGE ( 'NONE', *, *, #460, .F. ) ;
#822 = VECTOR ( 'NONE', #420, 1000.000000000000000 ) ;
#823 = ADVANCED_FACE ( 'NONE', ( #587 ), #47, .F. ) ;
#824 = DIRECTION ( 'NONE',  ( 0.000000000000000000, 0.000000000000000000, -1.000000000000000000 ) ) ;
#825 = EDGE_LOOP ( 'NONE', ( #878, #401, #324, #484 ) ) ;
#826 = VECTOR ( 'NONE', #738, 1000.000000000000000 ) ;
#827 = CARTESIAN_POINT ( 'NONE',  ( -39.00000000000000000, 2.000000000000000000, 34.99999999999999289 ) ) ;
#828 = EDGE_CURVE ( 'NONE', #755, #1123, #134, .T. ) ;
#829 = CARTESIAN_POINT ( 'NONE',  ( -34.99999999999999289, 3.000000000000000000, -38.00000000000000711 ) ) ;
#830 = VECTOR ( 'NONE', #96, 1000.000000000000000 ) ;
#831 = DIRECTION ( 'NONE',  ( -0.000000000000000000, -0.000000000000000000, 1.000000000000000000 ) ) ;
#832 = ORIENTED_EDGE ( 'NONE', *, *, #1010, .F. ) ;
#833 = ORIENTED_EDGE ( 'NONE', *, *, #740, .F. ) ;
#834 = LINE ( 'NONE', #145, #289 ) ;
#835 = CIRCLE ( 'NONE', #448, 4.000000000000010658 ) ;
#836 = ORIENTED_EDGE ( 'NONE', *, *, #4, .T. ) ;
#837 = CARTESIAN_POINT ( 'NONE',  ( -41.24999999999990763, 2.000000000000000000, -36.24999999999995026 ) ) ;
#838 = ORIENTED_EDGE ( 'NONE', *, *, #1107, .F. ) ;
#839 = EDGE_LOOP ( 'NONE', ( #476, #889, #1089, #863 ) ) ;
#840 = DIRECTION ( 'NONE',  ( 0.000000000000000000, 0.000000000000000000, 1.000000000000000000 ) ) ;
#841 = VERTEX_POINT ( 'NONE', #239 ) ;
#842 = DIRECTION ( 'NONE',  ( 0.000000000000000000, 0.000000000000000000, -1.000000000000000000 ) ) ;
#843 = ORIENTED_EDGE ( 'NONE', *, *, #246, .T. ) ;
#844 = ADVANCED_FACE ( 'NONE', ( #510 ), #226, .T. ) ;
#845 = DIRECTION ( 'NONE',  ( 1.000000000000000000, 0.000000000000000000, 0.000000000000000000 ) ) ;
#846 = FACE_OUTER_BOUND ( 'NONE', #220, .T. ) ;
#847 = AXIS2_PLACEMENT_3D ( 'NONE', #371, #1058, #90 ) ;
#848 = DIRECTION ( 'NONE',  ( -1.000000000000000000, 0.000000000000000000, -9.912705577010325549E-17 ) ) ;
#849 = DIRECTION ( 'NONE',  ( 0.000000000000000000, 1.000000000000000000, -0.000000000000000000 ) ) ;
#850 = ORIENTED_EDGE ( 'NONE', *, *, #545, .F. ) ;
#851 = CIRCLE ( 'NONE', #386, 3.999999999999996447 ) ;
#852 = ORIENTED_EDGE ( 'NONE', *, *, #633, .F. ) ;
#853 = CARTESIAN_POINT ( 'NONE',  ( 38.00000000000000711, 2.000000000000000000, 34.99999999999999289 ) ) ;
#854 = EDGE_CURVE ( 'NONE', #693, #894, #957, .T. ) ;
#855 = LINE ( 'NONE', #876, #560 ) ;
#856 = CARTESIAN_POINT ( 'NONE',  ( -38.00000000000000000, 3.000000000000000000, 34.99999999999999289 ) ) ;
#857 = FACE_OUTER_BOUND ( 'NONE', #320, .T. ) ;
#858 = DIRECTION ( 'NONE',  ( 0.000000000000000000, 1.000000000000000000, -0.000000000000000000 ) ) ;
#859 = VECTOR ( 'NONE', #186, 1000.000000000000000 ) ;
#860 = DIRECTION ( 'NONE',  ( 0.000000000000000000, 0.000000000000000000, -1.000000000000000000 ) ) ;
#861 = ADVANCED_FACE ( 'NONE', ( #877 ), #1128, .T. ) ;
#862 = DIRECTION ( 'NONE',  ( 0.000000000000000000, 0.000000000000000000, -1.000000000000000000 ) ) ;
#863 = ORIENTED_EDGE ( 'NONE', *, *, #1122, .T. ) ;
#864 = VERTEX_POINT ( 'NONE', #271 ) ;
#865 = DIRECTION ( 'NONE',  ( 0.000000000000000000, -1.000000000000000000, 0.000000000000000000 ) ) ;
#866 = LINE ( 'NONE', #199, #1017 ) ;
#867 = VECTOR ( 'NONE', #65, 1000.000000000000227 ) ;
#868 = CARTESIAN_POINT ( 'NONE',  ( -36.24999999999992895, 1.399999999999993916, 44.24999999999998579 ) ) ;
#869 = DIRECTION ( 'NONE',  ( 0.000000000000000000, 0.000000000000000000, -1.000000000000000000 ) ) ;
#870 = ADVANCED_FACE ( 'NONE', ( #265 ), #521, .F. ) ;
#871 = VERTEX_POINT ( 'NONE', #75 ) ;
#872 = ORIENTED_EDGE ( 'NONE', *, *, #460, .T. ) ;
#873 = CIRCLE ( 'NONE', #814, 8.000000000000000000 ) ;
#874 = CIRCLE ( 'NONE', #475, 3.999999999999996447 ) ;
#875 = CARTESIAN_POINT ( 'NONE',  ( -36.24999999999998579, 2.000000000000000000, -41.24999999999992184 ) ) ;
#876 = CARTESIAN_POINT ( 'NONE',  ( -35.00000000000000000, 3.000000000000000000, -39.00000000000001421 ) ) ;
#877 = FACE_OUTER_BOUND ( 'NONE', #659, .T. ) ;
#878 = ORIENTED_EDGE ( 'NONE', *, *, #87, .F. ) ;
#879 = DIRECTION ( 'NONE',  ( 1.000000000000000000, -0.000000000000000000, 0.000000000000000000 ) ) ;
#880 = DIRECTION ( 'NONE',  ( 0.000000000000000000, 1.000000000000000000, -0.000000000000000000 ) ) ;
#881 = AXIS2_PLACEMENT_3D ( 'NONE', #390, #728, #1080 ) ;
#882 = LINE ( 'NONE', #812, #918 ) ;
#883 = DATE_AND_TIME ( #537, #1037 ) ;
#884 = DIRECTION ( 'NONE',  ( 1.000000000000000000, 0.000000000000000000, 0.000000000000000000 ) ) ;
#885 = EDGE_CURVE ( 'NONE', #439, #755, #623, .T. ) ;
#886 = VERTEX_POINT ( 'NONE', #641 ) ;
#887 = FACE_OUTER_BOUND ( 'NONE', #92, .T. ) ;
#888 = FACE_OUTER_BOUND ( 'NONE', #71, .T. ) ;
#889 = ORIENTED_EDGE ( 'NONE', *, *, #436, .F. ) ;
#890 = ORGANIZATION ( '未指定', '未指定', '' ) ;
#891 = APPROVAL_DATE_TIME ( #298, #76 ) ;
#892 = ORIENTED_EDGE ( 'NONE', *, *, #936, .T. ) ;
#893 = DIRECTION ( 'NONE',  ( -0.000000000000000000, -1.000000000000000000, -0.000000000000000000 ) ) ;
#894 = VERTEX_POINT ( 'NONE', #389 ) ;
#895 = EDGE_CURVE ( 'NONE', #583, #432, #720, .T. ) ;
#896 = AXIS2_PLACEMENT_3D ( 'NONE', #1042, #248, #1036 ) ;
#897 = ORIENTED_EDGE ( 'NONE', *, *, #388, .F. ) ;
#898 = DIRECTION ( 'NONE',  ( -1.982541115402065110E-16, 0.000000000000000000, -1.000000000000000000 ) ) ;
#899 = EDGE_CURVE ( 'NONE', #152, #173, #114, .T. ) ;
#900 = VECTOR ( 'NONE', #791, 1000.000000000000000 ) ;
#901 = ORIENTED_EDGE ( 'NONE', *, *, #885, .F. ) ;
#902 = DIRECTION ( 'NONE',  ( -0.000000000000000000, -1.000000000000000000, -0.000000000000000000 ) ) ;
#903 = CARTESIAN_POINT ( 'NONE',  ( -36.24999999999992895, 0.000000000000000000, -44.25000000000000711 ) ) ;
#904 = VECTOR ( 'NONE', #771, 1000.000000000000227 ) ;
#905 = LINE ( 'NONE', #829, #796 ) ;
#906 = COORDINATED_UNIVERSAL_TIME_OFFSET ( 8, 0, .AHEAD. ) ;
#907 = VERTEX_POINT ( 'NONE', #616 ) ;
#908 = ADVANCED_FACE ( 'NONE', ( #969, #279 ), #189, .F. ) ;
#909 = LINE ( 'NONE', #229, #645 ) ;
#910 = DIRECTION ( 'NONE',  ( 0.000000000000000000, -1.000000000000000000, 0.000000000000000000 ) ) ;
#911 = DATE_TIME_ROLE ( 'classification_date' ) ;
#912 = ORIENTED_EDGE ( 'NONE', *, *, #436, .T. ) ;
#913 = AXIS2_PLACEMENT_3D ( 'NONE', #283, #776, #532 ) ;
#914 = CARTESIAN_POINT ( 'NONE',  ( -44.24999999999998579, 1.399999999999993916, 36.24999999999992895 ) ) ;
#915 = EDGE_CURVE ( 'NONE', #1, #118, #882, .T. ) ;
#916 = CARTESIAN_POINT ( 'NONE',  ( 44.25000000000000711, 0.000000000000000000, -36.24999999999995026 ) ) ;
#917 = ORIENTED_EDGE ( 'NONE', *, *, #1010, .T. ) ;
#918 = VECTOR ( 'NONE', #727, 1000.000000000000000 ) ;
#919 = CARTESIAN_POINT ( 'NONE',  ( 39.00000000000000711, 3.000000000000000000, -35.00000000000000000 ) ) ;
#920 = ORIENTED_EDGE ( 'NONE', *, *, #119, .T. ) ;
#921 = VECTOR ( 'NONE', #270, 1000.000000000000000 ) ;
#922 = VERTEX_POINT ( 'NONE', #1079 ) ;
#923 = PLANE ( 'NONE',  #482 ) ;
#924 = CARTESIAN_POINT ( 'NONE',  ( -44.24999999999998579, 1.399999999999993916, 36.24999999999992895 ) ) ;
#925 = EDGE_LOOP ( 'NONE', ( #725, #897, #431, #752 ) ) ;
#926 = CARTESIAN_POINT ( 'NONE',  ( 35.00000000000000000, 3.000000000000000000, -38.00000000000000711 ) ) ;
#927 = CARTESIAN_POINT ( 'NONE',  ( 36.25000000000000711, 2.000000000000000000, -36.25000000000000711 ) ) ;
#928 = ADVANCED_FACE ( 'NONE', ( #300 ), #435, .F. ) ;
#929 = VERTEX_POINT ( 'NONE', #164 ) ;
#930 = CIRCLE ( 'NONE', #896, 3.000000000000002665 ) ;
#931 = DIRECTION ( 'NONE',  ( -0.000000000000000000, -1.000000000000000000, -0.000000000000000000 ) ) ;
#932 = DIRECTION ( 'NONE',  ( 0.000000000000000000, 1.000000000000000000, -0.000000000000000000 ) ) ;
#933 = FACE_OUTER_BOUND ( 'NONE', #287, .T. ) ;
#934 = DIRECTION ( 'NONE',  ( 0.000000000000000000, -1.000000000000000000, 0.000000000000000000 ) ) ;
#935 = ORIENTED_EDGE ( 'NONE', *, *, #593, .T. ) ;
#936 = EDGE_CURVE ( 'NONE', #173, #730, #959, .T. ) ;
#937 = EDGE_CURVE ( 'NONE', #78, #965, #515, .T. ) ;
#938 = CARTESIAN_POINT ( 'NONE',  ( -36.24999999999998579, 2.000000000000000000, -36.25000000000000711 ) ) ;
#939 = LINE ( 'NONE', #433, #656 ) ;
#940 = CIRCLE ( 'NONE', #383, 4.999999999999920952 ) ;
#941 = FACE_OUTER_BOUND ( 'NONE', #1009, .T. ) ;
#942 = DIRECTION ( 'NONE',  ( 0.000000000000000000, 1.000000000000000000, 0.000000000000000000 ) ) ;
#943 = AXIS2_PLACEMENT_3D ( 'NONE', #1032, #238, #82 ) ;
#944 = DIRECTION ( 'NONE',  ( 0.000000000000000000, 0.000000000000000000, -1.000000000000000000 ) ) ;
#945 = EDGE_CURVE ( 'NONE', #864, #37, #940, .T. ) ;
#946 = DIRECTION ( 'NONE',  ( -0.000000000000000000, -1.000000000000000000, -0.000000000000000000 ) ) ;
#947 = LINE ( 'NONE', #856, #1125 ) ;
#948 = ORIENTED_EDGE ( 'NONE', *, *, #697, .T. ) ;
#949 = CARTESIAN_POINT ( 'NONE',  ( 38.00000000000000711, 3.000000000000000000, 34.99999999999999289 ) ) ;
#950 = CARTESIAN_POINT ( 'NONE',  ( -36.24999999999992895, 1.399999999999993694, -44.25000000000000711 ) ) ;
#951 = VECTOR ( 'NONE', #559, 1000.000000000000000 ) ;
#952 = ADVANCED_FACE ( 'NONE', ( #176 ), #529, .T. ) ;
#953 = FACE_OUTER_BOUND ( 'NONE', #56, .T. ) ;
#954 = DIRECTION ( 'NONE',  ( -0.000000000000000000, -1.000000000000000000, -0.000000000000000000 ) ) ;
#955 = EDGE_LOOP ( 'NONE', ( #146, #1078, #139, #108 ) ) ;
#956 = ORIENTED_EDGE ( 'NONE', *, *, #501, .T. ) ;
#957 = CIRCLE ( 'NONE', #116, 4.000000000000003553 ) ;
#958 = DIRECTION ( 'NONE',  ( 0.000000000000000000, -0.000000000000000000, -1.000000000000000000 ) ) ;
#959 = LINE ( 'NONE', #257, #1102 ) ;
#960 = VERTEX_POINT ( 'NONE', #83 ) ;
#961 = AXIS2_PLACEMENT_3D ( 'NONE', #232, #744, #824 ) ;
#962 = DIRECTION ( 'NONE',  ( 1.000000000000000000, -0.000000000000000000, 0.000000000000000000 ) ) ;
#963 = DIRECTION ( 'NONE',  ( 1.000000000000000000, 0.000000000000000000, -0.000000000000000000 ) ) ;
#964 = EDGE_CURVE ( 'NONE', #7, #135, #418, .T. ) ;
#965 = VERTEX_POINT ( 'NONE', #450 ) ;
#966 = CYLINDRICAL_SURFACE ( 'NONE', #219, 3.000000000000002665 ) ;
#967 = LINE ( 'NONE', #467, #1013 ) ;
#968 = VECTOR ( 'NONE', #931, 1000.000000000000000 ) ;
#969 = FACE_OUTER_BOUND ( 'NONE', #243, .T. ) ;
#970 = PERSON_AND_ORGANIZATION ( #803, #890 ) ;
#971 = ORIENTED_EDGE ( 'NONE', *, *, #1030, .F. ) ;
#972 = FACE_OUTER_BOUND ( 'NONE', #202, .T. ) ;
#973 = LINE ( 'NONE', #269, #235 ) ;
#974 = FACE_OUTER_BOUND ( 'NONE', #245, .T. ) ;
#975 = VECTOR ( 'NONE', #222, 1000.000000000000000 ) ;
#976 = DIRECTION ( 'NONE',  ( 0.000000000000000000, 1.000000000000000000, 0.000000000000000000 ) ) ;
#977 = CONICAL_SURFACE ( 'NONE', #636, 4.999999999999920952, 1.373400766945019003 ) ;
#978 = EDGE_CURVE ( 'NONE', #551, #523, #6, .T. ) ;
#979 = DIRECTION ( 'NONE',  ( 0.000000000000000000, 0.000000000000000000, -1.000000000000000000 ) ) ;
#980 = DIRECTION ( 'NONE',  ( -0.000000000000000000, -1.000000000000000000, -0.000000000000000000 ) ) ;
#981 = PERSON_AND_ORGANIZATION_ROLE ( 'creator' ) ;
#982 = ORIENTED_EDGE ( 'NONE', *, *, #895, .F. ) ;
#983 = EDGE_CURVE ( 'NONE', #523, #152, #195, .T. ) ;
#984 = PERSON_AND_ORGANIZATION_ROLE ( 'creator' ) ;
#985 = ORIENTED_EDGE ( 'NONE', *, *, #937, .F. ) ;
#986 = CARTESIAN_POINT ( 'NONE',  ( 35.00000000000000000, 2.000000000000000000, -38.00000000000000711 ) ) ;
#987 = DIRECTION ( 'NONE',  ( 0.000000000000000000, 1.000000000000000000, 0.000000000000000000 ) ) ;
#988 = EDGE_CURVE ( 'NONE', #711, #960, #314, .T. ) ;
#989 = VECTOR ( 'NONE', #748, 1000.000000000000000 ) ;
#990 = MANIFOLD_SOLID_BREP ( '凸台-拉伸2', #785 ) ;
#991 = ORIENTED_EDGE ( 'NONE', *, *, #619, .T. ) ;
#992 = LINE ( 'NONE', #1097, #504 ) ;
#993 = AXIS2_PLACEMENT_3D ( 'NONE', #1020, #70, #860 ) ;
#994 = DIRECTION ( 'NONE',  ( 0.000000000000000000, -0.000000000000000000, -1.000000000000000000 ) ) ;
#995 = EDGE_LOOP ( 'NONE', ( #267, #611, #452, #935 ) ) ;
#996 = EDGE_CURVE ( 'NONE', #568, #929, #326, .T. ) ;
#997 = DIRECTION ( 'NONE',  ( -1.000000000000000000, -0.000000000000000000, -0.000000000000000000 ) ) ;
#998 = CARTESIAN_POINT ( 'NONE',  ( 36.24999999999997158, 2.000000000000000000, 41.24999999999990763 ) ) ;
#999 = ORIENTED_EDGE ( 'NONE', *, *, #508, .T. ) ;
#1000 = CIRCLE ( 'NONE', #881, 4.000000000000010658 ) ;
#1001 = VERTEX_POINT ( 'NONE', #661 ) ;
#1002 = CARTESIAN_POINT ( 'NONE',  ( -36.24999999999992895, 1.399999999999993916, 44.24999999999998579 ) ) ;
#1003 = ORIENTED_EDGE ( 'NONE', *, *, #454, .T. ) ;
#1004 = CARTESIAN_POINT ( 'NONE',  ( -36.24999999999998579, 2.000000000000000000, 41.24999999999990763 ) ) ;
#1005 = VERTEX_POINT ( 'NONE', #914 ) ;
#1006 = VECTOR ( 'NONE', #686, 1000.000000000000000 ) ;
#1007 = LINE ( 'NONE', #228, #822 ) ;
#1008 = CARTESIAN_POINT ( 'NONE',  ( 44.25000000000000711, 1.399999999999993694, 36.24999999999992895 ) ) ;
#1009 = EDGE_LOOP ( 'NONE', ( #505, #850, #236, #1054 ) ) ;
#1010 = EDGE_CURVE ( 'NONE', #965, #758, #578, .T. ) ;
#1011 = DIRECTION ( 'NONE',  ( 0.000000000000000000, 1.000000000000000000, 0.000000000000000000 ) ) ;
#1012 = AXIS2_PLACEMENT_3D ( 'NONE', #533, #880, #1110 ) ;
#1013 = VECTOR ( 'NONE', #1056, 1000.000000000000000 ) ;
#1014 = ORIENTED_EDGE ( 'NONE', *, *, #691, .F. ) ;
#1015 = LINE ( 'NONE', #747, #240 ) ;
#1016 = DIRECTION ( 'NONE',  ( 0.000000000000000000, 0.000000000000000000, -1.000000000000000000 ) ) ;
#1017 = VECTOR ( 'NONE', #884, 1000.000000000000000 ) ;
#1018 = ORIENTED_EDGE ( 'NONE', *, *, #697, .F. ) ;
#1019 = EDGE_CURVE ( 'NONE', #1123, #7, #992, .T. ) ;
#1020 = CARTESIAN_POINT ( 'NONE',  ( -35.00000000000000000, 2.000000000000000000, 34.99999999999999289 ) ) ;
#1021 = DIRECTION ( 'NONE',  ( 0.000000000000000000, 0.000000000000000000, 1.000000000000000000 ) ) ;
#1022 = PRODUCT_RELATED_PRODUCT_CATEGORY ( 'detail', '', ( #1040 ) ) ;
#1023 = VERTEX_POINT ( 'NONE', #986 ) ;
#1024 = AXIS2_PLACEMENT_3D ( 'NONE', #350, #684, #162 ) ;
#1025 = CARTESIAN_POINT ( 'NONE',  ( -41.24999999999990763, 2.000000000000000000, 36.24999999999998579 ) ) ;
#1026 = DIRECTION ( 'NONE',  ( -1.000000000000000000, 0.000000000000000000, -0.000000000000000000 ) ) ;
#1027 = PLANE ( 'NONE',  #614 ) ;
#1028 = DIRECTION ( 'NONE',  ( 0.000000000000000000, 0.000000000000000000, -1.000000000000000000 ) ) ;
#1029 = VERTEX_POINT ( 'NONE', #137 ) ;
#1030 = EDGE_CURVE ( 'NONE', #547, #517, #754, .T. ) ;
#1031 = DIRECTION ( 'NONE',  ( 0.000000000000000000, 0.000000000000000000, -1.000000000000000000 ) ) ;
#1032 = CARTESIAN_POINT ( 'NONE',  ( 36.25000000000000711, 2.000000000000000000, -36.25000000000000711 ) ) ;
#1033 = ORIENTED_EDGE ( 'NONE', *, *, #978, .T. ) ;
#1034 = ADVANCED_FACE ( 'NONE', ( #819 ), #399, .T. ) ;
#1035 = CARTESIAN_POINT ( 'NONE',  ( -36.24999999999998579, 1.399999999999993916, 36.24999999999998579 ) ) ;
#1036 = DIRECTION ( 'NONE',  ( 0.000000000000000000, 0.000000000000000000, -1.000000000000000000 ) ) ;
#1037 = LOCAL_TIME ( 14, 54, 35.00000000000000000, #618 ) ;
#1038 = CARTESIAN_POINT ( 'NONE',  ( -34.99999999999999289, 3.000000000000000000, -35.00000000000000000 ) ) ;
#1039 = ORIENTED_EDGE ( 'NONE', *, *, #964, .T. ) ;
#1040 = PRODUCT ( 'ALPA_STANDARD_BOARD_blank', 'ALPA_STANDARD_BOARD_blank', '', ( #815 ) ) ;
#1041 = ORIENTED_EDGE ( 'NONE', *, *, #1105, .F. ) ;
#1042 = CARTESIAN_POINT ( 'NONE',  ( 34.99999999999999289, 3.000000000000000000, -35.00000000000000000 ) ) ;
#1043 = FACE_OUTER_BOUND ( 'NONE', #955, .T. ) ;
#1044 = CARTESIAN_POINT ( 'NONE',  ( 36.25000000000000711, 0.000000000000000000, -36.25000000000000711 ) ) ;
#1045 = ORIENTED_EDGE ( 'NONE', *, *, #1030, .T. ) ;
#1046 = ORIENTED_EDGE ( 'NONE', *, *, #633, .T. ) ;
#1047 = DIRECTION ( 'NONE',  ( 1.000000000000000000, 0.000000000000000000, -0.000000000000000000 ) ) ;
#1048 = CARTESIAN_POINT ( 'NONE',  ( -39.00000000000000711, 3.000000000000000000, -35.00000000000000000 ) ) ;
#1049 = AXIS2_PLACEMENT_3D ( 'NONE', #772, #171, #708 ) ;
#1050 = EDGE_CURVE ( 'NONE', #644, #43, #909, .T. ) ;
#1051 = DIRECTION ( 'NONE',  ( 0.000000000000000000, 1.000000000000000000, -0.000000000000000000 ) ) ;
#1052 = DIRECTION ( 'NONE',  ( 0.000000000000000000, 0.000000000000000000, -1.000000000000000000 ) ) ;
#1053 = DIRECTION ( 'NONE',  ( 1.000000000000000000, 0.000000000000000000, 0.000000000000000000 ) ) ;
#1054 = ORIENTED_EDGE ( 'NONE', *, *, #272, .T. ) ;
#1055 = AXIS2_PLACEMENT_3D ( 'NONE', #304, #987, #479 ) ;
#1056 = DIRECTION ( 'NONE',  ( -0.000000000000000000, -1.000000000000000000, -0.000000000000000000 ) ) ;
#1057 = PLANE ( 'NONE',  #440 ) ;
#1058 = DIRECTION ( 'NONE',  ( 0.000000000000000000, 1.000000000000000000, -0.000000000000000000 ) ) ;
#1059 = APPROVAL_PERSON_ORGANIZATION ( #124, #32, #1086 ) ;
#1060 = APPROVAL ( #107, '未指定' ) ;
#1061 = EDGE_LOOP ( 'NONE', ( #821, #768, #627, #767 ) ) ;
#1062 = DIRECTION ( 'NONE',  ( 0.000000000000000000, -0.9805806756909207778, -0.1961161351381809914 ) ) ;
#1063 = DIRECTION ( 'NONE',  ( 1.387778780781467566E-15, 0.000000000000000000, -1.000000000000000000 ) ) ;
#1064 = AXIS2_PLACEMENT_3D ( 'NONE', #690, #1133, #358 ) ;
#1065 = FACE_OUTER_BOUND ( 'NONE', #275, .T. ) ;
#1066 = ORIENTED_EDGE ( 'NONE', *, *, #580, .T. ) ;
#1067 = FACE_OUTER_BOUND ( 'NONE', #58, .T. ) ;
#1068 = DIRECTION ( 'NONE',  ( 0.000000000000000000, 0.000000000000000000, -1.000000000000000000 ) ) ;
#1069 = VECTOR ( 'NONE', #405, 1000.000000000000000 ) ;
#1070 = DIRECTION ( 'NONE',  ( 0.000000000000000000, 0.000000000000000000, -1.000000000000000000 ) ) ;
#1071 = VERTEX_POINT ( 'NONE', #827 ) ;
#1072 = EDGE_CURVE ( 'NONE', #1005, #644, #57, .T. ) ;
#1073 = VECTOR ( 'NONE', #322, 1000.000000000000000 ) ;
#1074 = AXIS2_PLACEMENT_3D ( 'NONE', #453, #100, #94 ) ;
#1075 = DIRECTION ( 'NONE',  ( -0.000000000000000000, -1.000000000000000000, -0.000000000000000000 ) ) ;
#1076 = AXIS2_PLACEMENT_3D ( 'NONE', #184, #637, #1053 ) ;
#1077 = AXIS2_PLACEMENT_3D ( 'NONE', #374, #879, #193 ) ;
#1078 = ORIENTED_EDGE ( 'NONE', *, *, #10, .F. ) ;
#1079 = CARTESIAN_POINT ( 'NONE',  ( 38.99999999999999289, 3.000000000000000000, 34.99999999999999289 ) ) ;
#1080 = DIRECTION ( 'NONE',  ( 0.000000000000000000, 0.000000000000000000, -1.000000000000000000 ) ) ;
#1081 = AXIS2_PLACEMENT_3D ( 'NONE', #591, #932, #89 ) ;
#1082 = ORIENTED_EDGE ( 'NONE', *, *, #899, .F. ) ;
#1083 = DIRECTION ( 'NONE',  ( 0.000000000000000000, 1.000000000000000000, -0.000000000000000000 ) ) ;
#1084 = EDGE_CURVE ( 'NONE', #43, #1029, #496, .T. ) ;
#1085 = FACE_BOUND ( 'NONE', #336, .T. ) ;
#1086 = APPROVAL_ROLE ( '' ) ;
#1087 = ORIENTED_EDGE ( 'NONE', *, *, #530, .F. ) ;
#1088 = DIRECTION ( 'NONE',  ( -0.000000000000000000, -1.000000000000000000, -0.000000000000000000 ) ) ;
#1089 = ORIENTED_EDGE ( 'NONE', *, *, #355, .F. ) ;
#1090 = DIRECTION ( 'NONE',  ( 0.000000000000000000, 0.000000000000000000, -1.000000000000000000 ) ) ;
#1091 = ORIENTED_EDGE ( 'NONE', *, *, #91, .T. ) ;
#1092 = LINE ( 'NONE', #1004, #351 ) ;
#1093 = ORIENTED_EDGE ( 'NONE', *, *, #388, .T. ) ;
#1094 = AXIS2_PLACEMENT_3D ( 'NONE', #67, #681, #1119 ) ;
#1095 = EDGE_CURVE ( 'NONE', #670, #118, #834, .T. ) ;
#1096 = CARTESIAN_POINT ( 'NONE',  ( -35.00000000000000000, 3.000000000000000000, 38.99999999999999289 ) ) ;
#1097 = CARTESIAN_POINT ( 'NONE',  ( -36.24999999999998579, 2.000000000000000000, -41.24999999999992184 ) ) ;
#1098 = ORIENTED_EDGE ( 'NONE', *, *, #1084, .F. ) ;
#1099 = DIRECTION ( 'NONE',  ( -0.000000000000000000, -1.000000000000000000, -0.000000000000000000 ) ) ;
#1100 = DATE_AND_TIME ( #142, #743 ) ;
#1101 = EDGE_LOOP ( 'NONE', ( #956, #376, #206, #1045 ) ) ;
#1102 = VECTOR ( 'NONE', #353, 1000.000000000000000 ) ;
#1103 = CARTESIAN_POINT ( 'NONE',  ( -44.24999999999998579, 0.000000000000000000, -36.24999999999995026 ) ) ;
#1104 = LINE ( 'NONE', #1002, #309 ) ;
#1105 = EDGE_CURVE ( 'NONE', #135, #864, #402, .T. ) ;
#1106 = ORIENTED_EDGE ( 'NONE', *, *, #550, .T. ) ;
#1107 = EDGE_CURVE ( 'NONE', #841, #871, #792, .T. ) ;
#1108 = DIRECTION ( 'NONE',  ( 0.000000000000000000, 0.000000000000000000, -1.000000000000000000 ) ) ;
#1109 = VECTOR ( 'NONE', #946, 1000.000000000000000 ) ;
#1110 = DIRECTION ( 'NONE',  ( 0.000000000000000000, 0.000000000000000000, -1.000000000000000000 ) ) ;
#1111 = ORIENTED_EDGE ( 'NONE', *, *, #945, .F. ) ;
#1112 = ORIENTED_EDGE ( 'NONE', *, *, #593, .F. ) ;
#1113 =( GEOMETRIC_REPRESENTATION_CONTEXT ( 3 ) GLOBAL_UNCERTAINTY_ASSIGNED_CONTEXT ( ( #706 ) ) GLOBAL_UNIT_ASSIGNED_CONTEXT ( ( #214, #52, #481 ) ) REPRESENTATION_CONTEXT ( 'NONE', 'WORKASPACE' ) );
#1114 = FACE_OUTER_BOUND ( 'NONE', #925, .T. ) ;
#1115 = EDGE_CURVE ( 'NONE', #666, #37, #1104, .T. ) ;
#1116 = CARTESIAN_POINT ( 'NONE',  ( -34.99999999999999289, 2.000000000000000000, -35.00000000000000000 ) ) ;
#1117 = ORIENTED_EDGE ( 'NONE', *, *, #177, .F. ) ;
#1118 = CIRCLE ( 'NONE', #625, 8.000000000000000000 ) ;
#1119 = DIRECTION ( 'NONE',  ( 0.000000000000000000, 0.000000000000000000, -1.000000000000000000 ) ) ;
#1120 = CARTESIAN_POINT ( 'NONE',  ( -35.00000000000000000, 3.000000000000000000, 34.99999999999999289 ) ) ;
#1121 = ADVANCED_BREP_SHAPE_REPRESENTATION ( 'ALPA_STANDARD_BOARD_blank', ( #990, #1076 ), #1113 ) ;
#1122 = EDGE_CURVE ( 'NONE', #807, #693, #319, .T. ) ;
#1123 = VERTEX_POINT ( 'NONE', #732 ) ;
#1124 = DIRECTION ( 'NONE',  ( 0.000000000000000000, -1.000000000000000000, 0.000000000000000000 ) ) ;
#1125 = VECTOR ( 'NONE', #831, 1000.000000000000000 ) ;
#1126 = CYLINDRICAL_SURFACE ( 'NONE', #726, 4.000000000000000000 ) ;
#1127 = FACE_OUTER_BOUND ( 'NONE', #305, .T. ) ;
#1128 = CYLINDRICAL_SURFACE ( 'NONE', #569, 4.000000000000010658 ) ;
#1129 = VECTOR ( 'NONE', #651, 1000.000000000000000 ) ;
#1130 = VERTEX_POINT ( 'NONE', #306 ) ;
#1131 = ORIENTED_EDGE ( 'NONE', *, *, #513, .F. ) ;
#1132 = DIRECTION ( 'NONE',  ( -1.000000000000000000, 0.000000000000000000, 1.982541115402065110E-16 ) ) ;
#1133 = DIRECTION ( 'NONE',  ( -1.000000000000000000, 0.000000000000000000, 0.000000000000000000 ) ) ;
#1134 = SECURITY_CLASSIFICATION ( '', '', #292 ) ;
#1135 = DIRECTION ( 'NONE',  ( -0.000000000000000000, -1.000000000000000000, -0.000000000000000000 ) ) ;
#1136 = CARTESIAN_POINT ( 'NONE',  ( -36.24999999999998579, 2.000000000000000000, 36.24999999999998579 ) ) ;
#1137 = ORIENTED_EDGE ( 'NONE', *, *, #538, .F. ) ;
ENDSEC;
END-ISO-10303-21;
