ISO-10303-21;
HEADER;
FILE_DESCRIPTION (( 'STEP AP203' ),
    '1' );
FILE_NAME ('graflex_preanni4x5_lensboard_blank.STEP',
    '2026-09-16T05:17:36',
    ( '' ),
    ( '' ),
    'SwSTEP 2.0',
    'SolidWorks 2023',
    '' );
FILE_SCHEMA (( 'CONFIG_CONTROL_DESIGN' ));
ENDSEC;

DATA;
#1 = APPROVAL_STATUS ( 'not_yet_approved' ) ;
#2 = ADVANCED_FACE ( 'NONE', ( #53 ), #46, .F. ) ;
#3 = VECTOR ( 'NONE', #50, 1000.000000000000000 ) ;
#4 = CARTESIAN_POINT ( 'NONE',  ( 50.99999999999997868, 3.500000000000000000, -50.24999999999999289 ) ) ;
#5 = CARTESIAN_POINT ( 'NONE',  ( -43.99999999999997868, -3.000000000000000000, -43.64999999999999858 ) ) ;
#6 = APPROVAL_STATUS ( 'not_yet_approved' ) ;
#7 = CC_DESIGN_PERSON_AND_ORGANIZATION_ASSIGNMENT ( #362, #76, ( #149 ) ) ;
#8 = ORIENTED_EDGE ( 'NONE', *, *, #366, .T. ) ;
#9 = ORIENTED_EDGE ( 'NONE', *, *, #146, .T. ) ;
#10 = PLANE ( 'NONE',  #371 ) ;
#11 = APPROVAL_DATE_TIME ( #20, #93 ) ;
#12 = LINE ( 'NONE', #398, #317 ) ;
#13 = AXIS2_PLACEMENT_3D ( 'NONE', #152, #336, #116 ) ;
#14 = DIRECTION ( 'NONE',  ( -0.000000000000000000, 0.000000000000000000, -1.000000000000000000 ) ) ;
#15 = ORIENTED_EDGE ( 'NONE', *, *, #26, .T. ) ;
#16 = ORIENTED_EDGE ( 'NONE', *, *, #342, .F. ) ;
#17 = CALENDAR_DATE ( 2026, 16, 9 ) ;
#18 = CARTESIAN_POINT ( 'NONE',  ( 43.99999999999997868, 0.000000000000000000, 43.65000000000001279 ) ) ;
#19 = DIRECTION ( 'NONE',  ( -1.000000000000000000, 0.000000000000000000, 0.000000000000000000 ) ) ;
#20 = DATE_AND_TIME ( #144, #66 ) ;
#21 = LOCAL_TIME ( 13, 17, 36.00000000000000000, #327 ) ;
#22 = FACE_OUTER_BOUND ( 'NONE', #288, .T. ) ;
#23 = VECTOR ( 'NONE', #297, 1000.000000000000000 ) ;
#24 = VECTOR ( 'NONE', #301, 1000.000000000000000 ) ;
#25 = DIRECTION ( 'NONE',  ( -0.000000000000000000, 0.000000000000000000, 1.000000000000000000 ) ) ;
#26 = EDGE_CURVE ( 'NONE', #263, #187, #98, .T. ) ;
#27 = EDGE_CURVE ( 'NONE', #52, #68, #253, .T. ) ;
#28 = DIRECTION ( 'NONE',  ( 0.000000000000000000, -0.000000000000000000, 1.000000000000000000 ) ) ;
#29 = APPROVAL_ROLE ( '' ) ;
#30 = PLANE ( 'NONE',  #340 ) ;
#31 = ORIENTED_EDGE ( 'NONE', *, *, #124, .F. ) ;
#32 = EDGE_LOOP ( 'NONE', ( #311, #249, #174, #360 ) ) ;
#33 = ORGANIZATION ( 'æœª', 'æœª', '' ) ;
#34 = EDGE_CURVE ( 'NONE', #68, #325, #225, .T. ) ;
#35 = APPLICATION_CONTEXT ( 'configuration controlled 3d designs of mechanical parts and assemblies' ) ;
#36 = CARTESIAN_POINT ( 'NONE',  ( -43.99999999999997868, -3.000000000000000000, -43.64999999999999858 ) ) ;
#37 = EDGE_CURVE ( 'NONE', #325, #391, #194, .T. ) ;
#38 = DIRECTION ( 'NONE',  ( 1.000000000000000000, -0.000000000000000000, 0.000000000000000000 ) ) ;
#39 = VECTOR ( 'NONE', #378, 1000.000000000000000 ) ;
#40 = LOCAL_TIME ( 13, 17, 36.00000000000000000, #171 ) ;
#41 = CARTESIAN_POINT ( 'NONE',  ( -51.00000000000001421, 3.500000000000000000, -50.24999999999999289 ) ) ;
#42 = ORIENTED_EDGE ( 'NONE', *, *, #274, .F. ) ;
#43 = LINE ( 'NONE', #5, #216 ) ;
#44 = DATE_AND_TIME ( #355, #312 ) ;
#45 = PLANE ( 'NONE',  #91 ) ;
#46 = PLANE ( 'NONE',  #245 ) ;
#47 = VERTEX_POINT ( 'NONE', #163 ) ;
#48 = ORIENTED_EDGE ( 'NONE', *, *, #278, .T. ) ;
#49 = PERSON_AND_ORGANIZATION_ROLE ( 'classification_officer' ) ;
#50 = DIRECTION ( 'NONE',  ( -1.000000000000000000, -0.000000000000000000, -0.000000000000000000 ) ) ;
#51 = CARTESIAN_POINT ( 'NONE',  ( 50.99999999999997868, 0.000000000000000000, 47.24999999999997868 ) ) ;
#52 = VERTEX_POINT ( 'NONE', #36 ) ;
#53 = FACE_OUTER_BOUND ( 'NONE', #294, .T. ) ;
#54 = DIRECTION ( 'NONE',  ( -1.000000000000000000, 0.000000000000000000, 0.000000000000000000 ) ) ;
#55 = EDGE_CURVE ( 'NONE', #384, #221, #234, .T. ) ;
#56 = PLANE ( 'NONE',  #304 ) ;
#57 = APPROVAL ( #6, 'æœª' ) ;
#58 = CARTESIAN_POINT ( 'NONE',  ( 0.000000000000000000, -3.000000000000000000, 0.000000000000000000 ) ) ;
#59 = CC_DESIGN_DATE_AND_TIME_ASSIGNMENT ( #223, #185, ( #273 ) ) ;
#60 = VECTOR ( 'NONE', #354, 1000.000000000000000 ) ;
#61 = CARTESIAN_POINT ( 'NONE',  ( 43.99999999999997868, -3.000000000000000000, -43.64999999999999858 ) ) ;
#62 = ORIENTED_EDGE ( 'NONE', *, *, #26, .F. ) ;
#63 = EDGE_LOOP ( 'NONE', ( #334, #65, #200, #383 ) ) ;
#64 = EDGE_CURVE ( 'NONE', #281, #47, #364, .T. ) ;
#65 = ORIENTED_EDGE ( 'NONE', *, *, #55, .F. ) ;
#66 = LOCAL_TIME ( 13, 17, 36.00000000000000000, #290 ) ;
#67 = CARTESIAN_POINT ( 'NONE',  ( 50.99999999999997868, 3.500000000000000000, 50.25000000000000711 ) ) ;
#68 = VERTEX_POINT ( 'NONE', #358 ) ;
#69 = CARTESIAN_POINT ( 'NONE',  ( -43.99999999999997868, 0.000000000000000000, 43.65000000000001279 ) ) ;
#70 = DIRECTION ( 'NONE',  ( 0.000000000000000000, 0.000000000000000000, 1.000000000000000000 ) ) ;
#71 = VECTOR ( 'NONE', #254, 1000.000000000000000 ) ;
#72 = CARTESIAN_POINT ( 'NONE',  ( -43.99999999999997868, 0.000000000000000000, -43.64999999999999858 ) ) ;
#73 = CARTESIAN_POINT ( 'NONE',  ( 43.99999999999997868, -3.000000000000000000, -43.64999999999999858 ) ) ;
#74 = EDGE_LOOP ( 'NONE', ( #96, #396, #62, #226 ) ) ;
#75 = DIRECTION ( 'NONE',  ( -0.000000000000000000, -0.000000000000000000, -1.000000000000000000 ) ) ;
#76 = PERSON_AND_ORGANIZATION_ROLE ( 'design_supplier' ) ;
#77 = DIRECTION ( 'NONE',  ( -1.000000000000000000, 0.000000000000000000, 0.000000000000000000 ) ) ;
#78 = FACE_OUTER_BOUND ( 'NONE', #410, .T. ) ;
#79 = EDGE_LOOP ( 'NONE', ( #196, #251, #352, #169 ) ) ;
#80 = PERSON_AND_ORGANIZATION ( #126, #33 ) ;
#81 = LINE ( 'NONE', #261, #213 ) ;
#82 = ORIENTED_EDGE ( 'NONE', *, *, #190, .T. ) ;
#83 = ADVANCED_FACE ( 'NONE', ( #78 ), #199, .F. ) ;
#84 = CARTESIAN_POINT ( 'NONE',  ( -51.00000000000001421, 1.600000000000018074, 50.25000000000000711 ) ) ;
#85 = PRODUCT ( 'graflex_preanni4x5_lensboard_blank', 'graflex_preanni4x5_lensboard_blank', '', ( #236 ) ) ;
#86 = DIRECTION ( 'NONE',  ( 0.000000000000000000, 0.4705882352941180846, 0.8823529411764703401 ) ) ;
#87 = PRODUCT_DEFINITION ( 'æœ', '', #149, #209 ) ;
#88 = AXIS2_PLACEMENT_3D ( 'NONE', #372, #25, #271 ) ;
#89 =( GEOMETRIC_REPRESENTATION_CONTEXT ( 3 ) GLOBAL_UNCERTAINTY_ASSIGNED_CONTEXT ( ( #348 ) ) GLOBAL_UNIT_ASSIGNED_CONTEXT ( ( #175, #264, #97 ) ) REPRESENTATION_CONTEXT ( 'NONE', 'WORKASPACE' ) );
#90 = VECTOR ( 'NONE', #168, 1000.000000000000000 ) ;
#91 = AXIS2_PLACEMENT_3D ( 'NONE', #228, #260, #328 ) ;
#92 = LINE ( 'NONE', #61, #125 ) ;
#93 = APPROVAL ( #401, 'æœª' ) ;
#94 = CARTESIAN_POINT ( 'NONE',  ( -51.00000000000001421, 3.500000000000000000, -50.24999999999999289 ) ) ;
#95 = ORIENTED_EDGE ( 'NONE', *, *, #408, .F. ) ;
#96 = ORIENTED_EDGE ( 'NONE', *, *, #408, .T. ) ;
#97 =( NAMED_UNIT ( * ) SI_UNIT ( $, .STERADIAN. ) SOLID_ANGLE_UNIT ( ) );
#98 = LINE ( 'NONE', #134, #182 ) ;
#99 = VERTEX_POINT ( 'NONE', #314 ) ;
#100 = CARTESIAN_POINT ( 'NONE',  ( 50.99999999999997868, 1.600000000000018074, 50.25000000000000711 ) ) ;
#101 = LINE ( 'NONE', #106, #3 ) ;
#102 = EDGE_LOOP ( 'NONE', ( #367, #279, #370, #9 ) ) ;
#103 = ORIENTED_EDGE ( 'NONE', *, *, #34, .F. ) ;
#104 = CARTESIAN_POINT ( 'NONE',  ( 43.99999999999997868, -3.000000000000000000, 43.65000000000001279 ) ) ;
#105 = APPROVAL_ROLE ( '' ) ;
#106 = CARTESIAN_POINT ( 'NONE',  ( -43.99999999999997868, -3.000000000000000000, 43.65000000000001279 ) ) ;
#107 = LINE ( 'NONE', #173, #388 ) ;
#108 = ORIENTED_EDGE ( 'NONE', *, *, #64, .F. ) ;
#109 = CARTESIAN_POINT ( 'NONE',  ( 0.000000000000000000, 0.000000000000000000, 0.000000000000000000 ) ) ;
#110 = CARTESIAN_POINT ( 'NONE',  ( -51.00000000000001421, 3.500000000000000000, 50.25000000000000711 ) ) ;
#111 = CARTESIAN_POINT ( 'NONE',  ( -43.99999999999997868, -3.000000000000000000, -43.64999999999999858 ) ) ;
#112 = EDGE_CURVE ( 'NONE', #391, #221, #237, .T. ) ;
#113 = EDGE_LOOP ( 'NONE', ( #170, #48, #82, #258 ) ) ;
#114 = PERSON_AND_ORGANIZATION ( #126, #33 ) ;
#115 = CLOSED_SHELL ( 'NONE', ( #2, #375, #195, #269, #300, #377, #154, #306, #83, #167, #332, #184 ) ) ;
#116 = DIRECTION ( 'NONE',  ( 0.000000000000000000, 0.000000000000000000, 1.000000000000000000 ) ) ;
#117 = VECTOR ( 'NONE', #246, 1000.000000000000000 ) ;
#118 = EDGE_CURVE ( 'NONE', #353, #263, #390, .T. ) ;
#119 = DIRECTION ( 'NONE',  ( -0.000000000000000000, -1.000000000000000000, -0.000000000000000000 ) ) ;
#120 = EDGE_CURVE ( 'NONE', #263, #157, #81, .T. ) ;
#121 = VECTOR ( 'NONE', #141, 1000.000000000000000 ) ;
#122 = EDGE_CURVE ( 'NONE', #187, #129, #107, .T. ) ;
#123 = PLANE ( 'NONE',  #357 ) ;
#124 = EDGE_CURVE ( 'NONE', #384, #52, #329, .T. ) ;
#125 = VECTOR ( 'NONE', #166, 1000.000000000000000 ) ;
#126 = PERSON ( 'æœª', 'æœª', 'æœª', ('æœª'), ('æœª'), ('æœª') ) ;
#127 = CARTESIAN_POINT ( 'NONE',  ( -43.99999999999997868, -3.000000000000000000, 43.65000000000001279 ) ) ;
#128 = APPROVAL_DATE_TIME ( #284, #130 ) ;
#129 = VERTEX_POINT ( 'NONE', #51 ) ;
#130 = APPROVAL ( #1, 'æœª' ) ;
#131 = ORIENTED_EDGE ( 'NONE', *, *, #387, .T. ) ;
#132 = SHAPE_DEFINITION_REPRESENTATION ( #338, #218 ) ;
#133 = AXIS2_PLACEMENT_3D ( 'NONE', #303, #38, #385 ) ;
#134 = CARTESIAN_POINT ( 'NONE',  ( 50.99999999999997868, 3.500000000000000000, 50.25000000000000711 ) ) ;
#135 = CARTESIAN_POINT ( 'NONE',  ( 50.99999999999997868, 0.000000000000000000, 50.25000000000000711 ) ) ;
#136 = CARTESIAN_POINT ( 'NONE',  ( 43.99999999999997868, 0.000000000000000000, -43.64999999999999858 ) ) ;
#137 = ORIENTED_EDGE ( 'NONE', *, *, #222, .T. ) ;
#138 = DIRECTION ( 'NONE',  ( 0.000000000000000000, 0.000000000000000000, -1.000000000000000000 ) ) ;
#139 = DATE_TIME_ROLE ( 'creation_date' ) ;
#140 = PLANE ( 'NONE',  #272 ) ;
#141 = DIRECTION ( 'NONE',  ( -0.000000000000000000, 1.000000000000000000, -0.000000000000000000 ) ) ;
#142 = EDGE_LOOP ( 'NONE', ( #298, #103, #158, #380 ) ) ;
#143 = ORIENTED_EDGE ( 'NONE', *, *, #55, .T. ) ;
#144 = CALENDAR_DATE ( 2026, 16, 9 ) ;
#145 = LINE ( 'NONE', #110, #247 ) ;
#146 = EDGE_CURVE ( 'NONE', #157, #281, #285, .T. ) ;
#147 = CARTESIAN_POINT ( 'NONE',  ( -43.99999999999997868, 0.000000000000000000, 43.65000000000001279 ) ) ;
#148 = ORIENTED_EDGE ( 'NONE', *, *, #387, .F. ) ;
#149 = PRODUCT_DEFINITION_FORMATION_WITH_SPECIFIED_SOURCE ( 'ä»', '', #85, .NOT_KNOWN. ) ;
#150 = AXIS2_PLACEMENT_3D ( 'NONE', #111, #204, #14 ) ;
#151 = LINE ( 'NONE', #179, #24 ) ;
#152 = CARTESIAN_POINT ( 'NONE',  ( 43.99999999999997868, -3.000000000000000000, -43.64999999999999858 ) ) ;
#153 = DIRECTION ( 'NONE',  ( 0.000000000000000000, 0.000000000000000000, -1.000000000000000000 ) ) ;
#154 = ADVANCED_FACE ( 'NONE', ( #242 ), #402, .F. ) ;
#155 = CC_DESIGN_PERSON_AND_ORGANIZATION_ASSIGNMENT ( #382, #316, ( #85 ) ) ;
#156 = CARTESIAN_POINT ( 'NONE',  ( -43.99999999999997868, 0.000000000000000000, -43.64999999999999858 ) ) ;
#157 = VERTEX_POINT ( 'NONE', #373 ) ;
#158 = ORIENTED_EDGE ( 'NONE', *, *, #27, .F. ) ;
#159 = DIRECTION ( 'NONE',  ( 1.000000000000000000, 0.000000000000000000, 0.000000000000000000 ) ) ;
#160 = VECTOR ( 'NONE', #307, 1000.000000000000000 ) ;
#161 = CC_DESIGN_APPROVAL ( #130, ( #273 ) ) ;
#162 = LINE ( 'NONE', #41, #39 ) ;
#163 = CARTESIAN_POINT ( 'NONE',  ( -51.00000000000001421, 0.000000000000000000, -50.24999999999999289 ) ) ;
#164 = ORIENTED_EDGE ( 'NONE', *, *, #27, .T. ) ;
#165 = CARTESIAN_POINT ( 'NONE',  ( -43.99999999999997868, 0.000000000000000000, -43.64999999999999858 ) ) ;
#166 = DIRECTION ( 'NONE',  ( 0.000000000000000000, 0.000000000000000000, 1.000000000000000000 ) ) ;
#167 = ADVANCED_FACE ( 'NONE', ( #406 ), #240, .F. ) ;
#168 = DIRECTION ( 'NONE',  ( -0.000000000000000000, 1.000000000000000000, -0.000000000000000000 ) ) ;
#169 = ORIENTED_EDGE ( 'NONE', *, *, #112, .F. ) ;
#170 = ORIENTED_EDGE ( 'NONE', *, *, #120, .T. ) ;
#171 = COORDINATED_UNIVERSAL_TIME_OFFSET ( 8, 0, .AHEAD. ) ;
#172 = DIRECTION ( 'NONE',  ( -0.000000000000000000, -0.000000000000000000, 1.000000000000000000 ) ) ;
#173 = CARTESIAN_POINT ( 'NONE',  ( 50.99999999999997868, 1.600000000000018074, 50.25000000000000711 ) ) ;
#174 = ORIENTED_EDGE ( 'NONE', *, *, #122, .F. ) ;
#175 =( LENGTH_UNIT ( ) NAMED_UNIT ( * ) SI_UNIT ( .MILLI., .METRE. ) );
#176 = APPLICATION_CONTEXT ( 'configuration controlled 3d designs of mechanical parts and assemblies' ) ;
#177 = CARTESIAN_POINT ( 'NONE',  ( -43.99999999999997868, -3.000000000000000000, 43.65000000000001279 ) ) ;
#178 = CARTESIAN_POINT ( 'NONE',  ( 50.99999999999997868, 1.600000000000018074, 50.25000000000000711 ) ) ;
#179 = CARTESIAN_POINT ( 'NONE',  ( -51.00000000000001421, 3.500000000000000000, 50.25000000000000711 ) ) ;
#180 = DIRECTION ( 'NONE',  ( 0.000000000000000000, 1.000000000000000000, 0.000000000000000000 ) ) ;
#181 = EDGE_CURVE ( 'NONE', #324, #267, #275, .T. ) ;
#182 = VECTOR ( 'NONE', #323, 1000.000000000000000 ) ;
#183 = VECTOR ( 'NONE', #77, 1000.000000000000000 ) ;
#184 = ADVANCED_FACE ( 'NONE', ( #212 ), #56, .T. ) ;
#185 = DATE_TIME_ROLE ( 'classification_date' ) ;
#186 = DIRECTION ( 'NONE',  ( 0.000000000000000000, -1.000000000000000000, 0.000000000000000000 ) ) ;
#187 = VERTEX_POINT ( 'NONE', #178 ) ;
#188 = EDGE_LOOP ( 'NONE', ( #347, #8, #381, #164 ) ) ;
#189 = APPROVAL_PERSON_ORGANIZATION ( #239, #93, #105 ) ;
#190 = EDGE_CURVE ( 'NONE', #99, #353, #151, .T. ) ;
#191 = PERSON_AND_ORGANIZATION ( #126, #33 ) ;
#192 = CARTESIAN_POINT ( 'NONE',  ( -51.00000000000001421, 0.000000000000000000, -50.24999999999999289 ) ) ;
#193 = PERSON_AND_ORGANIZATION_ROLE ( 'creator' ) ;
#194 = LINE ( 'NONE', #136, #270 ) ;
#195 = ADVANCED_FACE ( 'NONE', ( #22 ), #405, .F. ) ;
#196 = ORIENTED_EDGE ( 'NONE', *, *, #37, .F. ) ;
#197 = CARTESIAN_POINT ( 'NONE',  ( 50.99999999999997868, 3.500000000000000000, 50.25000000000000711 ) ) ;
#198 = FACE_BOUND ( 'NONE', #79, .T. ) ;
#199 = PLANE ( 'NONE',  #150 ) ;
#200 = ORIENTED_EDGE ( 'NONE', *, *, #366, .F. ) ;
#201 = CARTESIAN_POINT ( 'NONE',  ( -51.00000000000001421, 3.500000000000000000, 50.25000000000000711 ) ) ;
#202 = PERSON_AND_ORGANIZATION ( #126, #33 ) ;
#203 = DIRECTION ( 'NONE',  ( 1.000000000000000000, 0.000000000000000000, -0.000000000000000000 ) ) ;
#204 = DIRECTION ( 'NONE',  ( 1.000000000000000000, 0.000000000000000000, -0.000000000000000000 ) ) ;
#205 = PRODUCT_RELATED_PRODUCT_CATEGORY ( 'detail', '', ( #85 ) ) ;
#206 = ORIENTED_EDGE ( 'NONE', *, *, #37, .T. ) ;
#207 = PERSON_AND_ORGANIZATION_ROLE ( 'creator' ) ;
#208 = CARTESIAN_POINT ( 'NONE',  ( -43.99999999999997868, -3.000000000000000000, -43.64999999999999858 ) ) ;
#209 = DESIGN_CONTEXT ( 'detailed design', #35, 'design' ) ;
#210 = ORIENTED_EDGE ( 'NONE', *, *, #280, .T. ) ;
#211 = CARTESIAN_POINT ( 'NONE',  ( -51.00000000000001421, 1.600000000000018074, 50.25000000000000711 ) ) ;
#212 = FACE_OUTER_BOUND ( 'NONE', #32, .T. ) ;
#213 = VECTOR ( 'NONE', #395, 1000.000000000000000 ) ;
#214 = EDGE_CURVE ( 'NONE', #52, #346, #43, .T. ) ;
#215 = CC_DESIGN_APPROVAL ( #93, ( #149 ) ) ;
#216 = VECTOR ( 'NONE', #227, 1000.000000000000000 ) ;
#217 = FACE_OUTER_BOUND ( 'NONE', #63, .T. ) ;
#218 = ADVANCED_BREP_SHAPE_REPRESENTATION ( 'graflex_preanni4x5_lensboard_blank', ( #365, #376 ), #89 ) ;
#219 = DIRECTION ( 'NONE',  ( 0.000000000000000000, -0.000000000000000000, -1.000000000000000000 ) ) ;
#220 = ORIENTED_EDGE ( 'NONE', *, *, #243, .F. ) ;
#221 = VERTEX_POINT ( 'NONE', #69 ) ;
#222 = EDGE_CURVE ( 'NONE', #221, #346, #392, .T. ) ;
#223 = DATE_AND_TIME ( #17, #40 ) ;
#224 = CC_DESIGN_PERSON_AND_ORGANIZATION_ASSIGNMENT ( #80, #207, ( #149 ) ) ;
#225 = LINE ( 'NONE', #73, #121 ) ;
#226 = ORIENTED_EDGE ( 'NONE', *, *, #118, .F. ) ;
#227 = DIRECTION ( 'NONE',  ( -0.000000000000000000, 1.000000000000000000, -0.000000000000000000 ) ) ;
#228 = CARTESIAN_POINT ( 'NONE',  ( 0.000000000000000000, 0.000000000000000000, 0.000000000000000000 ) ) ;
#229 = DIRECTION ( 'NONE',  ( 0.000000000000000000, 0.000000000000000000, 1.000000000000000000 ) ) ;
#230 = VERTEX_POINT ( 'NONE', #289 ) ;
#231 = LINE ( 'NONE', #100, #60 ) ;
#232 = APPLICATION_PROTOCOL_DEFINITION ( 'international standard', 'config_control_design', 1994, #176 ) ;
#233 = CARTESIAN_POINT ( 'NONE',  ( -51.00000000000001421, 0.000000000000000000, 47.24999999999997868 ) ) ;
#234 = LINE ( 'NONE', #177, #90 ) ;
#235 = ORIENTED_EDGE ( 'NONE', *, *, #120, .F. ) ;
#236 = MECHANICAL_CONTEXT ( 'NONE', #176, 'mechanical' ) ;
#237 = LINE ( 'NONE', #147, #351 ) ;
#238 = ORIENTED_EDGE ( 'NONE', *, *, #146, .F. ) ;
#239 = PERSON_AND_ORGANIZATION ( #126, #33 ) ;
#240 = PLANE ( 'NONE',  #88 ) ;
#241 = VECTOR ( 'NONE', #75, 1000.000000000000000 ) ;
#242 = FACE_OUTER_BOUND ( 'NONE', #397, .T. ) ;
#243 = EDGE_CURVE ( 'NONE', #129, #281, #286, .T. ) ;
#244 = CC_DESIGN_APPROVAL ( #57, ( #87 ) ) ;
#245 = AXIS2_PLACEMENT_3D ( 'NONE', #67, #19, #229 ) ;
#246 = DIRECTION ( 'NONE',  ( 1.000000000000000000, 0.000000000000000000, 0.000000000000000000 ) ) ;
#247 = VECTOR ( 'NONE', #299, 1000.000000000000000 ) ;
#248 = LINE ( 'NONE', #94, #160 ) ;
#249 = ORIENTED_EDGE ( 'NONE', *, *, #359, .F. ) ;
#250 = EDGE_CURVE ( 'NONE', #267, #187, #231, .T. ) ;
#251 = ORIENTED_EDGE ( 'NONE', *, *, #339, .F. ) ;
#252 = DIRECTION ( 'NONE',  ( 1.000000000000000000, 0.000000000000000000, 0.000000000000000000 ) ) ;
#253 = LINE ( 'NONE', #287, #23 ) ;
#254 = DIRECTION ( 'NONE',  ( 0.000000000000000000, 0.000000000000000000, -1.000000000000000000 ) ) ;
#255 = PERSON_AND_ORGANIZATION ( #126, #33 ) ;
#256 = DIRECTION ( 'NONE',  ( -1.000000000000000000, -0.000000000000000000, -0.000000000000000000 ) ) ;
#257 = VECTOR ( 'NONE', #119, 1000.000000000000000 ) ;
#258 = ORIENTED_EDGE ( 'NONE', *, *, #118, .T. ) ;
#259 = DIRECTION ( 'NONE',  ( -1.000000000000000000, 0.000000000000000000, -0.000000000000000000 ) ) ;
#260 = DIRECTION ( 'NONE',  ( 0.000000000000000000, -1.000000000000000000, 0.000000000000000000 ) ) ;
#261 = CARTESIAN_POINT ( 'NONE',  ( 50.99999999999997868, 3.500000000000000000, 50.25000000000000711 ) ) ;
#262 = ORIENTED_EDGE ( 'NONE', *, *, #243, .T. ) ;
#263 = VERTEX_POINT ( 'NONE', #197 ) ;
#264 =( NAMED_UNIT ( * ) PLANE_ANGLE_UNIT ( ) SI_UNIT ( $, .RADIAN. ) );
#265 = FACE_OUTER_BOUND ( 'NONE', #102, .T. ) ;
#266 = DIRECTION ( 'NONE',  ( 0.000000000000000000, -0.4705882352941180846, -0.8823529411764703401 ) ) ;
#267 = VERTEX_POINT ( 'NONE', #361 ) ;
#268 = APPROVAL_PERSON_ORGANIZATION ( #255, #57, #368 ) ;
#269 = ADVANCED_FACE ( 'NONE', ( #320 ), #10, .F. ) ;
#270 = VECTOR ( 'NONE', #318, 1000.000000000000000 ) ;
#271 = DIRECTION ( 'NONE',  ( 1.000000000000000000, 0.000000000000000000, 0.000000000000000000 ) ) ;
#272 = AXIS2_PLACEMENT_3D ( 'NONE', #296, #363, #203 ) ;
#273 = SECURITY_CLASSIFICATION ( '', '', #295 ) ;
#274 = EDGE_CURVE ( 'NONE', #230, #391, #326, .T. ) ;
#275 = LINE ( 'NONE', #84, #308 ) ;
#276 = CARTESIAN_POINT ( 'NONE',  ( -51.00000000000001421, 0.000000000000000000, 47.24999999999997868 ) ) ;
#277 = CARTESIAN_POINT ( 'NONE',  ( 0.000000000000000000, 3.500000000000000000, 0.000000000000000000 ) ) ;
#278 = EDGE_CURVE ( 'NONE', #157, #99, #162, .T. ) ;
#279 = ORIENTED_EDGE ( 'NONE', *, *, #280, .F. ) ;
#280 = EDGE_CURVE ( 'NONE', #99, #47, #248, .T. ) ;
#281 = VERTEX_POINT ( 'NONE', #305 ) ;
#282 = AXIS2_PLACEMENT_3D ( 'NONE', #58, #180, #28 ) ;
#283 = LOCAL_TIME ( 13, 17, 36.00000000000000000, #309 ) ;
#284 = DATE_AND_TIME ( #350, #283 ) ;
#285 = LINE ( 'NONE', #4, #257 ) ;
#286 = LINE ( 'NONE', #135, #71 ) ;
#287 = CARTESIAN_POINT ( 'NONE',  ( -43.99999999999997868, -3.000000000000000000, -43.64999999999999858 ) ) ;
#288 = EDGE_LOOP ( 'NONE', ( #131, #411, #95, #399, #210 ) ) ;
#289 = CARTESIAN_POINT ( 'NONE',  ( 43.99999999999997868, -3.000000000000000000, 43.65000000000001279 ) ) ;
#290 = COORDINATED_UNIVERSAL_TIME_OFFSET ( 8, 0, .AHEAD. ) ;
#291 = CARTESIAN_POINT ( 'NONE',  ( -43.99999999999997868, -3.000000000000000000, 43.65000000000001279 ) ) ;
#292 = DIRECTION ( 'NONE',  ( -1.000000000000000000, -0.000000000000000000, -0.000000000000000000 ) ) ;
#293 = ORIENTED_EDGE ( 'NONE', *, *, #214, .F. ) ;
#294 = EDGE_LOOP ( 'NONE', ( #15, #319, #262, #238, #235 ) ) ;
#295 = SECURITY_CLASSIFICATION_LEVEL ( 'unclassified' ) ;
#296 = CARTESIAN_POINT ( 'NONE',  ( -51.00000000000001421, 3.500000000000000000, -50.24999999999999289 ) ) ;
#297 = DIRECTION ( 'NONE',  ( 1.000000000000000000, 0.000000000000000000, 0.000000000000000000 ) ) ;
#298 = ORIENTED_EDGE ( 'NONE', *, *, #339, .T. ) ;
#299 = DIRECTION ( 'NONE',  ( -0.000000000000000000, -1.000000000000000000, -0.000000000000000000 ) ) ;
#300 = ADVANCED_FACE ( 'NONE', ( #409 ), #30, .F. ) ;
#301 = DIRECTION ( 'NONE',  ( -0.000000000000000000, -0.000000000000000000, 1.000000000000000000 ) ) ;
#302 = CC_DESIGN_DATE_AND_TIME_ASSIGNMENT ( #44, #139, ( #87 ) ) ;
#303 = CARTESIAN_POINT ( 'NONE',  ( -51.00000000000001421, 3.500000000000000000, 50.25000000000000711 ) ) ;
#304 = AXIS2_PLACEMENT_3D ( 'NONE', #211, #335, #54 ) ;
#305 = CARTESIAN_POINT ( 'NONE',  ( 50.99999999999997868, 0.000000000000000000, -50.24999999999999289 ) ) ;
#306 = ADVANCED_FACE ( 'NONE', ( #217 ), #123, .F. ) ;
#307 = DIRECTION ( 'NONE',  ( -0.000000000000000000, -1.000000000000000000, -0.000000000000000000 ) ) ;
#308 = VECTOR ( 'NONE', #86, 1000.000000000000000 ) ;
#309 = COORDINATED_UNIVERSAL_TIME_OFFSET ( 8, 0, .AHEAD. ) ;
#310 = EDGE_LOOP ( 'NONE', ( #220, #400, #148, #108 ) ) ;
#311 = ORIENTED_EDGE ( 'NONE', *, *, #181, .F. ) ;
#312 = LOCAL_TIME ( 13, 17, 36.00000000000000000, #349 ) ;
#313 = VECTOR ( 'NONE', #292, 1000.000000000000000 ) ;
#314 = CARTESIAN_POINT ( 'NONE',  ( -51.00000000000001421, 3.500000000000000000, -50.24999999999999289 ) ) ;
#315 = DIRECTION ( 'NONE',  ( -0.000000000000000000, 1.000000000000000000, -0.000000000000000000 ) ) ;
#316 = PERSON_AND_ORGANIZATION_ROLE ( 'design_owner' ) ;
#317 = VECTOR ( 'NONE', #172, 1000.000000000000000 ) ;
#318 = DIRECTION ( 'NONE',  ( 0.000000000000000000, 0.000000000000000000, 1.000000000000000000 ) ) ;
#319 = ORIENTED_EDGE ( 'NONE', *, *, #122, .T. ) ;
#320 = FACE_OUTER_BOUND ( 'NONE', #74, .T. ) ;
#321 = APPLICATION_PROTOCOL_DEFINITION ( 'international standard', 'config_control_design', 1994, #35 ) ;
#322 = LINE ( 'NONE', #233, #183 ) ;
#323 = DIRECTION ( 'NONE',  ( -0.000000000000000000, -1.000000000000000000, -0.000000000000000000 ) ) ;
#324 = VERTEX_POINT ( 'NONE', #276 ) ;
#325 = VERTEX_POINT ( 'NONE', #343 ) ;
#326 = LINE ( 'NONE', #104, #403 ) ;
#327 = COORDINATED_UNIVERSAL_TIME_OFFSET ( 8, 0, .AHEAD. ) ;
#328 = DIRECTION ( 'NONE',  ( 0.000000000000000000, -0.000000000000000000, -1.000000000000000000 ) ) ;
#329 = LINE ( 'NONE', #208, #374 ) ;
#330 = ORIENTED_EDGE ( 'NONE', *, *, #34, .T. ) ;
#331 = DATE_AND_TIME ( #386, #21 ) ;
#332 = ADVANCED_FACE ( 'NONE', ( #344 ), #337, .F. ) ;
#333 = DIRECTION ( 'NONE',  ( -0.000000000000000000, -0.000000000000000000, -1.000000000000000000 ) ) ;
#334 = ORIENTED_EDGE ( 'NONE', *, *, #112, .T. ) ;
#335 = DIRECTION ( 'NONE',  ( 0.000000000000000000, -0.8823529411764703401, 0.4705882352941180846 ) ) ;
#336 = DIRECTION ( 'NONE',  ( -1.000000000000000000, 0.000000000000000000, 0.000000000000000000 ) ) ;
#337 = PLANE ( 'NONE',  #282 ) ;
#338 = PRODUCT_DEFINITION_SHAPE ( 'NONE', 'NONE',  #87 ) ;
#339 = EDGE_CURVE ( 'NONE', #346, #325, #407, .T. ) ;
#340 = AXIS2_PLACEMENT_3D ( 'NONE', #277, #186, #219 ) ;
#341 = APPROVAL_PERSON_ORGANIZATION ( #191, #130, #29 ) ;
#342 = EDGE_CURVE ( 'NONE', #68, #230, #92, .T. ) ;
#343 = CARTESIAN_POINT ( 'NONE',  ( 43.99999999999997868, 0.000000000000000000, -43.64999999999999858 ) ) ;
#344 = FACE_OUTER_BOUND ( 'NONE', #188, .T. ) ;
#345 = CC_DESIGN_PERSON_AND_ORGANIZATION_ASSIGNMENT ( #202, #49, ( #273 ) ) ;
#346 = VERTEX_POINT ( 'NONE', #72 ) ;
#347 = ORIENTED_EDGE ( 'NONE', *, *, #342, .T. ) ;
#348 = UNCERTAINTY_MEASURE_WITH_UNIT (LENGTH_MEASURE( 1.000000000000000082E-05 ), #175, 'distance_accuracy_value', 'NONE');
#349 = COORDINATED_UNIVERSAL_TIME_OFFSET ( 8, 0, .AHEAD. ) ;
#350 = CALENDAR_DATE ( 2026, 16, 9 ) ;
#351 = VECTOR ( 'NONE', #256, 1000.000000000000000 ) ;
#352 = ORIENTED_EDGE ( 'NONE', *, *, #222, .F. ) ;
#353 = VERTEX_POINT ( 'NONE', #394 ) ;
#354 = DIRECTION ( 'NONE',  ( 1.000000000000000000, 0.000000000000000000, 0.000000000000000000 ) ) ;
#355 = CALENDAR_DATE ( 2026, 16, 9 ) ;
#356 = FACE_OUTER_BOUND ( 'NONE', #310, .T. ) ;
#357 = AXIS2_PLACEMENT_3D ( 'NONE', #127, #153, #379 ) ;
#358 = CARTESIAN_POINT ( 'NONE',  ( 43.99999999999997868, -3.000000000000000000, -43.64999999999999858 ) ) ;
#359 = EDGE_CURVE ( 'NONE', #129, #324, #322, .T. ) ;
#360 = ORIENTED_EDGE ( 'NONE', *, *, #250, .F. ) ;
#361 = CARTESIAN_POINT ( 'NONE',  ( -51.00000000000001421, 1.600000000000018074, 50.25000000000000711 ) ) ;
#362 = PERSON_AND_ORGANIZATION ( #126, #33 ) ;
#363 = DIRECTION ( 'NONE',  ( 0.000000000000000000, 0.000000000000000000, 1.000000000000000000 ) ) ;
#364 = LINE ( 'NONE', #192, #313 ) ;
#365 = MANIFOLD_SOLID_BREP ( 'µ¹½Ç1', #115 ) ;
#366 = EDGE_CURVE ( 'NONE', #230, #384, #101, .T. ) ;
#367 = ORIENTED_EDGE ( 'NONE', *, *, #64, .T. ) ;
#368 = APPROVAL_ROLE ( '' ) ;
#369 = CARTESIAN_POINT ( 'NONE',  ( -51.00000000000001421, 3.500000000000000000, 50.25000000000000711 ) ) ;
#370 = ORIENTED_EDGE ( 'NONE', *, *, #278, .F. ) ;
#371 = AXIS2_PLACEMENT_3D ( 'NONE', #201, #138, #259 ) ;
#372 = CARTESIAN_POINT ( 'NONE',  ( -43.99999999999997868, -3.000000000000000000, -43.64999999999999858 ) ) ;
#373 = CARTESIAN_POINT ( 'NONE',  ( 50.99999999999997868, 3.500000000000000000, -50.24999999999999289 ) ) ;
#374 = VECTOR ( 'NONE', #333, 1000.000000000000000 ) ;
#375 = ADVANCED_FACE ( 'NONE', ( #265 ), #140, .F. ) ;
#376 = AXIS2_PLACEMENT_3D ( 'NONE', #109, #70, #252 ) ;
#377 = ADVANCED_FACE ( 'NONE', ( #198, #356 ), #45, .T. ) ;
#378 = DIRECTION ( 'NONE',  ( -1.000000000000000000, -0.000000000000000000, -0.000000000000000000 ) ) ;
#379 = DIRECTION ( 'NONE',  ( -1.000000000000000000, 0.000000000000000000, -0.000000000000000000 ) ) ;
#380 = ORIENTED_EDGE ( 'NONE', *, *, #214, .T. ) ;
#381 = ORIENTED_EDGE ( 'NONE', *, *, #124, .T. ) ;
#382 = PERSON_AND_ORGANIZATION ( #126, #33 ) ;
#383 = ORIENTED_EDGE ( 'NONE', *, *, #274, .T. ) ;
#384 = VERTEX_POINT ( 'NONE', #291 ) ;
#385 = DIRECTION ( 'NONE',  ( 0.000000000000000000, 0.000000000000000000, -1.000000000000000000 ) ) ;
#386 = CALENDAR_DATE ( 2026, 16, 9 ) ;
#387 = EDGE_CURVE ( 'NONE', #47, #324, #12, .T. ) ;
#388 = VECTOR ( 'NONE', #266, 1000.000000000000000 ) ;
#389 = CC_DESIGN_PERSON_AND_ORGANIZATION_ASSIGNMENT ( #114, #193, ( #87 ) ) ;
#390 = LINE ( 'NONE', #369, #412 ) ;
#391 = VERTEX_POINT ( 'NONE', #18 ) ;
#392 = LINE ( 'NONE', #165, #241 ) ;
#393 = APPROVAL_DATE_TIME ( #331, #57 ) ;
#394 = CARTESIAN_POINT ( 'NONE',  ( -51.00000000000001421, 3.500000000000000000, 50.25000000000000711 ) ) ;
#395 = DIRECTION ( 'NONE',  ( 0.000000000000000000, 0.000000000000000000, -1.000000000000000000 ) ) ;
#396 = ORIENTED_EDGE ( 'NONE', *, *, #250, .T. ) ;
#397 = EDGE_LOOP ( 'NONE', ( #206, #42, #16, #330 ) ) ;
#398 = CARTESIAN_POINT ( 'NONE',  ( -51.00000000000001421, 0.000000000000000000, 50.25000000000000711 ) ) ;
#399 = ORIENTED_EDGE ( 'NONE', *, *, #190, .F. ) ;
#400 = ORIENTED_EDGE ( 'NONE', *, *, #359, .T. ) ;
#401 = APPROVAL_STATUS ( 'not_yet_approved' ) ;
#402 = PLANE ( 'NONE',  #13 ) ;
#403 = VECTOR ( 'NONE', #315, 1000.000000000000000 ) ;
#404 = CC_DESIGN_SECURITY_CLASSIFICATION ( #273, ( #149 ) ) ;
#405 = PLANE ( 'NONE',  #133 ) ;
#406 = FACE_OUTER_BOUND ( 'NONE', #142, .T. ) ;
#407 = LINE ( 'NONE', #156, #117 ) ;
#408 = EDGE_CURVE ( 'NONE', #353, #267, #145, .T. ) ;
#409 = FACE_OUTER_BOUND ( 'NONE', #113, .T. ) ;
#410 = EDGE_LOOP ( 'NONE', ( #137, #293, #31, #143 ) ) ;
#411 = ORIENTED_EDGE ( 'NONE', *, *, #181, .T. ) ;
#412 = VECTOR ( 'NONE', #159, 1000.000000000000000 ) ;
ENDSEC;
END-ISO-10303-21;
