ISO-10303-21;
HEADER;
FILE_DESCRIPTION (( 'STEP AP203' ),
    '1' );
FILE_NAME ('Linhof_Lensboard_blank.STEP',
    '2026-09-14T14:32:14',
    ( '' ),
    ( '' ),
    'SwSTEP 2.0',
    'SolidWorks 2023',
    '' );
FILE_SCHEMA (( 'CONFIG_CONTROL_DESIGN' ));
ENDSEC;

DATA;
#1 = CARTESIAN_POINT ( 'NONE',  ( -47.99999999999999289, 0.8999999999999980238, 47.74999999999998579 ) ) ;
#2 = VERTEX_POINT ( 'NONE', #1268 ) ;
#3 = AXIS2_PLACEMENT_3D ( 'NONE', #149, #1226, #804 ) ;
#4 = CARTESIAN_POINT ( 'NONE',  ( 30.39999999999998792, -0.4000000000000000222, 43.84999999999996589 ) ) ;
#5 = ORIENTED_EDGE ( 'NONE', *, *, #296, .T. ) ;
#6 = VERTEX_POINT ( 'NONE', #626 ) ;
#7 = DIRECTION ( 'NONE',  ( -0.000000000000000000, 1.000000000000000000, -0.000000000000000000 ) ) ;
#8 = LINE ( 'NONE', #743, #555 ) ;
#9 = ORIENTED_EDGE ( 'NONE', *, *, #580, .T. ) ;
#10 = DIRECTION ( 'NONE',  ( -0.000000000000000000, -1.000000000000000000, -0.000000000000000000 ) ) ;
#11 = ORIENTED_EDGE ( 'NONE', *, *, #1064, .T. ) ;
#12 = CARTESIAN_POINT ( 'NONE',  ( 0.000000000000000000, -0.4000000000000000222, -44.84999999999999432 ) ) ;
#13 = DIRECTION ( 'NONE',  ( 0.000000000000000000, -1.000000000000000000, 0.000000000000000000 ) ) ;
#14 = ORIENTED_EDGE ( 'NONE', *, *, #296, .F. ) ;
#15 = VECTOR ( 'NONE', #97, 1000.000000000000000 ) ;
#16 = EDGE_CURVE ( 'NONE', #1145, #975, #307, .T. ) ;
#17 = MECHANICAL_CONTEXT ( 'NONE', #362, 'mechanical' ) ;
#18 = FACE_OUTER_BOUND ( 'NONE', #286, .T. ) ;
#19 = EDGE_LOOP ( 'NONE', ( #389, #717, #729, #1153, #283 ) ) ;
#20 = VECTOR ( 'NONE', #1157, 1000.000000000000000 ) ;
#21 = CARTESIAN_POINT ( 'NONE',  ( 39.79999999999999716, 1.699999999999999956, 47.74999999999998579 ) ) ;
#22 = ADVANCED_FACE ( 'NONE', ( #737 ), #1036, .F. ) ;
#23 = DIRECTION ( 'NONE',  ( -0.000000000000000000, 1.000000000000000000, -0.000000000000000000 ) ) ;
#24 = ORIENTED_EDGE ( 'NONE', *, *, #1238, .F. ) ;
#25 = PERSON_AND_ORGANIZATION_ROLE ( 'creator' ) ;
#26 = DIRECTION ( 'NONE',  ( 1.000000000000000000, 0.000000000000000000, -0.000000000000000000 ) ) ;
#27 = VERTEX_POINT ( 'NONE', #526 ) ;
#28 = VECTOR ( 'NONE', #122, 1000.000000000000114 ) ;
#29 = DIRECTION ( 'NONE',  ( 0.000000000000000000, -0.000000000000000000, -1.000000000000000000 ) ) ;
#30 = CARTESIAN_POINT ( 'NONE',  ( 0.000000000000000000, -2.750000000000000000, 0.000000000000000000 ) ) ;
#31 = PERSON_AND_ORGANIZATION ( #613, #1301 ) ;
#32 = LINE ( 'NONE', #1284, #537 ) ;
#33 = PLANE ( 'NONE',  #59 ) ;
#34 = DIRECTION ( 'NONE',  ( 0.000000000000000000, 0.000000000000000000, 1.000000000000000000 ) ) ;
#35 = LINE ( 'NONE', #915, #628 ) ;
#36 = EDGE_CURVE ( 'NONE', #434, #491, #1277, .T. ) ;
#37 = EDGE_CURVE ( 'NONE', #491, #738, #746, .T. ) ;
#38 = AXIS2_PLACEMENT_3D ( 'NONE', #590, #786, #990 ) ;
#39 = CARTESIAN_POINT ( 'NONE',  ( 0.000000000000000000, 0.000000000000000000, 0.000000000000000000 ) ) ;
#40 = LINE ( 'NONE', #650, #874 ) ;
#41 = LINE ( 'NONE', #895, #1214 ) ;
#42 = DIRECTION ( 'NONE',  ( -0.5010362705417039653, 0.000000000000000000, -0.8654262854811265449 ) ) ;
#43 = ADVANCED_FACE ( 'NONE', ( #1263 ), #1053, .F. ) ;
#44 = CARTESIAN_POINT ( 'NONE',  ( 0.000000000000000000, -2.750000000000000000, 41.64999999999999858 ) ) ;
#45 = DATE_AND_TIME ( #1202, #404 ) ;
#46 = ORIENTED_EDGE ( 'NONE', *, *, #430, .T. ) ;
#47 = VECTOR ( 'NONE', #909, 1000.000000000000000 ) ;
#48 = VERTEX_POINT ( 'NONE', #433 ) ;
#49 = CYLINDRICAL_SURFACE ( 'NONE', #577, 41.64999999999999858 ) ;
#50 = DIRECTION ( 'NONE',  ( 1.000000000000000000, 0.000000000000000000, 0.000000000000000000 ) ) ;
#51 = ORIENTED_EDGE ( 'NONE', *, *, #469, .T. ) ;
#52 = EDGE_CURVE ( 'NONE', #1025, #1228, #520, .T. ) ;
#53 = ORIENTED_EDGE ( 'NONE', *, *, #636, .T. ) ;
#54 = CARTESIAN_POINT ( 'NONE',  ( 0.000000000000000000, -2.750000000000000000, 0.000000000000000000 ) ) ;
#55 = DIRECTION ( 'NONE',  ( -0.000000000000000000, -0.000000000000000000, 1.000000000000000000 ) ) ;
#56 = ORIENTED_EDGE ( 'NONE', *, *, #467, .F. ) ;
#57 = ORIENTED_EDGE ( 'NONE', *, *, #146, .F. ) ;
#58 = DIRECTION ( 'NONE',  ( -0.000000000000000000, 1.000000000000000000, -0.000000000000000000 ) ) ;
#59 = AXIS2_PLACEMENT_3D ( 'NONE', #997, #462, #785 ) ;
#60 = DIRECTION ( 'NONE',  ( -0.000000000000000000, -1.000000000000000000, -0.000000000000000000 ) ) ;
#61 = EDGE_LOOP ( 'NONE', ( #1304, #1252 ) ) ;
#62 = VERTEX_POINT ( 'NONE', #1354 ) ;
#63 = CIRCLE ( 'NONE', #3, 0.6500000000000047962 ) ;
#64 = LINE ( 'NONE', #1026, #277 ) ;
#65 = EDGE_CURVE ( 'NONE', #487, #369, #400, .T. ) ;
#66 = VECTOR ( 'NONE', #1141, 1000.000000000000000 ) ;
#67 = LINE ( 'NONE', #412, #492 ) ;
#68 = ADVANCED_FACE ( 'NONE', ( #78 ), #293, .F. ) ;
#69 = EDGE_LOOP ( 'NONE', ( #9, #279 ) ) ;
#70 = ADVANCED_FACE ( 'NONE', ( #1068 ), #202, .F. ) ;
#71 = EDGE_CURVE ( 'NONE', #62, #941, #1322, .T. ) ;
#72 = ORIENTED_EDGE ( 'NONE', *, *, #393, .T. ) ;
#73 = CARTESIAN_POINT ( 'NONE',  ( -38.50000000000000000, -0.4000000000000000222, 45.14999999999997726 ) ) ;
#74 = LINE ( 'NONE', #624, #429 ) ;
#75 = PRODUCT_RELATED_PRODUCT_CATEGORY ( 'detail', '', ( #1197 ) ) ;
#76 = EDGE_CURVE ( 'NONE', #457, #730, #341, .T. ) ;
#77 = ORIENTED_EDGE ( 'NONE', *, *, #280, .F. ) ;
#78 = FACE_OUTER_BOUND ( 'NONE', #181, .T. ) ;
#79 = EDGE_LOOP ( 'NONE', ( #550, #807, #1125, #119 ) ) ;
#80 = VECTOR ( 'NONE', #1167, 1000.000000000000000 ) ;
#81 = DIRECTION ( 'NONE',  ( -0.5010362705417040763, 0.000000000000000000, -0.8654262854811265449 ) ) ;
#82 = DIRECTION ( 'NONE',  ( -0.000000000000000000, 1.000000000000000000, -0.000000000000000000 ) ) ;
#83 = AXIS2_PLACEMENT_3D ( 'NONE', #220, #1071, #108 ) ;
#84 = ORIENTED_EDGE ( 'NONE', *, *, #1065, .T. ) ;
#85 = DIRECTION ( 'NONE',  ( -0.000000000000000000, 1.000000000000000000, -0.000000000000000000 ) ) ;
#86 = FACE_OUTER_BOUND ( 'NONE', #1224, .T. ) ;
#87 = ORIENTED_EDGE ( 'NONE', *, *, #420, .T. ) ;
#88 = CARTESIAN_POINT ( 'NONE',  ( 0.000000000000000000, -1.000000000000000000, 0.000000000000000000 ) ) ;
#89 = CARTESIAN_POINT ( 'NONE',  ( 44.00526315789474552, 5.421010862427522170E-17, 45.14999999999997016 ) ) ;
#90 = CARTESIAN_POINT ( 'NONE',  ( 1.149999999999998135, 0.8999999999999934719, 47.74999999999997158 ) ) ;
#91 = DIRECTION ( 'NONE',  ( 0.000000000000000000, 0.000000000000000000, -1.000000000000000000 ) ) ;
#92 = ORIENTED_EDGE ( 'NONE', *, *, #1150, .F. ) ;
#93 = CARTESIAN_POINT ( 'NONE',  ( 5.100653918448726178E-15, -2.750000000000000000, -41.64999999999999858 ) ) ;
#94 = ADVANCED_FACE ( 'NONE', ( #86 ), #409, .T. ) ;
#95 = LINE ( 'NONE', #1258, #383 ) ;
#96 = CARTESIAN_POINT ( 'NONE',  ( 0.000000000000000000, 0.000000000000000000, 0.000000000000000000 ) ) ;
#97 = DIRECTION ( 'NONE',  ( -1.000000000000000000, 0.000000000000000000, 0.000000000000000000 ) ) ;
#98 = ORIENTED_EDGE ( 'NONE', *, *, #817, .T. ) ;
#99 = VERTEX_POINT ( 'NONE', #771 ) ;
#100 = DIRECTION ( 'NONE',  ( -0.000000000000000000, 0.3271105638831634521, 0.9449860734402589779 ) ) ;
#101 = VECTOR ( 'NONE', #719, 1000.000000000000000 ) ;
#102 = LINE ( 'NONE', #12, #740 ) ;
#103 = LINE ( 'NONE', #1063, #732 ) ;
#104 = CARTESIAN_POINT ( 'NONE',  ( 30.39999999999998792, 0.000000000000000000, 44.49999999999997158 ) ) ;
#105 = ORIENTED_EDGE ( 'NONE', *, *, #368, .T. ) ;
#106 = ORIENTED_EDGE ( 'NONE', *, *, #65, .T. ) ;
#107 = CYLINDRICAL_SURFACE ( 'NONE', #666, 0.6500000000000047962 ) ;
#108 = DIRECTION ( 'NONE',  ( -1.000000000000000000, 0.000000000000000000, -0.000000000000000000 ) ) ;
#109 = ORIENTED_EDGE ( 'NONE', *, *, #120, .F. ) ;
#110 = AXIS2_PLACEMENT_3D ( 'NONE', #318, #186, #842 ) ;
#111 = LINE ( 'NONE', #960, #80 ) ;
#112 = CARTESIAN_POINT ( 'NONE',  ( 38.50000000000000000, -0.4000000000000000222, 45.14999999999997726 ) ) ;
#113 = ORIENTED_EDGE ( 'NONE', *, *, #612, .F. ) ;
#114 = CARTESIAN_POINT ( 'NONE',  ( 48.00000000000000711, 1.699999999999999956, -50.85000000000000853 ) ) ;
#115 = EDGE_CURVE ( 'NONE', #975, #1030, #762, .T. ) ;
#116 = FACE_BOUND ( 'NONE', #152, .T. ) ;
#117 = ORIENTED_EDGE ( 'NONE', *, *, #811, .F. ) ;
#118 = PLANE ( 'NONE',  #1205 ) ;
#119 = ORIENTED_EDGE ( 'NONE', *, *, #241, .F. ) ;
#120 = EDGE_CURVE ( 'NONE', #193, #708, #586, .T. ) ;
#121 = CC_DESIGN_DATE_AND_TIME_ASSIGNMENT ( #143, #232, ( #621 ) ) ;
#122 = DIRECTION ( 'NONE',  ( 0.4799623912365024170, -0.2869705206344101422, -0.8290259484994146888 ) ) ;
#123 = DIRECTION ( 'NONE',  ( 0.000000000000000000, 0.000000000000000000, 1.000000000000000000 ) ) ;
#124 = ORIENTED_EDGE ( 'NONE', *, *, #161, .F. ) ;
#125 = AXIS2_PLACEMENT_3D ( 'NONE', #1332, #499, #175 ) ;
#126 = APPLICATION_PROTOCOL_DEFINITION ( 'international standard', 'config_control_design', 1994, #362 ) ;
#127 = LINE ( 'NONE', #994, #132 ) ;
#128 = EDGE_LOOP ( 'NONE', ( #604, #930, #1331, #259, #627, #1024, #703, #325, #757, #481, #401, #1299, #882, #648, #657 ) ) ;
#129 = CIRCLE ( 'NONE', #378, 39.70000000000000284 ) ;
#130 = LINE ( 'NONE', #311, #28 ) ;
#131 = PLANE ( 'NONE',  #38 ) ;
#132 = VECTOR ( 'NONE', #557, 1000.000000000000000 ) ;
#133 =( BOUNDED_CURVE ( )  B_SPLINE_CURVE ( 3, ( #484, #257, #359, #898 ),
 .UNSPECIFIED., .F., .T. ) 
 B_SPLINE_CURVE_WITH_KNOTS ( ( 4, 4 ),
 ( 1.570796326794896336, 3.141592653589793116 ),
 .UNSPECIFIED. ) 
 CURVE ( )  GEOMETRIC_REPRESENTATION_ITEM ( )  RATIONAL_B_SPLINE_CURVE ( ( 1.000000000000000000, 0.8047378541243649375, 0.8047378541243649375, 1.000000000000000000 ) ) 
 REPRESENTATION_ITEM ( '' )  );
#134 = PERSON_AND_ORGANIZATION ( #613, #1301 ) ;
#135 = CARTESIAN_POINT ( 'NONE',  ( 0.000000000000000000, 0.000000000000000000, 0.000000000000000000 ) ) ;
#136 = VERTEX_POINT ( 'NONE', #1290 ) ;
#137 = VECTOR ( 'NONE', #436, 1000.000000000000000 ) ;
#138 = AXIS2_PLACEMENT_3D ( 'NONE', #39, #864, #335 ) ;
#139 = ADVANCED_FACE ( 'NONE', ( #564 ), #1076, .F. ) ;
#140 = DIRECTION ( 'NONE',  ( -0.000000000000000000, 1.000000000000000000, 0.000000000000000000 ) ) ;
#141 = FACE_OUTER_BOUND ( 'NONE', #661, .T. ) ;
#142 = CARTESIAN_POINT ( 'NONE',  ( -29.10000000000000142, 0.000000000000000000, 46.24999999999998579 ) ) ;
#143 = DATE_AND_TIME ( #676, #698 ) ;
#144 = CARTESIAN_POINT ( 'NONE',  ( -47.99999999999999289, 0.000000000000000000, 45.14999999999997016 ) ) ;
#145 = EDGE_CURVE ( 'NONE', #217, #620, #344, .T. ) ;
#146 = EDGE_CURVE ( 'NONE', #509, #975, #349, .T. ) ;
#147 = FACE_OUTER_BOUND ( 'NONE', #61, .T. ) ;
#148 = LINE ( 'NONE', #1003, #706 ) ;
#149 = CARTESIAN_POINT ( 'NONE',  ( 30.39999999999998792, -0.4000000000000000222, 44.49999999999997158 ) ) ;
#150 = AXIS2_PLACEMENT_3D ( 'NONE', #1061, #1055, #838 ) ;
#151 = APPROVAL_DATE_TIME ( #758, #1353 ) ;
#152 = EDGE_LOOP ( 'NONE', ( #441, #702 ) ) ;
#153 = ORIENTED_EDGE ( 'NONE', *, *, #391, .T. ) ;
#154 = FACE_OUTER_BOUND ( 'NONE', #910, .T. ) ;
#155 = PLANE ( 'NONE',  #246 ) ;
#156 = EDGE_CURVE ( 'NONE', #1235, #1043, #1087, .T. ) ;
#157 = ORIENTED_EDGE ( 'NONE', *, *, #316, .F. ) ;
#158 = CIRCLE ( 'NONE', #1274, 41.64999999999999858 ) ;
#159 = EDGE_LOOP ( 'NONE', ( #772, #5, #972, #546 ) ) ;
#160 = FACE_OUTER_BOUND ( 'NONE', #843, .T. ) ;
#161 = EDGE_CURVE ( 'NONE', #593, #163, #336, .T. ) ;
#162 = FACE_BOUND ( 'NONE', #1326, .T. ) ;
#163 = VERTEX_POINT ( 'NONE', #858 ) ;
#164 = ORIENTED_EDGE ( 'NONE', *, *, #1313, .F. ) ;
#165 = LINE ( 'NONE', #170, #1223 ) ;
#166 = DIRECTION ( 'NONE',  ( 0.000000000000000000, 0.000000000000000000, -1.000000000000000000 ) ) ;
#167 = ORIENTED_EDGE ( 'NONE', *, *, #76, .F. ) ;
#168 = CIRCLE ( 'NONE', #330, 43.60000000000000142 ) ;
#169 = EDGE_CURVE ( 'NONE', #730, #457, #1095, .T. ) ;
#170 = CARTESIAN_POINT ( 'NONE',  ( -30.39999999999998792, -0.4000000000000000222, 45.14999999999997726 ) ) ;
#171 = EDGE_CURVE ( 'NONE', #136, #493, #127, .T. ) ;
#172 = DIRECTION ( 'NONE',  ( 0.000000000000000000, -1.000000000000000000, 0.000000000000000000 ) ) ;
#173 = EDGE_LOOP ( 'NONE', ( #203, #1336 ) ) ;
#174 = VERTEX_POINT ( 'NONE', #985 ) ;
#175 = DIRECTION ( 'NONE',  ( 0.000000000000000000, 0.000000000000000000, -1.000000000000000000 ) ) ;
#176 = ADVANCED_FACE ( 'NONE', ( #1182 ), #118, .F. ) ;
#177 = EDGE_CURVE ( 'NONE', #511, #194, #196, .T. ) ;
#178 = DIRECTION ( 'NONE',  ( 0.000000000000000000, -1.000000000000000000, 0.000000000000000000 ) ) ;
#179 = ORIENTED_EDGE ( 'NONE', *, *, #36, .F. ) ;
#180 = CARTESIAN_POINT ( 'NONE',  ( 39.79999999999999716, 0.000000000000000000, 47.74999999999998579 ) ) ;
#181 = EDGE_LOOP ( 'NONE', ( #795, #24, #1020, #11 ) ) ;
#182 = DIRECTION ( 'NONE',  ( 0.000000000000000000, 0.000000000000000000, 1.000000000000000000 ) ) ;
#183 = CARTESIAN_POINT ( 'NONE',  ( 39.79999999999999716, 1.699999999999999956, 46.24999999999998579 ) ) ;
#184 = ORIENTED_EDGE ( 'NONE', *, *, #924, .F. ) ;
#185 = LINE ( 'NONE', #1044, #951 ) ;
#186 = DIRECTION ( 'NONE',  ( -0.000000000000000000, 1.000000000000000000, -0.000000000000000000 ) ) ;
#187 = VERTEX_POINT ( 'NONE', #216 ) ;
#188 = VECTOR ( 'NONE', #256, 1000.000000000000000 ) ;
#189 = CARTESIAN_POINT ( 'NONE',  ( 1.150000000000000355, 0.000000000000000000, 46.29999999999996874 ) ) ;
#190 = DIRECTION ( 'NONE',  ( 0.000000000000000000, -0.000000000000000000, -1.000000000000000000 ) ) ;
#191 = AXIS2_PLACEMENT_3D ( 'NONE', #1173, #734, #1295 ) ;
#192 = DIRECTION ( 'NONE',  ( 0.000000000000000000, 0.000000000000000000, 1.000000000000000000 ) ) ;
#193 = VERTEX_POINT ( 'NONE', #881 ) ;
#194 = VERTEX_POINT ( 'NONE', #112 ) ;
#195 = DIRECTION ( 'NONE',  ( -0.000000000000000000, 1.000000000000000000, -0.000000000000000000 ) ) ;
#196 = CIRCLE ( 'NONE', #474, 0.6500000000000047962 ) ;
#197 = LINE ( 'NONE', #1239, #938 ) ;
#198 = FACE_OUTER_BOUND ( 'NONE', #1260, .T. ) ;
#199 = AXIS2_PLACEMENT_3D ( 'NONE', #530, #443, #658 ) ;
#200 = APPROVAL_PERSON_ORGANIZATION ( #976, #479, #581 ) ;
#201 = CARTESIAN_POINT ( 'NONE',  ( -43.76700143350803529, 0.1424571848605837854, 45.56154297848610213 ) ) ;
#202 = CYLINDRICAL_SURFACE ( 'NONE', #110, 1.149999999999998135 ) ;
#203 = ORIENTED_EDGE ( 'NONE', *, *, #744, .T. ) ;
#204 = FACE_OUTER_BOUND ( 'NONE', #1264, .T. ) ;
#205 = LINE ( 'NONE', #748, #137 ) ;
#206 = DIRECTION ( 'NONE',  ( 0.000000000000000000, -1.000000000000000000, 0.000000000000000000 ) ) ;
#207 = PLANE ( 'NONE',  #867 ) ;
#208 = CARTESIAN_POINT ( 'NONE',  ( -42.50000000000000000, 1.699999999999999956, 47.74999999999998579 ) ) ;
#209 = ORIENTED_EDGE ( 'NONE', *, *, #1011, .F. ) ;
#210 = DIRECTION ( 'NONE',  ( 0.000000000000000000, 0.000000000000000000, -1.000000000000000000 ) ) ;
#211 = DIRECTION ( 'NONE',  ( 0.000000000000000000, 0.000000000000000000, -1.000000000000000000 ) ) ;
#212 = VERTEX_POINT ( 'NONE', #977 ) ;
#213 = EDGE_CURVE ( 'NONE', #532, #926, #32, .T. ) ;
#214 = ADVANCED_FACE ( 'NONE', ( #18 ), #574, .T. ) ;
#215 = CARTESIAN_POINT ( 'NONE',  ( -39.79999999999999716, 0.000000000000000000, 47.74999999999998579 ) ) ;
#216 = CARTESIAN_POINT ( 'NONE',  ( -47.99999999999999289, 0.000000000000000000, 38.24999999999998579 ) ) ;
#217 = VERTEX_POINT ( 'NONE', #1312 ) ;
#218 = ADVANCED_FACE ( 'NONE', ( #238 ), #1093, .F. ) ;
#219 = DIRECTION ( 'NONE',  ( 0.000000000000000000, 0.000000000000000000, 1.000000000000000000 ) ) ;
#220 = CARTESIAN_POINT ( 'NONE',  ( -47.99999999999999289, 1.699999999999999956, 47.74999999999998579 ) ) ;
#221 = CC_DESIGN_PERSON_AND_ORGANIZATION_ASSIGNMENT ( #1189, #25, ( #828 ) ) ;
#222 = ORIENTED_EDGE ( 'NONE', *, *, #431, .F. ) ;
#223 = VECTOR ( 'NONE', #480, 1000.000000000000000 ) ;
#224 = VECTOR ( 'NONE', #432, 1000.000000000000114 ) ;
#225 = DIRECTION ( 'NONE',  ( -1.000000000000000000, 0.000000000000000000, 0.000000000000000000 ) ) ;
#226 = ORIENTED_EDGE ( 'NONE', *, *, #1126, .F. ) ;
#227 = APPROVAL ( #253, '未' ) ;
#228 = CARTESIAN_POINT ( 'NONE',  ( -38.50000000000000000, -0.4000000000000000222, 44.49999999999997158 ) ) ;
#229 = ADVANCED_BREP_SHAPE_REPRESENTATION ( 'Linhof_Lensboard_blank', ( #1007, #138 ), #1184 ) ;
#230 = DIRECTION ( 'NONE',  ( -1.000000000000000000, 0.000000000000000000, 0.000000000000000000 ) ) ;
#231 = VERTEX_POINT ( 'NONE', #1000 ) ;
#232 = DATE_TIME_ROLE ( 'creation_date' ) ;
#233 = CARTESIAN_POINT ( 'NONE',  ( 1.150000000000000355, 1.699999999999999956, 46.29999999999996874 ) ) ;
#234 = EDGE_LOOP ( 'NONE', ( #925, #84, #1191, #117 ) ) ;
#235 = CARTESIAN_POINT ( 'NONE',  ( -30.39999999999998792, 0.000000000000000000, 44.49999999999997158 ) ) ;
#236 = DIRECTION ( 'NONE',  ( -0.000000000000000000, 1.000000000000000000, -0.000000000000000000 ) ) ;
#237 = COORDINATED_UNIVERSAL_TIME_OFFSET ( 8, 0, .AHEAD. ) ;
#238 = FACE_OUTER_BOUND ( 'NONE', #862, .T. ) ;
#239 = EDGE_LOOP ( 'NONE', ( #1121, #856, #820, #1370, #308 ) ) ;
#240 = AXIS2_PLACEMENT_3D ( 'NONE', #1002, #470, #29 ) ;
#241 = EDGE_CURVE ( 'NONE', #509, #663, #40, .T. ) ;
#242 = CARTESIAN_POINT ( 'NONE',  ( -47.99999999999999289, 0.000000000000000000, 38.24999999999998579 ) ) ;
#243 = CARTESIAN_POINT ( 'NONE',  ( 0.000000000000000000, -1.000000000000000000, 43.60000000000000142 ) ) ;
#244 = FACE_OUTER_BOUND ( 'NONE', #1139, .T. ) ;
#245 = EDGE_CURVE ( 'NONE', #670, #451, #1212, .T. ) ;
#246 = AXIS2_PLACEMENT_3D ( 'NONE', #585, #1201, #1022 ) ;
#247 = APPROVAL_ROLE ( '' ) ;
#248 = CARTESIAN_POINT ( 'NONE',  ( 38.50000000000000000, -0.4000000000000000222, 43.84999999999996589 ) ) ;
#249 = CIRCLE ( 'NONE', #1029, 43.60000000000000142 ) ;
#250 = DIRECTION ( 'NONE',  ( -0.000000000000000000, 0.000000000000000000, -1.000000000000000000 ) ) ;
#251 = CARTESIAN_POINT ( 'NONE',  ( 42.50000000000000000, 0.000000000000000000, 47.74999999999998579 ) ) ;
#252 = LINE ( 'NONE', #142, #695 ) ;
#253 = APPROVAL_STATUS ( 'not_yet_approved' ) ;
#254 = ORIENTED_EDGE ( 'NONE', *, *, #1215, .F. ) ;
#255 = EDGE_LOOP ( 'NONE', ( #767, #92, #582, #592 ) ) ;
#256 = DIRECTION ( 'NONE',  ( -0.000000000000000000, 1.000000000000000000, -0.000000000000000000 ) ) ;
#257 = CARTESIAN_POINT ( 'NONE',  ( -1.149999999999999911, 0.1648888604062107022, 45.62634559672902412 ) ) ;
#258 = AXIS2_PLACEMENT_3D ( 'NONE', #745, #534, #1160 ) ;
#259 = ORIENTED_EDGE ( 'NONE', *, *, #964, .T. ) ;
#260 = VERTEX_POINT ( 'NONE', #1317 ) ;
#261 = EDGE_CURVE ( 'NONE', #217, #593, #674, .T. ) ;
#262 = VECTOR ( 'NONE', #211, 1000.000000000000000 ) ;
#263 = DIRECTION ( 'NONE',  ( -1.000000000000000000, 0.000000000000000000, -0.000000000000000000 ) ) ;
#264 = FACE_OUTER_BOUND ( 'NONE', #1117, .T. ) ;
#265 = EDGE_CURVE ( 'NONE', #1327, #532, #367, .T. ) ;
#266 = EDGE_LOOP ( 'NONE', ( #416, #1196, #1285, #894 ) ) ;
#267 = VECTOR ( 'NONE', #503, 1000.000000000000000 ) ;
#268 = AXIS2_PLACEMENT_3D ( 'NONE', #552, #1062, #210 ) ;
#269 = ORIENTED_EDGE ( 'NONE', *, *, #547, .T. ) ;
#270 = CARTESIAN_POINT ( 'NONE',  ( 39.79999999999999716, 0.000000000000000000, 46.24999999999998579 ) ) ;
#271 = DIRECTION ( 'NONE',  ( -0.000000000000000000, 1.000000000000000000, -0.000000000000000000 ) ) ;
#272 = ORIENTED_EDGE ( 'NONE', *, *, #1073, .T. ) ;
#273 = ORIENTED_EDGE ( 'NONE', *, *, #245, .T. ) ;
#274 = CARTESIAN_POINT ( 'NONE',  ( -1.149999999999999467, 0.000000000000000000, 46.29999999999996874 ) ) ;
#275 = LINE ( 'NONE', #705, #1206 ) ;
#276 = ORIENTED_EDGE ( 'NONE', *, *, #391, .F. ) ;
#277 = VECTOR ( 'NONE', #1134, 1000.000000000000000 ) ;
#278 = EDGE_CURVE ( 'NONE', #608, #1235, #133, .T. ) ;
#279 = ORIENTED_EDGE ( 'NONE', *, *, #811, .T. ) ;
#280 = EDGE_CURVE ( 'NONE', #1352, #1335, #1220, .T. ) ;
#281 = CARTESIAN_POINT ( 'NONE',  ( -47.99999999999999289, 1.699999999999999956, 47.74999999999998579 ) ) ;
#282 = FACE_OUTER_BOUND ( 'NONE', #899, .T. ) ;
#283 = ORIENTED_EDGE ( 'NONE', *, *, #1060, .F. ) ;
#284 = EDGE_CURVE ( 'NONE', #697, #187, #787, .T. ) ;
#285 = VERTEX_POINT ( 'NONE', #1120 ) ;
#286 = EDGE_LOOP ( 'NONE', ( #396, #859, #597, #962 ) ) ;
#287 = AXIS2_PLACEMENT_3D ( 'NONE', #662, #542, #1298 ) ;
#288 = LINE ( 'NONE', #281, #442 ) ;
#289 = CC_DESIGN_APPROVAL ( #479, ( #621 ) ) ;
#290 = CARTESIAN_POINT ( 'NONE',  ( -47.99999999999999289, 1.699999999999999956, 47.74999999999998579 ) ) ;
#291 = ORIENTED_EDGE ( 'NONE', *, *, #37, .T. ) ;
#292 = FACE_OUTER_BOUND ( 'NONE', #173, .T. ) ;
#293 = PLANE ( 'NONE',  #1273 ) ;
#294 = EDGE_LOOP ( 'NONE', ( #466, #406, #1177, #1014, #1269, #919, #777, #337, #1187, #209, #1217 ) ) ;
#295 = DIRECTION ( 'NONE',  ( 0.8654262854811265449, 0.000000000000000000, -0.5010362705417040763 ) ) ;
#296 = EDGE_CURVE ( 'NONE', #1228, #27, #252, .T. ) ;
#297 = CARTESIAN_POINT ( 'NONE',  ( -42.50000000000000000, 1.699999999999999956, 47.74999999999998579 ) ) ;
#298 = ORIENTED_EDGE ( 'NONE', *, *, #1351, .F. ) ;
#299 = DIRECTION ( 'NONE',  ( -0.000000000000000000, 1.000000000000000000, -0.000000000000000000 ) ) ;
#300 = ORIENTED_EDGE ( 'NONE', *, *, #744, .F. ) ;
#301 = ORIENTED_EDGE ( 'NONE', *, *, #716, .T. ) ;
#302 = VECTOR ( 'NONE', #877, 1000.000000000000227 ) ;
#303 = CARTESIAN_POINT ( 'NONE',  ( -29.10000000000000142, 0.3807692307692326916, 46.24999999999998579 ) ) ;
#304 = DIRECTION ( 'NONE',  ( 1.000000000000000000, 0.000000000000000000, 0.000000000000000000 ) ) ;
#305 = PLANE ( 'NONE',  #83 ) ;
#306 = CARTESIAN_POINT ( 'NONE',  ( -30.39999999999998792, -0.4000000000000000222, 43.84999999999996589 ) ) ;
#307 = LINE ( 'NONE', #1255, #561 ) ;
#308 = ORIENTED_EDGE ( 'NONE', *, *, #922, .F. ) ;
#309 = DIRECTION ( 'NONE',  ( 0.000000000000000000, -0.000000000000000000, -1.000000000000000000 ) ) ;
#310 = AXIS2_PLACEMENT_3D ( 'NONE', #836, #872, #440 ) ;
#311 = CARTESIAN_POINT ( 'NONE',  ( 21.65206732136775614, 13.36502268547583405, 83.76006553581940750 ) ) ;
#312 = LINE ( 'NONE', #1179, #262 ) ;
#313 = APPLICATION_CONTEXT ( 'configuration controlled 3d designs of mechanical parts and assemblies' ) ;
#314 = CIRCLE ( 'NONE', #1096, 0.6500000000000047962 ) ;
#315 = APPROVAL_PERSON_ORGANIZATION ( #31, #227, #683 ) ;
#316 = EDGE_CURVE ( 'NONE', #830, #608, #682, .T. ) ;
#317 = DIRECTION ( 'NONE',  ( -0.000000000000000000, 1.000000000000000000, -0.000000000000000000 ) ) ;
#318 = CARTESIAN_POINT ( 'NONE',  ( 4.659442521218196459E-16, 0.000000000000000000, 46.29999999999996874 ) ) ;
#319 = VERTEX_POINT ( 'NONE', #596 ) ;
#320 = EDGE_CURVE ( 'NONE', #602, #1281, #63, .T. ) ;
#321 = ADVANCED_FACE ( 'NONE', ( #244 ), #465, .T. ) ;
#322 = DIRECTION ( 'NONE',  ( 0.000000000000000000, 0.000000000000000000, -1.000000000000000000 ) ) ;
#323 = ADVANCED_FACE ( 'NONE', ( #1113 ), #155, .F. ) ;
#324 = CARTESIAN_POINT ( 'NONE',  ( -47.99999999999999289, 1.699999999999999956, -50.85000000000000853 ) ) ;
#325 = ORIENTED_EDGE ( 'NONE', *, *, #265, .T. ) ;
#326 = CARTESIAN_POINT ( 'NONE',  ( 38.50000000000000000, -0.4000000000000000222, 45.14999999999997726 ) ) ;
#327 = CARTESIAN_POINT ( 'NONE',  ( 38.50000000000000000, -0.4000000000000000222, 44.49999999999997158 ) ) ;
#328 = ORIENTED_EDGE ( 'NONE', *, *, #261, .T. ) ;
#329 = EDGE_CURVE ( 'NONE', #319, #697, #1012, .T. ) ;
#330 = AXIS2_PLACEMENT_3D ( 'NONE', #88, #515, #1371 ) ;
#331 = PLANE ( 'NONE',  #486 ) ;
#332 = DIRECTION ( 'NONE',  ( -0.000000000000000000, 1.000000000000000000, -0.000000000000000000 ) ) ;
#333 = EDGE_LOOP ( 'NONE', ( #51, #376, #1296, #954 ) ) ;
#334 = VECTOR ( 'NONE', #560, 1000.000000000000000 ) ;
#335 = DIRECTION ( 'NONE',  ( 1.000000000000000000, 0.000000000000000000, 0.000000000000000000 ) ) ;
#336 = LINE ( 'NONE', #669, #1136 ) ;
#337 = ORIENTED_EDGE ( 'NONE', *, *, #1218, .F. ) ;
#338 = PLANE ( 'NONE',  #1198 ) ;
#339 = CARTESIAN_POINT ( 'NONE',  ( 30.39999999999998792, -0.4000000000000000222, 43.84999999999996589 ) ) ;
#340 = VERTEX_POINT ( 'NONE', #569 ) ;
#341 = CIRCLE ( 'NONE', #897, 43.60000000000000142 ) ;
#342 = CIRCLE ( 'NONE', #696, 0.6500000000000047962 ) ;
#343 = COORDINATED_UNIVERSAL_TIME_OFFSET ( 8, 0, .AHEAD. ) ;
#344 = LINE ( 'NONE', #1102, #1357 ) ;
#345 = ORIENTED_EDGE ( 'NONE', *, *, #547, .F. ) ;
#346 = PLANE ( 'NONE',  #1300 ) ;
#347 = FACE_OUTER_BOUND ( 'NONE', #866, .T. ) ;
#348 = EDGE_CURVE ( 'NONE', #260, #2, #693, .T. ) ;
#349 = LINE ( 'NONE', #233, #1078 ) ;
#350 = VERTEX_POINT ( 'NONE', #999 ) ;
#351 = DIRECTION ( 'NONE',  ( -0.000000000000000000, 1.000000000000000000, -0.000000000000000000 ) ) ;
#352 = DIRECTION ( 'NONE',  ( 0.000000000000000000, 0.000000000000000000, 1.000000000000000000 ) ) ;
#353 = CIRCLE ( 'NONE', #754, 39.70000000000000284 ) ;
#354 = CARTESIAN_POINT ( 'NONE',  ( 0.000000000000000000, -1.000000000000000000, 0.000000000000000000 ) ) ;
#355 = APPROVAL_STATUS ( 'not_yet_approved' ) ;
#356 = CARTESIAN_POINT ( 'NONE',  ( 48.00000000000000711, 1.699999999999999956, 47.74999999999998579 ) ) ;
#357 = CARTESIAN_POINT ( 'NONE',  ( -38.50000000000000000, -0.4000000000000000222, 44.49999999999997158 ) ) ;
#358 = CARTESIAN_POINT ( 'NONE',  ( 1.150000000000000355, 1.699999999999999956, 46.29999999999996874 ) ) ;
#359 = CARTESIAN_POINT ( 'NONE',  ( -0.6736544032709406160, -6.219640020363971177E-16, 45.14999999999997016 ) ) ;
#360 = APPLICATION_PROTOCOL_DEFINITION ( 'international standard', 'config_control_design', 1994, #313 ) ;
#361 = VERTEX_POINT ( 'NONE', #44 ) ;
#362 = APPLICATION_CONTEXT ( 'configuration controlled 3d designs of mechanical parts and assemblies' ) ;
#363 = ORIENTED_EDGE ( 'NONE', *, *, #402, .T. ) ;
#364 = DIRECTION ( 'NONE',  ( 0.000000000000000000, 0.000000000000000000, 1.000000000000000000 ) ) ;
#365 = CARTESIAN_POINT ( 'NONE',  ( 0.000000000000000000, -0.4000000000000000222, -46.84999999999999432 ) ) ;
#366 = AXIS2_PLACEMENT_3D ( 'NONE', #524, #206, #749 ) ;
#367 = LINE ( 'NONE', #793, #603 ) ;
#368 = EDGE_CURVE ( 'NONE', #174, #1330, #35, .T. ) ;
#369 = VERTEX_POINT ( 'NONE', #892 ) ;
#370 = ORIENTED_EDGE ( 'NONE', *, *, #991, .F. ) ;
#371 = DIRECTION ( 'NONE',  ( -0.000000000000000000, 1.000000000000000000, -0.000000000000000000 ) ) ;
#372 = ADVANCED_FACE ( 'NONE', ( #489 ), #902, .F. ) ;
#373 = CARTESIAN_POINT ( 'NONE',  ( -39.79999999999999716, 1.699999999999999956, 47.74999999999998579 ) ) ;
#374 = CC_DESIGN_PERSON_AND_ORGANIZATION_ASSIGNMENT ( #563, #548, ( #621 ) ) ;
#375 = VECTOR ( 'NONE', #463, 1000.000000000000227 ) ;
#376 = ORIENTED_EDGE ( 'NONE', *, *, #617, .F. ) ;
#377 = ORIENTED_EDGE ( 'NONE', *, *, #120, .T. ) ;
#378 = AXIS2_PLACEMENT_3D ( 'NONE', #840, #1266, #654 ) ;
#379 = DIRECTION ( 'NONE',  ( 0.000000000000000000, 0.000000000000000000, -1.000000000000000000 ) ) ;
#380 = DIRECTION ( 'NONE',  ( -0.000000000000000000, 1.000000000000000000, -0.000000000000000000 ) ) ;
#381 = ORIENTED_EDGE ( 'NONE', *, *, #1032, .F. ) ;
#382 = VECTOR ( 'NONE', #780, 1000.000000000000000 ) ;
#383 = VECTOR ( 'NONE', #826, 1000.000000000000000 ) ;
#384 = EDGE_LOOP ( 'NONE', ( #475, #589, #106, #958, #410 ) ) ;
#385 = DIRECTION ( 'NONE',  ( -0.000000000000000000, 1.000000000000000000, -0.000000000000000000 ) ) ;
#386 = CARTESIAN_POINT ( 'NONE',  ( 0.000000000000000000, -1.000000000000000000, 0.000000000000000000 ) ) ;
#387 = ADVANCED_FACE ( 'NONE', ( #264, #162 ), #1018, .T. ) ;
#388 = ORIENTED_EDGE ( 'NONE', *, *, #490, .F. ) ;
#389 = ORIENTED_EDGE ( 'NONE', *, *, #278, .T. ) ;
#390 = DIRECTION ( 'NONE',  ( -0.000000000000000000, 0.3271105638831634521, 0.9449860734402589779 ) ) ;
#391 = EDGE_CURVE ( 'NONE', #708, #193, #158, .T. ) ;
#392 = DIRECTION ( 'NONE',  ( 0.000000000000000000, -1.000000000000000000, 0.000000000000000000 ) ) ;
#393 = EDGE_CURVE ( 'NONE', #434, #830, #275, .T. ) ;
#394 = EDGE_LOOP ( 'NONE', ( #1108, #912, #1031, #565 ) ) ;
#395 = VECTOR ( 'NONE', #390, 1000.000000000000227 ) ;
#396 = ORIENTED_EDGE ( 'NONE', *, *, #1321, .T. ) ;
#397 = CARTESIAN_POINT ( 'NONE',  ( -30.39999999999998792, 0.000000000000000000, 45.14999999999997016 ) ) ;
#398 = DIRECTION ( 'NONE',  ( -1.000000000000000000, -0.000000000000000000, -0.000000000000000000 ) ) ;
#399 = ORIENTED_EDGE ( 'NONE', *, *, #329, .T. ) ;
#400 = LINE ( 'NONE', #208, #513 ) ;
#401 = ORIENTED_EDGE ( 'NONE', *, *, #469, .F. ) ;
#402 = EDGE_CURVE ( 'NONE', #48, #926, #342, .T. ) ;
#403 = LINE ( 'NONE', #809, #1149 ) ;
#404 = LOCAL_TIME ( 22, 32, 14.00000000000000000, #984 ) ;
#405 = CARTESIAN_POINT ( 'NONE',  ( 38.50000000000000000, 0.000000000000000000, 43.84999999999996589 ) ) ;
#406 = ORIENTED_EDGE ( 'NONE', *, *, #494, .F. ) ;
#407 = ADVANCED_FACE ( 'NONE', ( #606 ), #810, .T. ) ;
#408 = DIRECTION ( 'NONE',  ( 0.000000000000000000, -0.000000000000000000, -1.000000000000000000 ) ) ;
#409 = PLANE ( 'NONE',  #310 ) ;
#410 = ORIENTED_EDGE ( 'NONE', *, *, #964, .F. ) ;
#411 = DIRECTION ( 'NONE',  ( -0.000000000000000000, 1.000000000000000000, -0.000000000000000000 ) ) ;
#412 = CARTESIAN_POINT ( 'NONE',  ( -47.99999999999999289, 0.000000000000000000, -50.85000000000000853 ) ) ;
#413 = CARTESIAN_POINT ( 'NONE',  ( 2.449293598294706907E-16, 0.000000000000000000, -48.84999999999999432 ) ) ;
#414 =( LENGTH_UNIT ( ) NAMED_UNIT ( * ) SI_UNIT ( .MILLI., .METRE. ) );
#415 = DIRECTION ( 'NONE',  ( -0.5010362705417039653, 0.000000000000000000, -0.8654262854811265449 ) ) ;
#416 = ORIENTED_EDGE ( 'NONE', *, *, #171, .T. ) ;
#417 = LINE ( 'NONE', #1366, #502 ) ;
#418 = CARTESIAN_POINT ( 'NONE',  ( -38.50000000000000000, 0.000000000000000000, 44.49999999999997158 ) ) ;
#419 = LINE ( 'NONE', #950, #690 ) ;
#420 = EDGE_CURVE ( 'NONE', #501, #670, #95, .T. ) ;
#421 = DIRECTION ( 'NONE',  ( -0.000000000000000000, 1.000000000000000000, -0.000000000000000000 ) ) ;
#422 = CARTESIAN_POINT ( 'NONE',  ( -47.99999999999999289, 1.699999999999999956, 47.74999999999998579 ) ) ;
#423 = ORIENTED_EDGE ( 'NONE', *, *, #761, .F. ) ;
#424 = PLANE ( 'NONE',  #551 ) ;
#425 = AXIS2_PLACEMENT_3D ( 'NONE', #180, #1168, #91 ) ;
#426 = DIRECTION ( 'NONE',  ( 1.000000000000000000, 0.000000000000000000, 0.000000000000000000 ) ) ;
#427 = LINE ( 'NONE', #444, #1227 ) ;
#428 = ORIENTED_EDGE ( 'NONE', *, *, #169, .F. ) ;
#429 = VECTOR ( 'NONE', #631, 1000.000000000000000 ) ;
#430 = EDGE_CURVE ( 'NONE', #163, #697, #67, .T. ) ;
#431 = EDGE_CURVE ( 'NONE', #1088, #536, #507, .T. ) ;
#432 = DIRECTION ( 'NONE',  ( 0.4799623912365024170, 0.2869705206344101422, 0.8290259484994146888 ) ) ;
#433 = CARTESIAN_POINT ( 'NONE',  ( 38.50000000000000000, 0.000000000000000000, 43.84999999999996589 ) ) ;
#434 = VERTEX_POINT ( 'NONE', #614 ) ;
#435 = CIRCLE ( 'NONE', #366, 2.000000000000001776 ) ;
#436 = DIRECTION ( 'NONE',  ( -0.000000000000000000, 1.000000000000000000, -0.000000000000000000 ) ) ;
#437 = CARTESIAN_POINT ( 'NONE',  ( -38.50000000000000000, 0.000000000000000000, 45.14999999999997726 ) ) ;
#438 = EDGE_LOOP ( 'NONE', ( #947, #879, #298, #1122 ) ) ;
#439 = DIRECTION ( 'NONE',  ( -0.000000000000000000, 1.000000000000000000, -0.000000000000000000 ) ) ;
#440 = DIRECTION ( 'NONE',  ( -1.000000000000000000, 0.000000000000000000, 0.000000000000000000 ) ) ;
#441 = ORIENTED_EDGE ( 'NONE', *, *, #769, .F. ) ;
#442 = VECTOR ( 'NONE', #1248, 1000.000000000000000 ) ;
#443 = DIRECTION ( 'NONE',  ( 0.000000000000000000, -1.000000000000000000, 0.000000000000000000 ) ) ;
#444 = CARTESIAN_POINT ( 'NONE',  ( 38.50000000000000000, 0.000000000000000000, 45.14999999999997726 ) ) ;
#445 = ORIENTED_EDGE ( 'NONE', *, *, #348, .F. ) ;
#446 = CIRCLE ( 'NONE', #1041, 0.6500000000000047962 ) ;
#447 = DIRECTION ( 'NONE',  ( -3.016113955986557232E-16, -0.000000000000000000, -1.000000000000000000 ) ) ;
#448 = ORIENTED_EDGE ( 'NONE', *, *, #784, .T. ) ;
#449 = DIRECTION ( 'NONE',  ( -1.000000000000000000, 0.000000000000000000, 0.000000000000000000 ) ) ;
#450 = CARTESIAN_POINT ( 'NONE',  ( -39.79999999999999716, 0.8999999999999980238, 47.74999999999998579 ) ) ;
#451 = VERTEX_POINT ( 'NONE', #183 ) ;
#452 = AXIS2_PLACEMENT_3D ( 'NONE', #865, #1305, #971 ) ;
#453 = AXIS2_PLACEMENT_3D ( 'NONE', #418, #846, #1185 ) ;
#454 = CC_DESIGN_SECURITY_CLASSIFICATION ( #1052, ( #828 ) ) ;
#455 = COORDINATED_UNIVERSAL_TIME_OFFSET ( 8, 0, .AHEAD. ) ;
#456 = DIRECTION ( 'NONE',  ( 0.000000000000000000, 0.000000000000000000, -1.000000000000000000 ) ) ;
#457 = VERTEX_POINT ( 'NONE', #1367 ) ;
#458 = FACE_OUTER_BOUND ( 'NONE', #1346, .T. ) ;
#459 = CARTESIAN_POINT ( 'NONE',  ( -1.149999999999998135, 1.699999999999999956, 47.74999999999998579 ) ) ;
#460 = PERSON_AND_ORGANIZATION ( #613, #1301 ) ;
#461 = DIRECTION ( 'NONE',  ( 1.000000000000000000, -0.000000000000000000, 0.000000000000000000 ) ) ;
#462 = DIRECTION ( 'NONE',  ( 0.000000000000000000, 0.000000000000000000, -1.000000000000000000 ) ) ;
#463 = DIRECTION ( 'NONE',  ( 0.000000000000000000, -0.3271105638831634521, -0.9449860734402589779 ) ) ;
#464 = VECTOR ( 'NONE', #1363, 1000.000000000000000 ) ;
#465 = CYLINDRICAL_SURFACE ( 'NONE', #1230, 43.60000000000000142 ) ;
#466 = ORIENTED_EDGE ( 'NONE', *, *, #1379, .F. ) ;
#467 = EDGE_CURVE ( 'NONE', #99, #285, #197, .T. ) ;
#468 = EDGE_CURVE ( 'NONE', #501, #718, #74, .T. ) ;
#469 = EDGE_CURVE ( 'NONE', #1131, #48, #839, .T. ) ;
#470 = DIRECTION ( 'NONE',  ( 0.000000000000000000, -1.000000000000000000, 0.000000000000000000 ) ) ;
#471 = CARTESIAN_POINT ( 'NONE',  ( 38.50000000000000000, 0.000000000000000000, 45.14999999999997016 ) ) ;
#472 = EDGE_CURVE ( 'NONE', #1327, #217, #832, .T. ) ;
#473 = DIRECTION ( 'NONE',  ( -0.5010362705417039653, -0.000000000000000000, 0.8654262854811265449 ) ) ;
#474 = AXIS2_PLACEMENT_3D ( 'NONE', #327, #549, #456 ) ;
#475 = ORIENTED_EDGE ( 'NONE', *, *, #1349, .T. ) ;
#476 = LOCAL_TIME ( 22, 32, 14.00000000000000000, #572 ) ;
#477 = ORIENTED_EDGE ( 'NONE', *, *, #1234, .T. ) ;
#478 = LINE ( 'NONE', #672, #911 ) ;
#479 = APPROVAL ( #1297, '未' ) ;
#480 = DIRECTION ( 'NONE',  ( -0.000000000000000000, -0.000000000000000000, 1.000000000000000000 ) ) ;
#481 = ORIENTED_EDGE ( 'NONE', *, *, #402, .F. ) ;
#482 = EDGE_LOOP ( 'NONE', ( #428, #167 ) ) ;
#483 = PLANE ( 'NONE',  #979 ) ;
#484 = CARTESIAN_POINT ( 'NONE',  ( -1.149999999999998801, 0.3980769230769193312, 46.29999999999996874 ) ) ;
#485 = ORIENTED_EDGE ( 'NONE', *, *, #348, .T. ) ;
#486 = AXIS2_PLACEMENT_3D ( 'NONE', #755, #868, #449 ) ;
#487 = VERTEX_POINT ( 'NONE', #297 ) ;
#488 = CARTESIAN_POINT ( 'NONE',  ( -44.00526315789474552, 0.000000000000000000, 45.14999999999997016 ) ) ;
#489 = FACE_OUTER_BOUND ( 'NONE', #1345, .T. ) ;
#490 = EDGE_CURVE ( 'NONE', #684, #285, #1344, .T. ) ;
#491 = VERTEX_POINT ( 'NONE', #1048 ) ;
#492 = VECTOR ( 'NONE', #398, 1000.000000000000000 ) ;
#493 = VERTEX_POINT ( 'NONE', #500 ) ;
#494 = EDGE_CURVE ( 'NONE', #1235, #1145, #714, .T. ) ;
#495 = DIRECTION ( 'NONE',  ( -1.000000000000000000, 0.000000000000000000, 0.000000000000000000 ) ) ;
#496 = CARTESIAN_POINT ( 'NONE',  ( 47.99999999999999289, 0.000000000000000000, 38.24999999999998579 ) ) ;
#497 = ORIENTED_EDGE ( 'NONE', *, *, #1210, .F. ) ;
#498 = ORIENTED_EDGE ( 'NONE', *, *, #761, .T. ) ;
#499 = DIRECTION ( 'NONE',  ( 1.000000000000000000, 0.000000000000000000, 0.000000000000000000 ) ) ;
#500 = CARTESIAN_POINT ( 'NONE',  ( 39.79999999999999716, 0.3807692307692326916, 46.24999999999998579 ) ) ;
#501 = VERTEX_POINT ( 'NONE', #1244 ) ;
#502 = VECTOR ( 'NONE', #1155, 1000.000000000000000 ) ;
#503 = DIRECTION ( 'NONE',  ( 1.000000000000000000, 0.000000000000000000, 0.000000000000000000 ) ) ;
#504 = ORIENTED_EDGE ( 'NONE', *, *, #329, .F. ) ;
#505 = CARTESIAN_POINT ( 'NONE',  ( -38.50000000000000000, -0.4000000000000000222, 45.14999999999997726 ) ) ;
#506 = AXIS2_PLACEMENT_3D ( 'NONE', #365, #23, #1225 ) ;
#507 = LINE ( 'NONE', #1156, #763 ) ;
#508 = ADVANCED_FACE ( 'NONE', ( #282 ), #1148, .F. ) ;
#509 = VERTEX_POINT ( 'NONE', #928 ) ;
#510 = LINE ( 'NONE', #952, #464 ) ;
#511 = VERTEX_POINT ( 'NONE', #1350 ) ;
#512 = ORIENTED_EDGE ( 'NONE', *, *, #1349, .F. ) ;
#513 = VECTOR ( 'NONE', #415, 1000.000000000000227 ) ;
#514 = VECTOR ( 'NONE', #1056, 1000.000000000000000 ) ;
#515 = DIRECTION ( 'NONE',  ( 0.000000000000000000, -1.000000000000000000, 0.000000000000000000 ) ) ;
#516 = EDGE_CURVE ( 'NONE', #670, #620, #1249, .T. ) ;
#517 = CIRCLE ( 'NONE', #1341, 0.6500000000000047962 ) ;
#518 = CARTESIAN_POINT ( 'NONE',  ( 0.000000000000000000, -1.000000000000000000, 0.000000000000000000 ) ) ;
#519 = DIRECTION ( 'NONE',  ( -1.000000000000000000, 0.000000000000000000, 0.000000000000000000 ) ) ;
#520 = LINE ( 'NONE', #1045, #587 ) ;
#521 = ORIENTED_EDGE ( 'NONE', *, *, #145, .F. ) ;
#522 = CARTESIAN_POINT ( 'NONE',  ( 0.000000000000000000, 0.000000000000000000, -46.84999999999999432 ) ) ;
#523 = DIRECTION ( 'NONE',  ( 0.000000000000000000, 0.000000000000000000, 1.000000000000000000 ) ) ;
#524 = CARTESIAN_POINT ( 'NONE',  ( 0.000000000000000000, -0.4000000000000000222, -46.84999999999999432 ) ) ;
#525 = CARTESIAN_POINT ( 'NONE',  ( -39.79999999999999716, 0.000000000000000000, 46.24999999999998579 ) ) ;
#526 = CARTESIAN_POINT ( 'NONE',  ( -29.10000000000000142, 1.699999999999999956, 46.24999999999998579 ) ) ;
#527 = ORIENTED_EDGE ( 'NONE', *, *, #903, .T. ) ;
#528 = VECTOR ( 'NONE', #385, 1000.000000000000000 ) ;
#529 = PLANE ( 'NONE',  #150 ) ;
#530 = CARTESIAN_POINT ( 'NONE',  ( 0.000000000000000000, -0.8000000000000001554, 0.000000000000000000 ) ) ;
#531 = FACE_OUTER_BOUND ( 'NONE', #294, .T. ) ;
#532 = VERTEX_POINT ( 'NONE', #89 ) ;
#533 = ADVANCED_FACE ( 'NONE', ( #664 ), #346, .F. ) ;
#534 = DIRECTION ( 'NONE',  ( -0.000000000000000000, 1.000000000000000000, -0.000000000000000000 ) ) ;
#535 = CARTESIAN_POINT ( 'NONE',  ( -47.99999999999999289, 1.699999999999999956, 47.74999999999998579 ) ) ;
#536 = VERTEX_POINT ( 'NONE', #965 ) ;
#537 = VECTOR ( 'NONE', #752, 1000.000000000000000 ) ;
#538 = CARTESIAN_POINT ( 'NONE',  ( -38.50000000000000000, -0.4000000000000000222, 44.49999999999997158 ) ) ;
#539 = CARTESIAN_POINT ( 'NONE',  ( 0.000000000000000000, 0.000000000000000000, 43.60000000000000142 ) ) ;
#540 = ORIENTED_EDGE ( 'NONE', *, *, #161, .T. ) ;
#541 = CARTESIAN_POINT ( 'NONE',  ( -47.99999999999999289, 0.000000000000000000, 45.14999999999997016 ) ) ;
#542 = DIRECTION ( 'NONE',  ( 0.000000000000000000, 1.000000000000000000, 0.000000000000000000 ) ) ;
#543 = ORIENTED_EDGE ( 'NONE', *, *, #710, .F. ) ;
#544 = DIRECTION ( 'NONE',  ( -0.000000000000000000, 0.000000000000000000, 1.000000000000000000 ) ) ;
#545 = DIRECTION ( 'NONE',  ( -1.000000000000000000, 0.000000000000000000, 0.000000000000000000 ) ) ;
#546 = ORIENTED_EDGE ( 'NONE', *, *, #815, .F. ) ;
#547 = EDGE_CURVE ( 'NONE', #829, #790, #1271, .T. ) ;
#548 = PERSON_AND_ORGANIZATION_ROLE ( 'creator' ) ;
#549 = DIRECTION ( 'NONE',  ( 0.000000000000000000, -1.000000000000000000, 0.000000000000000000 ) ) ;
#550 = ORIENTED_EDGE ( 'NONE', *, *, #146, .T. ) ;
#551 = AXIS2_PLACEMENT_3D ( 'NONE', #630, #1380, #309 ) ;
#552 = CARTESIAN_POINT ( 'NONE',  ( 0.000000000000000000, -2.750000000000000000, 0.000000000000000000 ) ) ;
#553 = DIRECTION ( 'NONE',  ( 1.000000000000000000, 0.000000000000000000, -0.000000000000000000 ) ) ;
#554 = ORIENTED_EDGE ( 'NONE', *, *, #490, .T. ) ;
#555 = VECTOR ( 'NONE', #639, 1000.000000000000000 ) ;
#556 = PERSON_AND_ORGANIZATION_ROLE ( 'design_owner' ) ;
#557 = DIRECTION ( 'NONE',  ( 1.000000000000000000, 0.000000000000000000, 0.000000000000000000 ) ) ;
#558 = ORIENTED_EDGE ( 'NONE', *, *, #1064, .F. ) ;
#559 = DIRECTION ( 'NONE',  ( -1.000000000000000000, 0.000000000000000000, 0.000000000000000000 ) ) ;
#560 = DIRECTION ( 'NONE',  ( -1.000000000000000000, 0.000000000000000000, 0.000000000000000000 ) ) ;
#561 = VECTOR ( 'NONE', #849, 1000.000000000000000 ) ;
#562 = AXIS2_PLACEMENT_3D ( 'NONE', #711, #178, #190 ) ;
#563 = PERSON_AND_ORGANIZATION ( #613, #1301 ) ;
#564 = FACE_OUTER_BOUND ( 'NONE', #937, .T. ) ;
#565 = ORIENTED_EDGE ( 'NONE', *, *, #922, .T. ) ;
#566 = EDGE_CURVE ( 'NONE', #715, #1043, #1232, .T. ) ;
#567 = LINE ( 'NONE', #242, #598 ) ;
#568 = FACE_OUTER_BOUND ( 'NONE', #850, .T. ) ;
#569 = CARTESIAN_POINT ( 'NONE',  ( 4.861847792614992955E-15, -0.8000000000000001554, -39.70000000000000284 ) ) ;
#570 = EDGE_CURVE ( 'NONE', #1229, #361, #875, .T. ) ;
#571 = EDGE_CURVE ( 'NONE', #536, #6, #1050, .T. ) ;
#572 = COORDINATED_UNIVERSAL_TIME_OFFSET ( 8, 0, .AHEAD. ) ;
#573 = EDGE_CURVE ( 'NONE', #212, #599, #249, .T. ) ;
#574 = CYLINDRICAL_SURFACE ( 'NONE', #851, 0.6500000000000047962 ) ;
#575 = CARTESIAN_POINT ( 'NONE',  ( 39.79999999999999716, 0.000000000000000000, 46.24999999999998579 ) ) ;
#576 = CARTESIAN_POINT ( 'NONE',  ( -47.99999999999999289, 1.699999999999999956, 47.74999999999998579 ) ) ;
#577 = AXIS2_PLACEMENT_3D ( 'NONE', #30, #1219, #34 ) ;
#578 = CARTESIAN_POINT ( 'NONE',  ( 0.000000000000000000, -1.000000000000000000, 0.000000000000000000 ) ) ;
#579 = EDGE_CURVE ( 'NONE', #718, #532, #130, .T. ) ;
#580 = EDGE_CURVE ( 'NONE', #1035, #340, #806, .T. ) ;
#581 = APPROVAL_ROLE ( '' ) ;
#582 = ORIENTED_EDGE ( 'NONE', *, *, #961, .F. ) ;
#583 = ORIENTED_EDGE ( 'NONE', *, *, #1132, .F. ) ;
#584 = PLANE ( 'NONE',  #125 ) ;
#585 = CARTESIAN_POINT ( 'NONE',  ( 42.50000000000000000, 0.000000000000000000, 47.74999999999998579 ) ) ;
#586 = CIRCLE ( 'NONE', #452, 41.64999999999999858 ) ;
#587 = VECTOR ( 'NONE', #609, 1000.000000000000000 ) ;
#588 = ORIENTED_EDGE ( 'NONE', *, *, #280, .T. ) ;
#589 = ORIENTED_EDGE ( 'NONE', *, *, #1032, .T. ) ;
#590 = CARTESIAN_POINT ( 'NONE',  ( -38.50000000000000000, -0.4000000000000000222, 45.14999999999997726 ) ) ;
#591 = CARTESIAN_POINT ( 'NONE',  ( 48.00000000000000711, 0.8999999999999980238, 47.74999999999998579 ) ) ;
#592 = ORIENTED_EDGE ( 'NONE', *, *, #1238, .T. ) ;
#593 = VERTEX_POINT ( 'NONE', #114 ) ;
#594 = EDGE_CURVE ( 'NONE', #1319, #986, #102, .T. ) ;
#595 = DIRECTION ( 'NONE',  ( -0.000000000000000000, 1.000000000000000000, -0.000000000000000000 ) ) ;
#596 = CARTESIAN_POINT ( 'NONE',  ( -47.99999999999999289, 1.699999999999999956, -50.85000000000000853 ) ) ;
#597 = ORIENTED_EDGE ( 'NONE', *, *, #320, .F. ) ;
#598 = VECTOR ( 'NONE', #989, 1000.000000000000000 ) ;
#599 = VERTEX_POINT ( 'NONE', #973 ) ;
#600 = CARTESIAN_POINT ( 'NONE',  ( -42.50000000000000000, 0.000000000000000000, 47.74999999999998579 ) ) ;
#601 = CARTESIAN_POINT ( 'NONE',  ( 38.50000000000000000, 0.000000000000000000, 44.49999999999997158 ) ) ;
#602 = VERTEX_POINT ( 'NONE', #1192 ) ;
#603 = VECTOR ( 'NONE', #473, 1000.000000000000227 ) ;
#604 = ORIENTED_EDGE ( 'NONE', *, *, #640, .F. ) ;
#605 = CARTESIAN_POINT ( 'NONE',  ( 0.000000000000000000, -0.8000000000000001554, 39.70000000000000284 ) ) ;
#606 = FACE_OUTER_BOUND ( 'NONE', #1365, .T. ) ;
#607 = AXIS2_PLACEMENT_3D ( 'NONE', #1166, #332, #647 ) ;
#608 = VERTEX_POINT ( 'NONE', #1279 ) ;
#609 = DIRECTION ( 'NONE',  ( 1.000000000000000000, 0.000000000000000000, 0.000000000000000000 ) ) ;
#610 = ORIENTED_EDGE ( 'NONE', *, *, #1073, .F. ) ;
#611 = FACE_OUTER_BOUND ( 'NONE', #79, .T. ) ;
#612 = EDGE_CURVE ( 'NONE', #361, #1229, #988, .T. ) ;
#613 = PERSON ( '未', '未', '未', ('未'), ('未'), ('未') ) ;
#614 = CARTESIAN_POINT ( 'NONE',  ( -29.10000000000000142, 0.8999999999999980238, 47.74999999999998579 ) ) ;
#615 = ORIENTED_EDGE ( 'NONE', *, *, #784, .F. ) ;
#616 = CIRCLE ( 'NONE', #798, 2.000000000000001776 ) ;
#617 = EDGE_CURVE ( 'NONE', #511, #48, #205, .T. ) ;
#618 = CARTESIAN_POINT ( 'NONE',  ( 0.000000000000000000, -0.4000000000000000222, -44.84999999999999432 ) ) ;
#619 = CARTESIAN_POINT ( 'NONE',  ( 0.000000000000000000, -2.750000000000000000, 0.000000000000000000 ) ) ;
#620 = VERTEX_POINT ( 'NONE', #956 ) ;
#621 = PRODUCT_DEFINITION ( '�', '', #828, #768 ) ;
#622 = DIRECTION ( 'NONE',  ( 0.000000000000000000, -1.000000000000000000, 0.000000000000000000 ) ) ;
#623 = VECTOR ( 'NONE', #1303, 1000.000000000000000 ) ;
#624 = CARTESIAN_POINT ( 'NONE',  ( 48.00000000000000711, 0.8999999999999980238, 47.74999999999998579 ) ) ;
#625 = LINE ( 'NONE', #90, #1161 ) ;
#626 = CARTESIAN_POINT ( 'NONE',  ( -38.50000000000000000, 0.000000000000000000, 43.84999999999996589 ) ) ;
#627 = ORIENTED_EDGE ( 'NONE', *, *, #284, .F. ) ;
#628 = VECTOR ( 'NONE', #50, 1000.000000000000000 ) ;
#629 = VECTOR ( 'NONE', #773, 1000.000000000000000 ) ;
#630 = CARTESIAN_POINT ( 'NONE',  ( 0.000000000000000000, -0.8000000000000001554, 0.000000000000000000 ) ) ;
#631 = DIRECTION ( 'NONE',  ( 1.000000000000000000, 0.000000000000000000, 0.000000000000000000 ) ) ;
#632 = CARTESIAN_POINT ( 'NONE',  ( -1.149999999999998135, 0.8999999999999980238, 47.74999999999998579 ) ) ;
#633 = FACE_OUTER_BOUND ( 'NONE', #255, .T. ) ;
#634 = DIRECTION ( 'NONE',  ( 0.000000000000000000, -1.000000000000000000, 0.000000000000000000 ) ) ;
#635 = ORIENTED_EDGE ( 'NONE', *, *, #467, .T. ) ;
#636 = EDGE_CURVE ( 'NONE', #1088, #174, #314, .T. ) ;
#637 = FACE_OUTER_BOUND ( 'NONE', #69, .T. ) ;
#638 = CARTESIAN_POINT ( 'NONE',  ( -38.50000000000000000, 0.000000000000000000, 43.84999999999996589 ) ) ;
#639 = DIRECTION ( 'NONE',  ( 1.000000000000000000, 0.000000000000000000, 0.000000000000000000 ) ) ;
#640 = EDGE_CURVE ( 'NONE', #6, #715, #1172, .T. ) ;
#641 = CARTESIAN_POINT ( 'NONE',  ( 0.000000000000000000, -0.4000000000000000222, -46.84999999999999432 ) ) ;
#642 = ORIENTED_EDGE ( 'NONE', *, *, #580, .F. ) ;
#643 = ORIENTED_EDGE ( 'NONE', *, *, #177, .F. ) ;
#644 = AXIS2_PLACEMENT_3D ( 'NONE', #525, #1376, #939 ) ;
#645 = ADVANCED_FACE ( 'NONE', ( #854 ), #331, .F. ) ;
#646 = CARTESIAN_POINT ( 'NONE',  ( -39.79999999999999716, 0.000000000000000000, 47.74999999999998579 ) ) ;
#647 = DIRECTION ( 'NONE',  ( 0.000000000000000000, 0.000000000000000000, 1.000000000000000000 ) ) ;
#648 = ORIENTED_EDGE ( 'NONE', *, *, #156, .T. ) ;
#649 = DIRECTION ( 'NONE',  ( 2.850185684316102720E-16, 0.3271105638831634521, 0.9449860734402589779 ) ) ;
#650 = CARTESIAN_POINT ( 'NONE',  ( 1.149999999999998135, 1.699999999999999956, 47.74999999999998579 ) ) ;
#651 = ORIENTED_EDGE ( 'NONE', *, *, #76, .T. ) ;
#652 = VECTOR ( 'NONE', #166, 1000.000000000000000 ) ;
#653 = CARTESIAN_POINT ( 'NONE',  ( 1.149999999999998135, 0.8999999999999988010, 47.74999999999998579 ) ) ;
#654 = DIRECTION ( 'NONE',  ( 0.000000000000000000, 0.000000000000000000, -1.000000000000000000 ) ) ;
#655 = ORIENTED_EDGE ( 'NONE', *, *, #991, .T. ) ;
#656 = DIRECTION ( 'NONE',  ( -0.5010362705417039653, -0.000000000000000000, 0.8654262854811265449 ) ) ;
#657 = ORIENTED_EDGE ( 'NONE', *, *, #566, .F. ) ;
#658 = DIRECTION ( 'NONE',  ( 0.000000000000000000, 0.000000000000000000, -1.000000000000000000 ) ) ;
#659 = ADVANCED_FACE ( 'NONE', ( #1070 ), #107, .T. ) ;
#660 = FACE_OUTER_BOUND ( 'NONE', #1086, .T. ) ;
#661 = EDGE_LOOP ( 'NONE', ( #615, #918, #98, #635 ) ) ;
#662 = CARTESIAN_POINT ( 'NONE',  ( 4.659442521218196459E-16, 1.699999999999999956, 46.29999999999996874 ) ) ;
#663 = VERTEX_POINT ( 'NONE', #653 ) ;
#664 = FACE_OUTER_BOUND ( 'NONE', #1142, .T. ) ;
#665 = CARTESIAN_POINT ( 'NONE',  ( 4.861847792614992955E-15, -2.750000000000000000, -39.70000000000000284 ) ) ;
#666 = AXIS2_PLACEMENT_3D ( 'NONE', #538, #1178, #219 ) ;
#667 = DATE_TIME_ROLE ( 'classification_date' ) ;
#668 = ADVANCED_FACE ( 'NONE', ( #1294 ), #338, .T. ) ;
#669 = CARTESIAN_POINT ( 'NONE',  ( 48.00000000000000711, 1.699999999999999956, -50.85000000000000853 ) ) ;
#670 = VERTEX_POINT ( 'NONE', #21 ) ;
#671 = CARTESIAN_POINT ( 'NONE',  ( -30.39999999999998792, 0.000000000000000000, 43.84999999999996589 ) ) ;
#672 = CARTESIAN_POINT ( 'NONE',  ( -47.99999999999999289, 1.699999999999999956, -50.85000000000000853 ) ) ;
#673 = AXIS2_PLACEMENT_3D ( 'NONE', #759, #461, #1190 ) ;
#674 = LINE ( 'NONE', #1100, #382 ) ;
#675 = AXIS2_PLACEMENT_3D ( 'NONE', #386, #1028, #523 ) ;
#676 = CALENDAR_DATE ( 2026, 14, 9 ) ;
#677 = DIRECTION ( 'NONE',  ( 0.000000000000000000, 0.000000000000000000, 1.000000000000000000 ) ) ;
#678 = ADVANCED_FACE ( 'NONE', ( #458 ), #1097, .F. ) ;
#679 = CARTESIAN_POINT ( 'NONE',  ( 5.100653918448726178E-15, -1.000000000000000000, -41.64999999999999858 ) ) ;
#680 = ADVANCED_FACE ( 'NONE', ( #1103 ), #33, .F. ) ;
#681 = LINE ( 'NONE', #774, #871 ) ;
#682 = LINE ( 'NONE', #1325, #739 ) ;
#683 = APPROVAL_ROLE ( '' ) ;
#684 = VERTEX_POINT ( 'NONE', #1208 ) ;
#685 = ORIENTED_EDGE ( 'NONE', *, *, #316, .T. ) ;
#686 = CARTESIAN_POINT ( 'NONE',  ( -39.79999999999999716, 0.3807692307692332467, 46.24999999999998579 ) ) ;
#687 = VECTOR ( 'NONE', #317, 1000.000000000000000 ) ;
#688 = CARTESIAN_POINT ( 'NONE',  ( -47.99999999999999289, 0.000000000000000000, 47.74999999999998579 ) ) ;
#689 = ORIENTED_EDGE ( 'NONE', *, *, #1060, .T. ) ;
#690 = VECTOR ( 'NONE', #1373, 1000.000000000000000 ) ;
#691 = ORIENTED_EDGE ( 'NONE', *, *, #908, .F. ) ;
#692 = CARTESIAN_POINT ( 'NONE',  ( -30.39999999999998792, -0.4000000000000000222, 44.49999999999997158 ) ) ;
#693 = LINE ( 'NONE', #373, #223 ) ;
#694 = ADVANCED_FACE ( 'NONE', ( #883 ), #1307, .F. ) ;
#695 = VECTOR ( 'NONE', #380, 1000.000000000000000 ) ;
#696 = AXIS2_PLACEMENT_3D ( 'NONE', #601, #172, #733 ) ;
#697 = VERTEX_POINT ( 'NONE', #791 ) ;
#698 = LOCAL_TIME ( 22, 32, 14.00000000000000000, #343 ) ;
#699 = ORIENTED_EDGE ( 'NONE', *, *, #1016, .F. ) ;
#700 = DIRECTION ( 'NONE',  ( -3.016113955986557232E-16, 0.000000000000000000, -1.000000000000000000 ) ) ;
#701 = DIRECTION ( 'NONE',  ( 0.000000000000000000, 0.000000000000000000, 1.000000000000000000 ) ) ;
#702 = ORIENTED_EDGE ( 'NONE', *, *, #1234, .F. ) ;
#703 = ORIENTED_EDGE ( 'NONE', *, *, #903, .F. ) ;
#704 = CARTESIAN_POINT ( 'NONE',  ( 30.39999999999998792, 0.000000000000000000, 43.84999999999996589 ) ) ;
#705 = CARTESIAN_POINT ( 'NONE',  ( 48.00000000000000711, 0.8999999999999980238, 47.74999999999998579 ) ) ;
#706 = VECTOR ( 'NONE', #42, 1000.000000000000227 ) ;
#707 = ORIENTED_EDGE ( 'NONE', *, *, #245, .F. ) ;
#708 = VERTEX_POINT ( 'NONE', #679 ) ;
#709 = LINE ( 'NONE', #73, #101 ) ;
#710 = EDGE_CURVE ( 'NONE', #62, #1035, #1199, .T. ) ;
#711 = CARTESIAN_POINT ( 'NONE',  ( 0.000000000000000000, 1.699999999999999956, 0.000000000000000000 ) ) ;
#712 = EDGE_CURVE ( 'NONE', #187, #369, #567, .T. ) ;
#713 = ADVANCED_FACE ( 'NONE', ( #147, #1315 ), #889, .T. ) ;
#714 =( BOUNDED_CURVE ( )  B_SPLINE_CURVE ( 3, ( #1039, #1340, #726, #720 ),
 .UNSPECIFIED., .F., .T. ) 
 B_SPLINE_CURVE_WITH_KNOTS ( ( 4, 4 ),
 ( 3.141592653589793116, 4.712388980384689674 ),
 .UNSPECIFIED. ) 
 CURVE ( )  GEOMETRIC_REPRESENTATION_ITEM ( )  RATIONAL_B_SPLINE_CURVE ( ( 1.000000000000000000, 0.8047378541243649375, 0.8047378541243649375, 1.000000000000000000 ) ) 
 REPRESENTATION_ITEM ( '' )  );
#715 = VERTEX_POINT ( 'NONE', #671 ) ;
#716 = EDGE_CURVE ( 'NONE', #361, #193, #41, .T. ) ;
#717 = ORIENTED_EDGE ( 'NONE', *, *, #494, .T. ) ;
#718 = VERTEX_POINT ( 'NONE', #855 ) ;
#719 = DIRECTION ( 'NONE',  ( -1.000000000000000000, -0.000000000000000000, -0.000000000000000000 ) ) ;
#720 = CARTESIAN_POINT ( 'NONE',  ( 1.149999999999999023, 0.3980769230769187761, 46.29999999999996874 ) ) ;
#721 = ORIENTED_EDGE ( 'NONE', *, *, #1314, .F. ) ;
#722 = DIRECTION ( 'NONE',  ( 0.000000000000000000, -1.000000000000000000, 0.000000000000000000 ) ) ;
#723 = DIRECTION ( 'NONE',  ( -0.000000000000000000, 0.000000000000000000, 1.000000000000000000 ) ) ;
#724 = ORIENTED_EDGE ( 'NONE', *, *, #1188, .F. ) ;
#725 = CARTESIAN_POINT ( 'NONE',  ( 1.149999999999999023, 0.3980769230769187761, 46.29999999999996874 ) ) ;
#726 = CARTESIAN_POINT ( 'NONE',  ( 1.150000000000000355, 0.1648888604062105634, 45.62634559672902412 ) ) ;
#727 = VECTOR ( 'NONE', #1338, 1000.000000000000000 ) ;
#728 = CARTESIAN_POINT ( 'NONE',  ( 30.39999999999998792, -0.4000000000000000222, 45.14999999999997726 ) ) ;
#729 = ORIENTED_EDGE ( 'NONE', *, *, #16, .T. ) ;
#730 = VERTEX_POINT ( 'NONE', #539 ) ;
#731 = DIRECTION ( 'NONE',  ( 0.000000000000000000, -1.000000000000000000, 0.000000000000000000 ) ) ;
#732 = VECTOR ( 'NONE', #861, 1000.000000000000000 ) ;
#733 = DIRECTION ( 'NONE',  ( 0.000000000000000000, 0.000000000000000000, -1.000000000000000000 ) ) ;
#734 = DIRECTION ( 'NONE',  ( 0.000000000000000000, -1.000000000000000000, 0.000000000000000000 ) ) ;
#735 = ADVANCED_FACE ( 'NONE', ( #847 ), #1080, .T. ) ;
#736 = CARTESIAN_POINT ( 'NONE',  ( -42.50000000000000000, 0.8999999999999980238, 47.74999999999998579 ) ) ;
#737 = FACE_OUTER_BOUND ( 'NONE', #789, .T. ) ;
#738 = VERTEX_POINT ( 'NONE', #869 ) ;
#739 = VECTOR ( 'NONE', #1105, 1000.000000000000227 ) ;
#740 = VECTOR ( 'NONE', #7, 1000.000000000000000 ) ;
#741 = LINE ( 'NONE', #1164, #1066 ) ;
#742 = DIRECTION ( 'NONE',  ( 0.000000000000000000, 0.000000000000000000, 1.000000000000000000 ) ) ;
#743 = CARTESIAN_POINT ( 'NONE',  ( -47.99999999999999289, 1.699999999999999956, 47.74999999999998579 ) ) ;
#744 = EDGE_CURVE ( 'NONE', #1319, #829, #435, .T. ) ;
#745 = CARTESIAN_POINT ( 'NONE',  ( 0.000000000000000000, -1.000000000000000000, 0.000000000000000000 ) ) ;
#746 = LINE ( 'NONE', #535, #267 ) ;
#747 = ORIENTED_EDGE ( 'NONE', *, *, #278, .F. ) ;
#748 = CARTESIAN_POINT ( 'NONE',  ( 38.50000000000000000, -0.4000000000000000222, 43.84999999999996589 ) ) ;
#749 = DIRECTION ( 'NONE',  ( 0.000000000000000000, 0.000000000000000000, -1.000000000000000000 ) ) ;
#750 = ORIENTED_EDGE ( 'NONE', *, *, #571, .T. ) ;
#751 = CYLINDRICAL_SURFACE ( 'NONE', #1013, 0.6500000000000047962 ) ;
#752 = DIRECTION ( 'NONE',  ( -1.000000000000000000, 0.000000000000000000, 0.000000000000000000 ) ) ;
#753 = ORIENTED_EDGE ( 'NONE', *, *, #1218, .T. ) ;
#754 = AXIS2_PLACEMENT_3D ( 'NONE', #54, #1243, #379 ) ;
#755 = CARTESIAN_POINT ( 'NONE',  ( 38.50000000000000000, -0.4000000000000000222, 45.14999999999997726 ) ) ;
#756 = LINE ( 'NONE', #437, #1040 ) ;
#757 = ORIENTED_EDGE ( 'NONE', *, *, #213, .T. ) ;
#758 = DATE_AND_TIME ( #1106, #476 ) ;
#759 = CARTESIAN_POINT ( 'NONE',  ( -47.99999999999999289, 1.699999999999999956, 47.74999999999998579 ) ) ;
#760 = ORIENTED_EDGE ( 'NONE', *, *, #1016, .T. ) ;
#761 = EDGE_CURVE ( 'NONE', #1043, #536, #756, .T. ) ;
#762 = CIRCLE ( 'NONE', #287, 1.149999999999998135 ) ;
#763 = VECTOR ( 'NONE', #82, 1000.000000000000000 ) ;
#764 = CARTESIAN_POINT ( 'NONE',  ( 38.50000000000000000, -0.4000000000000000222, 44.49999999999997158 ) ) ;
#765 = FACE_OUTER_BOUND ( 'NONE', #128, .T. ) ;
#766 = CC_DESIGN_APPROVAL ( #1353, ( #1052 ) ) ;
#767 = ORIENTED_EDGE ( 'NONE', *, *, #566, .T. ) ;
#768 = DESIGN_CONTEXT ( 'detailed design', #313, 'design' ) ;
#769 = EDGE_CURVE ( 'NONE', #986, #790, #1222, .T. ) ;
#770 = DATE_AND_TIME ( #775, #878 ) ;
#771 = CARTESIAN_POINT ( 'NONE',  ( 29.10000000000000497, 0.8999999999999980238, 47.74999999999998579 ) ) ;
#772 = ORIENTED_EDGE ( 'NONE', *, *, #52, .T. ) ;
#773 = DIRECTION ( 'NONE',  ( -0.000000000000000000, 1.000000000000000000, -0.000000000000000000 ) ) ;
#774 = CARTESIAN_POINT ( 'NONE',  ( 48.00000000000000711, 0.000000000000000000, 47.74999999999998579 ) ) ;
#775 = CALENDAR_DATE ( 2026, 14, 9 ) ;
#776 = DIRECTION ( 'NONE',  ( 0.000000000000000000, 0.000000000000000000, -1.000000000000000000 ) ) ;
#777 = ORIENTED_EDGE ( 'NONE', *, *, #468, .F. ) ;
#778 = CARTESIAN_POINT ( 'NONE',  ( 0.000000000000000000, -1.000000000000000000, 39.70000000000000284 ) ) ;
#779 = LINE ( 'NONE', #1209, #375 ) ;
#780 = DIRECTION ( 'NONE',  ( 0.000000000000000000, 0.000000000000000000, -1.000000000000000000 ) ) ;
#781 = VECTOR ( 'NONE', #426, 1000.000000000000000 ) ;
#782 = APPROVAL_DATE_TIME ( #45, #479 ) ;
#783 = DIRECTION ( 'NONE',  ( -1.000000000000000000, 0.000000000000000000, 0.000000000000000000 ) ) ;
#784 = EDGE_CURVE ( 'NONE', #509, #285, #8, .T. ) ;
#785 = DIRECTION ( 'NONE',  ( -1.000000000000000000, 0.000000000000000000, -0.000000000000000000 ) ) ;
#786 = DIRECTION ( 'NONE',  ( 0.000000000000000000, 0.000000000000000000, -1.000000000000000000 ) ) ;
#787 = LINE ( 'NONE', #688, #1360 ) ;
#788 = CALENDAR_DATE ( 2026, 14, 9 ) ;
#789 = EDGE_LOOP ( 'NONE', ( #802, #179, #72, #905 ) ) ;
#790 = VERTEX_POINT ( 'NONE', #413 ) ;
#791 = CARTESIAN_POINT ( 'NONE',  ( -47.99999999999999289, 0.000000000000000000, -50.85000000000000853 ) ) ;
#792 = CARTESIAN_POINT ( 'NONE',  ( 39.79999999999999716, 1.699999999999999956, 46.24999999999998579 ) ) ;
#793 = CARTESIAN_POINT ( 'NONE',  ( 42.50000000000000000, 0.000000000000000000, 47.74999999999998579 ) ) ;
#794 = ORIENTED_EDGE ( 'NONE', *, *, #472, .F. ) ;
#795 = ORIENTED_EDGE ( 'NONE', *, *, #640, .T. ) ;
#796 = EDGE_CURVE ( 'NONE', #1281, #1131, #1272, .T. ) ;
#797 = DIRECTION ( 'NONE',  ( 0.000000000000000000, 0.000000000000000000, -1.000000000000000000 ) ) ;
#798 = AXIS2_PLACEMENT_3D ( 'NONE', #816, #622, #943 ) ;
#799 = DIRECTION ( 'NONE',  ( 0.000000000000000000, 0.000000000000000000, 1.000000000000000000 ) ) ;
#800 = ORIENTED_EDGE ( 'NONE', *, *, #177, .T. ) ;
#801 = AXIS2_PLACEMENT_3D ( 'NONE', #1, #1280, #545 ) ;
#802 = ORIENTED_EDGE ( 'NONE', *, *, #37, .F. ) ;
#803 = DIRECTION ( 'NONE',  ( -5.026856593310928720E-17, 0.000000000000000000, 1.000000000000000000 ) ) ;
#804 = DIRECTION ( 'NONE',  ( 0.000000000000000000, 0.000000000000000000, -1.000000000000000000 ) ) ;
#805 = AXIS2_PLACEMENT_3D ( 'NONE', #1129, #392, #1358 ) ;
#806 = CIRCLE ( 'NONE', #199, 39.70000000000000284 ) ;
#807 = ORIENTED_EDGE ( 'NONE', *, *, #16, .F. ) ;
#808 = ORIENTED_EDGE ( 'NONE', *, *, #1188, .T. ) ;
#809 = CARTESIAN_POINT ( 'NONE',  ( -47.99999999999999289, 0.000000000000000000, 45.14999999999997016 ) ) ;
#810 = CYLINDRICAL_SURFACE ( 'NONE', #675, 43.60000000000000142 ) ;
#811 = EDGE_CURVE ( 'NONE', #340, #1035, #129, .T. ) ;
#812 = ORIENTED_EDGE ( 'NONE', *, *, #636, .F. ) ;
#813 = EDGE_LOOP ( 'NONE', ( #750, #558, #812, #900 ) ) ;
#814 = EDGE_CURVE ( 'NONE', #491, #27, #312, .T. ) ;
#815 = EDGE_CURVE ( 'NONE', #1025, #260, #419, .T. ) ;
#816 = CARTESIAN_POINT ( 'NONE',  ( 0.000000000000000000, -0.4000000000000000222, -46.84999999999999432 ) ) ;
#817 = EDGE_CURVE ( 'NONE', #663, #99, #103, .T. ) ;
#818 = CARTESIAN_POINT ( 'NONE',  ( 29.10000000000000142, 1.699999999999999956, 47.74999999999998579 ) ) ;
#819 = VECTOR ( 'NONE', #1276, 1000.000000000000000 ) ;
#820 = ORIENTED_EDGE ( 'NONE', *, *, #472, .T. ) ;
#821 = CC_DESIGN_PERSON_AND_ORGANIZATION_ASSIGNMENT ( #1101, #1092, ( #1052 ) ) ;
#822 = ADVANCED_FACE ( 'NONE', ( #531 ), #957, .T. ) ;
#823 = ORIENTED_EDGE ( 'NONE', *, *, #1170, .F. ) ;
#824 = ADVANCED_FACE ( 'NONE', ( #198 ), #305, .F. ) ;
#825 = LINE ( 'NONE', #1140, #1347 ) ;
#826 = DIRECTION ( 'NONE',  ( -0.000000000000000000, 1.000000000000000000, -0.000000000000000000 ) ) ;
#827 = ORIENTED_EDGE ( 'NONE', *, *, #1011, .T. ) ;
#828 = PRODUCT_DEFINITION_FORMATION_WITH_SPECIFIED_SOURCE ( '�', '', #1197, .NOT_KNOWN. ) ;
#829 = VERTEX_POINT ( 'NONE', #1287 ) ;
#830 = VERTEX_POINT ( 'NONE', #632 ) ;
#831 = FACE_OUTER_BOUND ( 'NONE', #1116, .T. ) ;
#832 = LINE ( 'NONE', #496, #1119 ) ;
#833 = UNCERTAINTY_MEASURE_WITH_UNIT (LENGTH_MEASURE( 1.000000000000000082E-05 ), #414, 'distance_accuracy_value', 'NONE');
#834 = ORIENTED_EDGE ( 'NONE', *, *, #1065, .F. ) ;
#835 = PLANE ( 'NONE',  #644 ) ;
#836 = CARTESIAN_POINT ( 'NONE',  ( -47.99999999999999289, 0.8999999999999980238, 47.74999999999998579 ) ) ;
#837 = ORIENTED_EDGE ( 'NONE', *, *, #814, .T. ) ;
#838 = DIRECTION ( 'NONE',  ( -0.000000000000000000, 0.000000000000000000, 1.000000000000000000 ) ) ;
#839 = LINE ( 'NONE', #405, #917 ) ;
#840 = CARTESIAN_POINT ( 'NONE',  ( 0.000000000000000000, -0.8000000000000001554, 0.000000000000000000 ) ) ;
#841 = FACE_OUTER_BOUND ( 'NONE', #234, .T. ) ;
#842 = DIRECTION ( 'NONE',  ( 0.000000000000000000, 0.000000000000000000, 1.000000000000000000 ) ) ;
#843 = EDGE_LOOP ( 'NONE', ( #345, #300, #1221, #1291 ) ) ;
#844 = AXIS2_PLACEMENT_3D ( 'NONE', #357, #140, #364 ) ;
#845 = CARTESIAN_POINT ( 'NONE',  ( 4.659442521218196459E-16, 0.000000000000000000, 45.14999999999997016 ) ) ;
#846 = DIRECTION ( 'NONE',  ( 0.000000000000000000, -1.000000000000000000, 0.000000000000000000 ) ) ;
#847 = FACE_OUTER_BOUND ( 'NONE', #1046, .T. ) ;
#848 = CYLINDRICAL_SURFACE ( 'NONE', #258, 39.70000000000000284 ) ;
#849 = DIRECTION ( 'NONE',  ( -0.000000000000000000, 1.000000000000000000, -0.000000000000000000 ) ) ;
#850 = EDGE_LOOP ( 'NONE', ( #721, #113, #301, #377 ) ) ;
#851 = AXIS2_PLACEMENT_3D ( 'NONE', #1195, #1176, #886 ) ;
#852 = AXIS2_PLACEMENT_3D ( 'NONE', #354, #1329, #799 ) ;
#853 = LINE ( 'NONE', #1265, #1109 ) ;
#854 = FACE_OUTER_BOUND ( 'NONE', #438, .T. ) ;
#855 = CARTESIAN_POINT ( 'NONE',  ( 42.50000000000000000, 0.8999999999999980238, 47.74999999999998579 ) ) ;
#856 = ORIENTED_EDGE ( 'NONE', *, *, #265, .F. ) ;
#857 = LINE ( 'NONE', #1267, #1127 ) ;
#858 = CARTESIAN_POINT ( 'NONE',  ( 48.00000000000000711, 0.000000000000000000, -50.85000000000000853 ) ) ;
#859 = ORIENTED_EDGE ( 'NONE', *, *, #796, .F. ) ;
#860 = DIRECTION ( 'NONE',  ( 0.000000000000000000, 0.000000000000000000, -1.000000000000000000 ) ) ;
#861 = DIRECTION ( 'NONE',  ( 1.000000000000000000, 0.000000000000000000, 0.000000000000000000 ) ) ;
#862 = EDGE_LOOP ( 'NONE', ( #1083, #794, #527, #124 ) ) ;
#863 = ADVANCED_FACE ( 'NONE', ( #1057, #116, #765 ), #974, .T. ) ;
#864 = DIRECTION ( 'NONE',  ( 0.000000000000000000, 0.000000000000000000, 1.000000000000000000 ) ) ;
#865 = CARTESIAN_POINT ( 'NONE',  ( 0.000000000000000000, -1.000000000000000000, 0.000000000000000000 ) ) ;
#866 = EDGE_LOOP ( 'NONE', ( #498, #222, #226, #1288 ) ) ;
#867 = AXIS2_PLACEMENT_3D ( 'NONE', #641, #722, #408 ) ;
#868 = DIRECTION ( 'NONE',  ( -0.000000000000000000, 0.000000000000000000, -1.000000000000000000 ) ) ;
#869 = CARTESIAN_POINT ( 'NONE',  ( -1.149999999999999467, 1.699999999999999956, 47.74999999999998579 ) ) ;
#870 = EDGE_LOOP ( 'NONE', ( #109, #276 ) ) ;
#871 = VECTOR ( 'NONE', #797, 1000.000000000000000 ) ;
#872 = DIRECTION ( 'NONE',  ( 0.000000000000000000, -0.9449860734402590889, 0.3271105638831635076 ) ) ;
#873 = ORIENTED_EDGE ( 'NONE', *, *, #115, .F. ) ;
#874 = VECTOR ( 'NONE', #1333, 1000.000000000000000 ) ;
#875 = CIRCLE ( 'NONE', #268, 41.64999999999999858 ) ;
#876 = DIRECTION ( 'NONE',  ( -1.000000000000000000, 0.000000000000000000, -0.000000000000000000 ) ) ;
#877 = DIRECTION ( 'NONE',  ( 0.000000000000000000, -0.3271105638831634521, -0.9449860734402589779 ) ) ;
#878 = LOCAL_TIME ( 22, 32, 14.00000000000000000, #237 ) ;
#879 = ORIENTED_EDGE ( 'NONE', *, *, #1320, .F. ) ;
#880 = DATE_AND_TIME ( #788, #1099 ) ;
#881 = CARTESIAN_POINT ( 'NONE',  ( 0.000000000000000000, -1.000000000000000000, 41.64999999999999858 ) ) ;
#882 = ORIENTED_EDGE ( 'NONE', *, *, #1293, .T. ) ;
#883 = FACE_OUTER_BOUND ( 'NONE', #266, .T. ) ;
#884 = LINE ( 'NONE', #792, #334 ) ;
#885 = EDGE_CURVE ( 'NONE', #926, #350, #427, .T. ) ;
#886 = DIRECTION ( 'NONE',  ( 0.000000000000000000, 0.000000000000000000, 1.000000000000000000 ) ) ;
#887 = VECTOR ( 'NONE', #439, 1000.000000000000000 ) ;
#888 = ADVANCED_FACE ( 'NONE', ( #660 ), #1085, .F. ) ;
#889 = PLANE ( 'NONE',  #240 ) ;
#890 = CARTESIAN_POINT ( 'NONE',  ( 38.50000000000000000, -0.4000000000000000222, 43.84999999999996589 ) ) ;
#891 = EDGE_CURVE ( 'NONE', #830, #738, #981, .T. ) ;
#892 = CARTESIAN_POINT ( 'NONE',  ( -47.99999999999999289, 1.699999999999999956, 38.24999999999998579 ) ) ;
#893 = PERSON_AND_ORGANIZATION ( #613, #1301 ) ;
#894 = ORIENTED_EDGE ( 'NONE', *, *, #1207, .F. ) ;
#895 = CARTESIAN_POINT ( 'NONE',  ( 0.000000000000000000, -2.750000000000000000, 41.64999999999999858 ) ) ;
#896 = LINE ( 'NONE', #243, #188 ) ;
#897 = AXIS2_PLACEMENT_3D ( 'NONE', #1364, #953, #1377 ) ;
#898 = CARTESIAN_POINT ( 'NONE',  ( 4.659442521218196459E-16, 0.000000000000000000, 45.14999999999997016 ) ) ;
#899 = EDGE_LOOP ( 'NONE', ( #1110, #1169, #272, #445, #1342, #995, #291, #724, #873, #57, #448, #388, #184, #707, #963, #521, #328, #1180 ) ) ;
#900 = ORIENTED_EDGE ( 'NONE', *, *, #431, .T. ) ;
#901 = DIRECTION ( 'NONE',  ( 0.000000000000000000, 1.000000000000000000, 0.000000000000000000 ) ) ;
#902 = CYLINDRICAL_SURFACE ( 'NONE', #852, 39.70000000000000284 ) ;
#903 = EDGE_CURVE ( 'NONE', #1327, #163, #681, .T. ) ;
#904 = ORIENTED_EDGE ( 'NONE', *, *, #393, .F. ) ;
#905 = ORIENTED_EDGE ( 'NONE', *, *, #891, .T. ) ;
#906 = FACE_OUTER_BOUND ( 'NONE', #968, .T. ) ;
#907 = AXIS2_PLACEMENT_3D ( 'NONE', #1237, #934, #182 ) ;
#908 = EDGE_CURVE ( 'NONE', #593, #319, #478, .T. ) ;
#909 = DIRECTION ( 'NONE',  ( 1.000000000000000000, 0.000000000000000000, 0.000000000000000000 ) ) ;
#910 = EDGE_LOOP ( 'NONE', ( #940, #1133, #153, #1245 ) ) ;
#911 = VECTOR ( 'NONE', #1193, 1000.000000000000000 ) ;
#912 = ORIENTED_EDGE ( 'NONE', *, *, #420, .F. ) ;
#913 = LINE ( 'NONE', #1343, #395 ) ;
#914 = ADVANCED_FACE ( 'NONE', ( #154 ), #1104, .T. ) ;
#915 = CARTESIAN_POINT ( 'NONE',  ( -38.50000000000000000, -0.4000000000000000222, 43.84999999999996589 ) ) ;
#916 = AXIS2_PLACEMENT_3D ( 'NONE', #422, #1369, #1246 ) ;
#917 = VECTOR ( 'NONE', #1135, 1000.000000000000000 ) ;
#918 = ORIENTED_EDGE ( 'NONE', *, *, #241, .T. ) ;
#919 = ORIENTED_EDGE ( 'NONE', *, *, #579, .F. ) ;
#920 = LINE ( 'NONE', #1356, #1289 ) ;
#921 = DIRECTION ( 'NONE',  ( -0.000000000000000000, 1.000000000000000000, -0.000000000000000000 ) ) ;
#922 = EDGE_CURVE ( 'NONE', #718, #620, #1009, .T. ) ;
#923 = EDGE_CURVE ( 'NONE', #1281, #511, #1328, .T. ) ;
#924 = EDGE_CURVE ( 'NONE', #451, #684, #884, .T. ) ;
#925 = ORIENTED_EDGE ( 'NONE', *, *, #1275, .F. ) ;
#926 = VERTEX_POINT ( 'NONE', #471 ) ;
#927 = CARTESIAN_POINT ( 'NONE',  ( -47.99999999999999289, 1.699999999999999956, 47.74999999999998579 ) ) ;
#928 = CARTESIAN_POINT ( 'NONE',  ( 1.150000000000000799, 1.699999999999999956, 47.74999999999998579 ) ) ;
#929 = VECTOR ( 'NONE', #411, 1000.000000000000000 ) ;
#930 = ORIENTED_EDGE ( 'NONE', *, *, #571, .F. ) ;
#931 = DIRECTION ( 'NONE',  ( -0.000000000000000000, 1.000000000000000000, -0.000000000000000000 ) ) ;
#932 = ORIENTED_EDGE ( 'NONE', *, *, #570, .T. ) ;
#933 = AXIS2_PLACEMENT_3D ( 'NONE', #1200, #371, #352 ) ;
#934 = DIRECTION ( 'NONE',  ( -0.000000000000000000, 1.000000000000000000, -0.000000000000000000 ) ) ;
#935 = DIRECTION ( 'NONE',  ( -0.000000000000000000, 1.000000000000000000, -0.000000000000000000 ) ) ;
#936 = CLOSED_SHELL ( 'NONE', ( #914, #372, #407, #735, #713, #863, #824, #959, #22, #822, #508, #218, #888, #139, #680, #94, #323, #1203, #694, #43, #1147, #1107, #70, #533, #1309, #1027, #1074, #1130, #645, #214, #176, #668, #942, #1282, #659, #68, #1374, #966, #678, #321, #1259, #387, #996, #1211 ) ) ;
#937 = EDGE_LOOP ( 'NONE', ( #1124, #1152, #1072, #399 ) ) ;
#938 = VECTOR ( 'NONE', #935, 1000.000000000000000 ) ;
#939 = DIRECTION ( 'NONE',  ( -1.000000000000000000, 0.000000000000000000, -0.000000000000000000 ) ) ;
#940 = ORIENTED_EDGE ( 'NONE', *, *, #570, .F. ) ;
#941 = VERTEX_POINT ( 'NONE', #665 ) ;
#942 = ADVANCED_FACE ( 'NONE', ( #160 ), #1091, .T. ) ;
#943 = DIRECTION ( 'NONE',  ( 0.000000000000000000, 0.000000000000000000, -1.000000000000000000 ) ) ;
#944 = DIRECTION ( 'NONE',  ( 0.000000000000000000, -1.000000000000000000, 0.000000000000000000 ) ) ;
#945 = LINE ( 'NONE', #728, #819 ) ;
#946 = ORIENTED_EDGE ( 'NONE', *, *, #156, .F. ) ;
#947 = ORIENTED_EDGE ( 'NONE', *, *, #885, .T. ) ;
#948 = DIRECTION ( 'NONE',  ( 0.000000000000000000, 0.000000000000000000, -1.000000000000000000 ) ) ;
#949 = DIRECTION ( 'NONE',  ( 0.000000000000000000, -1.000000000000000000, 0.000000000000000000 ) ) ;
#950 = CARTESIAN_POINT ( 'NONE',  ( -39.79999999999999716, 0.000000000000000000, 46.24999999999998579 ) ) ;
#951 = VECTOR ( 'NONE', #421, 1000.000000000000000 ) ;
#952 = CARTESIAN_POINT ( 'NONE',  ( -39.79999999999999716, 1.699999999999999956, 46.24999999999998579 ) ) ;
#953 = DIRECTION ( 'NONE',  ( 0.000000000000000000, -1.000000000000000000, 0.000000000000000000 ) ) ;
#954 = ORIENTED_EDGE ( 'NONE', *, *, #796, .T. ) ;
#955 = CARTESIAN_POINT ( 'NONE',  ( 29.10000000000000142, 0.000000000000000000, 46.24999999999998579 ) ) ;
#956 = CARTESIAN_POINT ( 'NONE',  ( 42.50000000000000000, 1.699999999999999956, 47.74999999999998579 ) ) ;
#957 = PLANE ( 'NONE',  #801 ) ;
#958 = ORIENTED_EDGE ( 'NONE', *, *, #712, .F. ) ;
#959 = ADVANCED_FACE ( 'NONE', ( #141 ), #1098, .F. ) ;
#960 = CARTESIAN_POINT ( 'NONE',  ( 4.861847792614992955E-15, -1.000000000000000000, -39.70000000000000284 ) ) ;
#961 = EDGE_CURVE ( 'NONE', #1330, #231, #446, .T. ) ;
#962 = ORIENTED_EDGE ( 'NONE', *, *, #1320, .T. ) ;
#963 = ORIENTED_EDGE ( 'NONE', *, *, #516, .T. ) ;
#964 = EDGE_CURVE ( 'NONE', #1163, #187, #148, .T. ) ;
#965 = CARTESIAN_POINT ( 'NONE',  ( -38.50000000000000000, 0.000000000000000000, 45.14999999999997726 ) ) ;
#966 = ADVANCED_FACE ( 'NONE', ( #347 ), #131, .F. ) ;
#967 = DIRECTION ( 'NONE',  ( -1.000000000000000000, -0.000000000000000000, -0.000000000000000000 ) ) ;
#968 = EDGE_LOOP ( 'NONE', ( #363, #497, #643, #1006 ) ) ;
#969 = CC_DESIGN_PERSON_AND_ORGANIZATION_ASSIGNMENT ( #460, #1311, ( #828 ) ) ;
#970 = DIRECTION ( 'NONE',  ( 0.000000000000000000, 0.000000000000000000, -1.000000000000000000 ) ) ;
#971 = DIRECTION ( 'NONE',  ( 0.000000000000000000, 0.000000000000000000, -1.000000000000000000 ) ) ;
#972 = ORIENTED_EDGE ( 'NONE', *, *, #1261, .T. ) ;
#973 = CARTESIAN_POINT ( 'NONE',  ( 5.339460044282460190E-15, -1.000000000000000000, -43.60000000000000142 ) ) ;
#974 = PLANE ( 'NONE',  #983 ) ;
#975 = VERTEX_POINT ( 'NONE', #358 ) ;
#976 = PERSON_AND_ORGANIZATION ( #613, #1301 ) ;
#977 = CARTESIAN_POINT ( 'NONE',  ( 0.000000000000000000, -1.000000000000000000, 43.60000000000000142 ) ) ;
#978 = ORIENTED_EDGE ( 'NONE', *, *, #320, .T. ) ;
#979 = AXIS2_PLACEMENT_3D ( 'NONE', #274, #1231, #803 ) ;
#980 = DIRECTION ( 'NONE',  ( 0.000000000000000000, -0.000000000000000000, -1.000000000000000000 ) ) ;
#981 = LINE ( 'NONE', #459, #1334 ) ;
#982 = ORIENTED_EDGE ( 'NONE', *, *, #169, .T. ) ;
#983 = AXIS2_PLACEMENT_3D ( 'NONE', #96, #13, #1186 ) ;
#984 = COORDINATED_UNIVERSAL_TIME_OFFSET ( 8, 0, .AHEAD. ) ;
#985 = CARTESIAN_POINT ( 'NONE',  ( -38.50000000000000000, -0.4000000000000000222, 43.84999999999996589 ) ) ;
#986 = VERTEX_POINT ( 'NONE', #998 ) ;
#987 = VECTOR ( 'NONE', #931, 1000.000000000000000 ) ;
#988 = CIRCLE ( 'NONE', #1339, 41.64999999999999858 ) ;
#989 = DIRECTION ( 'NONE',  ( -0.000000000000000000, 1.000000000000000000, -0.000000000000000000 ) ) ;
#990 = DIRECTION ( 'NONE',  ( -1.000000000000000000, 0.000000000000000000, -0.000000000000000000 ) ) ;
#991 = EDGE_CURVE ( 'NONE', #1335, #1025, #1324, .T. ) ;
#992 = VECTOR ( 'NONE', #519, 1000.000000000000000 ) ;
#993 =( NAMED_UNIT ( * ) SI_UNIT ( $, .STERADIAN. ) SOLID_ANGLE_UNIT ( ) );
#994 = CARTESIAN_POINT ( 'NONE',  ( -47.99999999999999289, 0.3807692307692332467, 46.24999999999998579 ) ) ;
#995 = ORIENTED_EDGE ( 'NONE', *, *, #814, .F. ) ;
#996 = ADVANCED_FACE ( 'NONE', ( #568 ), #49, .T. ) ;
#997 = CARTESIAN_POINT ( 'NONE',  ( -47.99999999999999289, 1.699999999999999956, 47.74999999999998579 ) ) ;
#998 = CARTESIAN_POINT ( 'NONE',  ( 0.000000000000000000, 0.000000000000000000, -44.84999999999999432 ) ) ;
#999 = CARTESIAN_POINT ( 'NONE',  ( 30.39999999999998792, 0.000000000000000000, 45.14999999999997016 ) ) ;
#1000 = CARTESIAN_POINT ( 'NONE',  ( -30.39999999999998792, -0.4000000000000000222, 45.14999999999997726 ) ) ;
#1001 = AXIS2_PLACEMENT_3D ( 'NONE', #600, #295, #81 ) ;
#1002 = CARTESIAN_POINT ( 'NONE',  ( 0.000000000000000000, -1.000000000000000000, 0.000000000000000000 ) ) ;
#1003 = CARTESIAN_POINT ( 'NONE',  ( -42.50000000000000000, 0.000000000000000000, 47.74999999999998579 ) ) ;
#1004 = CARTESIAN_POINT ( 'NONE',  ( -47.99999999999999289, 1.699999999999999956, -50.85000000000000853 ) ) ;
#1005 = APPROVAL_DATE_TIME ( #770, #227 ) ;
#1006 = ORIENTED_EDGE ( 'NONE', *, *, #617, .T. ) ;
#1007 = MANIFOLD_SOLID_BREP ( '͹̨-����8', #936 ) ;
#1008 = ORIENTED_EDGE ( 'NONE', *, *, #815, .T. ) ;
#1009 = LINE ( 'NONE', #251, #1115 ) ;
#1010 = AXIS2_PLACEMENT_3D ( 'NONE', #135, #1082, #776 ) ;
#1011 = EDGE_CURVE ( 'NONE', #99, #136, #779, .T. ) ;
#1012 = LINE ( 'NONE', #1004, #1158 ) ;
#1013 = AXIS2_PLACEMENT_3D ( 'NONE', #1368, #299, #192 ) ;
#1014 = ORIENTED_EDGE ( 'NONE', *, *, #885, .F. ) ;
#1015 = EDGE_LOOP ( 'NONE', ( #800, #1241, #978, #1077 ) ) ;
#1016 = EDGE_CURVE ( 'NONE', #212, #730, #896, .T. ) ;
#1017 = DIRECTION ( 'NONE',  ( -0.000000000000000000, 1.000000000000000000, -0.000000000000000000 ) ) ;
#1018 = PLANE ( 'NONE',  #805 ) ;
#1019 = ORIENTED_EDGE ( 'NONE', *, *, #612, .T. ) ;
#1020 = ORIENTED_EDGE ( 'NONE', *, *, #368, .F. ) ;
#1021 = FACE_OUTER_BOUND ( 'NONE', #384, .T. ) ;
#1022 = DIRECTION ( 'NONE',  ( -0.5010362705417040763, 0.000000000000000000, 0.8654262854811265449 ) ) ;
#1023 = VECTOR ( 'NONE', #1323, 1000.000000000000000 ) ;
#1024 = ORIENTED_EDGE ( 'NONE', *, *, #430, .F. ) ;
#1025 = VERTEX_POINT ( 'NONE', #686 ) ;
#1026 = CARTESIAN_POINT ( 'NONE',  ( -42.50000000000000000, 0.000000000000000000, 47.74999999999998579 ) ) ;
#1027 = ADVANCED_FACE ( 'NONE', ( #1112 ), #584, .F. ) ;
#1028 = DIRECTION ( 'NONE',  ( -0.000000000000000000, 1.000000000000000000, -0.000000000000000000 ) ) ;
#1029 = AXIS2_PLACEMENT_3D ( 'NONE', #1079, #949, #860 ) ;
#1030 = VERTEX_POINT ( 'NONE', #1257 ) ;
#1031 = ORIENTED_EDGE ( 'NONE', *, *, #468, .T. ) ;
#1032 = EDGE_CURVE ( 'NONE', #1352, #487, #64, .T. ) ;
#1033 = PLANE ( 'NONE',  #1001 ) ;
#1034 = DIRECTION ( 'NONE',  ( 0.000000000000000000, 0.000000000000000000, -1.000000000000000000 ) ) ;
#1035 = VERTEX_POINT ( 'NONE', #605 ) ;
#1036 = PLANE ( 'NONE',  #916 ) ;
#1037 = ORIENTED_EDGE ( 'NONE', *, *, #1126, .T. ) ;
#1038 = DIRECTION ( 'NONE',  ( 1.000000000000000000, 0.000000000000000000, -3.016113955986557232E-16 ) ) ;
#1039 = CARTESIAN_POINT ( 'NONE',  ( 4.659442521218196459E-16, 0.000000000000000000, 45.14999999999997016 ) ) ;
#1040 = VECTOR ( 'NONE', #967, 1000.000000000000000 ) ;
#1041 = AXIS2_PLACEMENT_3D ( 'NONE', #692, #1118, #1316 ) ;
#1042 = EDGE_CURVE ( 'NONE', #536, #1163, #403, .T. ) ;
#1043 = VERTEX_POINT ( 'NONE', #397 ) ;
#1044 = CARTESIAN_POINT ( 'NONE',  ( 5.339460044282460190E-15, -1.000000000000000000, -43.60000000000000142 ) ) ;
#1045 = CARTESIAN_POINT ( 'NONE',  ( -47.99999999999999289, 0.3807692307692332467, 46.24999999999998579 ) ) ;
#1046 = EDGE_LOOP ( 'NONE', ( #1240, #269, #477, #1059 ) ) ;
#1047 = LINE ( 'NONE', #955, #929 ) ;
#1048 = CARTESIAN_POINT ( 'NONE',  ( -29.10000000000000142, 1.699999999999999956, 47.74999999999998579 ) ) ;
#1049 = VECTOR ( 'NONE', #225, 1000.000000000000000 ) ;
#1050 = CIRCLE ( 'NONE', #453, 0.6500000000000047962 ) ;
#1051 = CARTESIAN_POINT ( 'NONE',  ( 47.99999999999999289, 0.000000000000000000, 38.24999999999998579 ) ) ;
#1052 = SECURITY_CLASSIFICATION ( '', '', #1194 ) ;
#1053 = PLANE ( 'NONE',  #425 ) ;
#1054 = ORIENTED_EDGE ( 'NONE', *, *, #1313, .T. ) ;
#1055 = DIRECTION ( 'NONE',  ( -1.000000000000000000, 0.000000000000000000, -0.000000000000000000 ) ) ;
#1056 = DIRECTION ( 'NONE',  ( -0.000000000000000000, -0.000000000000000000, 1.000000000000000000 ) ) ;
#1057 = FACE_BOUND ( 'NONE', #482, .T. ) ;
#1058 = DIRECTION ( 'NONE',  ( 0.000000000000000000, 0.000000000000000000, -1.000000000000000000 ) ) ;
#1059 = ORIENTED_EDGE ( 'NONE', *, *, #594, .F. ) ;
#1060 = EDGE_CURVE ( 'NONE', #608, #1030, #825, .T. ) ;
#1061 = CARTESIAN_POINT ( 'NONE',  ( 29.10000000000000142, 0.000000000000000000, 47.74999999999998579 ) ) ;
#1062 = DIRECTION ( 'NONE',  ( 0.000000000000000000, -1.000000000000000000, 0.000000000000000000 ) ) ;
#1063 = CARTESIAN_POINT ( 'NONE',  ( 48.00000000000000711, 0.8999999999999980238, 47.74999999999998579 ) ) ;
#1064 = EDGE_CURVE ( 'NONE', #174, #6, #920, .T. ) ;
#1065 = EDGE_CURVE ( 'NONE', #941, #62, #353, .T. ) ;
#1066 = VECTOR ( 'NONE', #100, 1000.000000000000227 ) ;
#1067 = FACE_OUTER_BOUND ( 'NONE', #159, .T. ) ;
#1068 = FACE_OUTER_BOUND ( 'NONE', #19, .T. ) ;
#1069 = ORIENTED_EDGE ( 'NONE', *, *, #891, .F. ) ;
#1070 = FACE_OUTER_BOUND ( 'NONE', #813, .T. ) ;
#1071 = DIRECTION ( 'NONE',  ( 0.000000000000000000, 0.000000000000000000, -1.000000000000000000 ) ) ;
#1072 = ORIENTED_EDGE ( 'NONE', *, *, #1111, .F. ) ;
#1073 = EDGE_CURVE ( 'NONE', #487, #2, #288, .T. ) ;
#1074 = ADVANCED_FACE ( 'NONE', ( #1021 ), #1033, .F. ) ;
#1075 = CARTESIAN_POINT ( 'NONE',  ( -30.39999999999998792, -0.4000000000000000222, 43.84999999999996589 ) ) ;
#1076 = PLANE ( 'NONE',  #673 ) ;
#1077 = ORIENTED_EDGE ( 'NONE', *, *, #923, .T. ) ;
#1078 = VECTOR ( 'NONE', #447, 1000.000000000000000 ) ;
#1079 = CARTESIAN_POINT ( 'NONE',  ( 0.000000000000000000, -1.000000000000000000, 0.000000000000000000 ) ) ;
#1080 = CYLINDRICAL_SURFACE ( 'NONE', #607, 2.000000000000001776 ) ;
#1081 = ORIENTED_EDGE ( 'NONE', *, *, #1042, .F. ) ;
#1082 = DIRECTION ( 'NONE',  ( 0.000000000000000000, -1.000000000000000000, 0.000000000000000000 ) ) ;
#1083 = ORIENTED_EDGE ( 'NONE', *, *, #261, .F. ) ;
#1084 = DIRECTION ( 'NONE',  ( 0.000000000000000000, -1.000000000000000000, 0.000000000000000000 ) ) ;
#1085 = PLANE ( 'NONE',  #1154 ) ;
#1086 = EDGE_LOOP ( 'NONE', ( #46, #504, #691, #540 ) ) ;
#1087 = LINE ( 'NONE', #144, #1049 ) ;
#1088 = VERTEX_POINT ( 'NONE', #505 ) ;
#1089 = CIRCLE ( 'NONE', #1310, 2.000000000000001776 ) ;
#1090 = DIRECTION ( 'NONE',  ( 0.000000000000000000, -1.000000000000000000, 0.000000000000000000 ) ) ;
#1091 = CYLINDRICAL_SURFACE ( 'NONE', #506, 2.000000000000001776 ) ;
#1092 = PERSON_AND_ORGANIZATION_ROLE ( 'classification_officer' ) ;
#1093 = PLANE ( 'NONE',  #1250 ) ;
#1094 = EDGE_LOOP ( 'NONE', ( #753, #87, #273, #583 ) ) ;
#1095 = CIRCLE ( 'NONE', #1010, 43.60000000000000142 ) ;
#1096 = AXIS2_PLACEMENT_3D ( 'NONE', #228, #1286, #1381 ) ;
#1097 = PLANE ( 'NONE',  #844 ) ;
#1098 = PLANE ( 'NONE',  #1292 ) ;
#1099 = LOCAL_TIME ( 22, 32, 14.00000000000000000, #455 ) ;
#1100 = CARTESIAN_POINT ( 'NONE',  ( 48.00000000000000711, 1.699999999999999956, 47.74999999999998579 ) ) ;
#1101 = PERSON_AND_ORGANIZATION ( #613, #1301 ) ;
#1102 = CARTESIAN_POINT ( 'NONE',  ( 42.50000000000000000, 1.699999999999999956, 47.74999999999998579 ) ) ;
#1103 = FACE_OUTER_BOUND ( 'NONE', #394, .T. ) ;
#1104 = CYLINDRICAL_SURFACE ( 'NONE', #933, 41.64999999999999858 ) ;
#1105 = DIRECTION ( 'NONE',  ( 4.750309473860171199E-17, -0.3271105638831634521, -0.9449860734402589779 ) ) ;
#1106 = CALENDAR_DATE ( 2026, 14, 9 ) ;
#1107 = ADVANCED_FACE ( 'NONE', ( #831 ), #483, .F. ) ;
#1108 = ORIENTED_EDGE ( 'NONE', *, *, #516, .F. ) ;
#1109 = VECTOR ( 'NONE', #195, 1000.000000000000000 ) ;
#1110 = ORIENTED_EDGE ( 'NONE', *, *, #1111, .T. ) ;
#1111 = EDGE_CURVE ( 'NONE', #319, #369, #1348, .T. ) ;
#1112 = FACE_OUTER_BOUND ( 'NONE', #1362, .T. ) ;
#1113 = FACE_OUTER_BOUND ( 'NONE', #239, .T. ) ;
#1114 = CC_DESIGN_DATE_AND_TIME_ASSIGNMENT ( #880, #667, ( #1052 ) ) ;
#1115 = VECTOR ( 'NONE', #236, 1000.000000000000000 ) ;
#1116 = EDGE_LOOP ( 'NONE', ( #685, #689, #808, #1069 ) ) ;
#1117 = EDGE_LOOP ( 'NONE', ( #1019, #932 ) ) ;
#1118 = DIRECTION ( 'NONE',  ( 0.000000000000000000, -1.000000000000000000, 0.000000000000000000 ) ) ;
#1119 = VECTOR ( 'NONE', #921, 1000.000000000000000 ) ;
#1120 = CARTESIAN_POINT ( 'NONE',  ( 29.10000000000000142, 1.699999999999999956, 47.74999999999998579 ) ) ;
#1121 = ORIENTED_EDGE ( 'NONE', *, *, #579, .T. ) ;
#1122 = ORIENTED_EDGE ( 'NONE', *, *, #1210, .T. ) ;
#1123 = CYLINDRICAL_SURFACE ( 'NONE', #907, 0.6500000000000047962 ) ;
#1124 = ORIENTED_EDGE ( 'NONE', *, *, #284, .T. ) ;
#1125 = ORIENTED_EDGE ( 'NONE', *, *, #1379, .T. ) ;
#1126 = EDGE_CURVE ( 'NONE', #231, #1088, #709, .T. ) ;
#1127 = VECTOR ( 'NONE', #85, 1000.000000000000000 ) ;
#1128 = LINE ( 'NONE', #270, #528 ) ;
#1129 = CARTESIAN_POINT ( 'NONE',  ( 0.000000000000000000, -2.750000000000000000, 0.000000000000000000 ) ) ;
#1130 = ADVANCED_FACE ( 'NONE', ( #906 ), #1123, .T. ) ;
#1131 = VERTEX_POINT ( 'NONE', #704 ) ;
#1132 = EDGE_CURVE ( 'NONE', #493, #451, #1128, .T. ) ;
#1133 = ORIENTED_EDGE ( 'NONE', *, *, #1314, .T. ) ;
#1134 = DIRECTION ( 'NONE',  ( -0.000000000000000000, 1.000000000000000000, -0.000000000000000000 ) ) ;
#1135 = DIRECTION ( 'NONE',  ( 1.000000000000000000, -0.000000000000000000, -0.000000000000000000 ) ) ;
#1136 = VECTOR ( 'NONE', #10, 1000.000000000000000 ) ;
#1137 = ORIENTED_EDGE ( 'NONE', *, *, #961, .T. ) ;
#1138 = CARTESIAN_POINT ( 'NONE',  ( -29.10000000000000142, 0.000000000000000000, 47.74999999999998579 ) ) ;
#1139 = EDGE_LOOP ( 'NONE', ( #164, #1278, #760, #982 ) ) ;
#1140 = CARTESIAN_POINT ( 'NONE',  ( -1.149999999999999467, 0.000000000000000000, 46.29999999999996874 ) ) ;
#1141 = DIRECTION ( 'NONE',  ( 1.000000000000000000, 0.000000000000000000, 0.000000000000000000 ) ) ;
#1142 = EDGE_LOOP ( 'NONE', ( #655, #1008, #485, #1247 ) ) ;
#1143 = CARTESIAN_POINT ( 'NONE',  ( -39.79999999999999716, 0.8999999999999980238, 47.74999999999998579 ) ) ;
#1144 = DIRECTION ( 'NONE',  ( 1.000000000000000000, 0.000000000000000000, 0.000000000000000000 ) ) ;
#1145 = VERTEX_POINT ( 'NONE', #725 ) ;
#1146 = PLANE ( 'NONE',  #1242 ) ;
#1147 = ADVANCED_FACE ( 'NONE', ( #611 ), #1146, .F. ) ;
#1148 = PLANE ( 'NONE',  #562 ) ;
#1149 = VECTOR ( 'NONE', #495, 1000.000000000000000 ) ;
#1150 = EDGE_CURVE ( 'NONE', #231, #1043, #165, .T. ) ;
#1151 = LINE ( 'NONE', #201, #224 ) ;
#1152 = ORIENTED_EDGE ( 'NONE', *, *, #712, .T. ) ;
#1153 = ORIENTED_EDGE ( 'NONE', *, *, #115, .T. ) ;
#1154 = AXIS2_PLACEMENT_3D ( 'NONE', #324, #123, #553 ) ;
#1155 = DIRECTION ( 'NONE',  ( -5.026856593310928720E-17, 0.000000000000000000, 1.000000000000000000 ) ) ;
#1156 = CARTESIAN_POINT ( 'NONE',  ( -38.50000000000000000, -0.4000000000000000222, 45.14999999999997726 ) ) ;
#1157 = DIRECTION ( 'NONE',  ( -0.000000000000000000, 1.000000000000000000, -0.000000000000000000 ) ) ;
#1158 = VECTOR ( 'NONE', #60, 1000.000000000000000 ) ;
#1159 = AXIS2_PLACEMENT_3D ( 'NONE', #235, #1090, #742 ) ;
#1160 = DIRECTION ( 'NONE',  ( 0.000000000000000000, 0.000000000000000000, 1.000000000000000000 ) ) ;
#1161 = VECTOR ( 'NONE', #649, 1000.000000000000227 ) ;
#1162 = CARTESIAN_POINT ( 'NONE',  ( -38.50000000000000000, -0.4000000000000000222, 43.84999999999996589 ) ) ;
#1163 = VERTEX_POINT ( 'NONE', #488 ) ;
#1164 = CARTESIAN_POINT ( 'NONE',  ( 39.79999999999999716, 0.8999999999999980238, 47.74999999999998579 ) ) ;
#1165 = CARTESIAN_POINT ( 'NONE',  ( 0.000000000000000000, -2.750000000000000000, 0.000000000000000000 ) ) ;
#1166 = CARTESIAN_POINT ( 'NONE',  ( 0.000000000000000000, -0.4000000000000000222, -46.84999999999999432 ) ) ;
#1167 = DIRECTION ( 'NONE',  ( -0.000000000000000000, 1.000000000000000000, -0.000000000000000000 ) ) ;
#1168 = DIRECTION ( 'NONE',  ( 1.000000000000000000, 0.000000000000000000, 0.000000000000000000 ) ) ;
#1169 = ORIENTED_EDGE ( 'NONE', *, *, #65, .F. ) ;
#1170 = EDGE_CURVE ( 'NONE', #1228, #434, #913, .T. ) ;
#1171 = EDGE_CURVE ( 'NONE', #829, #1319, #616, .T. ) ;
#1172 = LINE ( 'NONE', #638, #781 ) ;
#1173 = CARTESIAN_POINT ( 'NONE',  ( 0.000000000000000000, 0.000000000000000000, -46.84999999999999432 ) ) ;
#1174 = ORIENTED_EDGE ( 'NONE', *, *, #52, .F. ) ;
#1175 = LINE ( 'NONE', #541, #15 ) ;
#1176 = DIRECTION ( 'NONE',  ( -0.000000000000000000, 1.000000000000000000, -0.000000000000000000 ) ) ;
#1177 = ORIENTED_EDGE ( 'NONE', *, *, #1293, .F. ) ;
#1178 = DIRECTION ( 'NONE',  ( -0.000000000000000000, 1.000000000000000000, -0.000000000000000000 ) ) ;
#1179 = CARTESIAN_POINT ( 'NONE',  ( -29.10000000000000142, 1.699999999999999956, 47.74999999999998579 ) ) ;
#1180 = ORIENTED_EDGE ( 'NONE', *, *, #908, .T. ) ;
#1181 = SHAPE_DEFINITION_REPRESENTATION ( #1213, #229 ) ;
#1182 = FACE_OUTER_BOUND ( 'NONE', #333, .T. ) ;
#1183 = ORIENTED_EDGE ( 'NONE', *, *, #71, .T. ) ;
#1184 =( GEOMETRIC_REPRESENTATION_CONTEXT ( 3 ) GLOBAL_UNCERTAINTY_ASSIGNED_CONTEXT ( ( #833 ) ) GLOBAL_UNIT_ASSIGNED_CONTEXT ( ( #414, #1318, #993 ) ) REPRESENTATION_CONTEXT ( 'NONE', 'WORKASPACE' ) );
#1185 = DIRECTION ( 'NONE',  ( 0.000000000000000000, 0.000000000000000000, 1.000000000000000000 ) ) ;
#1186 = DIRECTION ( 'NONE',  ( 0.000000000000000000, -0.000000000000000000, -1.000000000000000000 ) ) ;
#1187 = ORIENTED_EDGE ( 'NONE', *, *, #171, .F. ) ;
#1188 = EDGE_CURVE ( 'NONE', #1030, #738, #417, .T. ) ;
#1189 = PERSON_AND_ORGANIZATION ( #613, #1301 ) ;
#1190 = DIRECTION ( 'NONE',  ( 0.000000000000000000, 0.000000000000000000, -1.000000000000000000 ) ) ;
#1191 = ORIENTED_EDGE ( 'NONE', *, *, #710, .T. ) ;
#1192 = CARTESIAN_POINT ( 'NONE',  ( 30.39999999999998792, -0.4000000000000000222, 45.14999999999997726 ) ) ;
#1193 = DIRECTION ( 'NONE',  ( -1.000000000000000000, -0.000000000000000000, -0.000000000000000000 ) ) ;
#1194 = SECURITY_CLASSIFICATION_LEVEL ( 'unclassified' ) ;
#1195 = CARTESIAN_POINT ( 'NONE',  ( 30.39999999999998792, -0.4000000000000000222, 44.49999999999997158 ) ) ;
#1196 = ORIENTED_EDGE ( 'NONE', *, *, #1132, .T. ) ;
#1197 = PRODUCT ( 'Linhof_Lensboard_blank', 'Linhof_Lensboard_blank', '', ( #17 ) ) ;
#1198 = AXIS2_PLACEMENT_3D ( 'NONE', #764, #1084, #980 ) ;
#1199 = LINE ( 'NONE', #778, #1023 ) ;
#1200 = CARTESIAN_POINT ( 'NONE',  ( 0.000000000000000000, -2.750000000000000000, 0.000000000000000000 ) ) ;
#1201 = DIRECTION ( 'NONE',  ( -0.8654262854811265449, 0.000000000000000000, -0.5010362705417040763 ) ) ;
#1202 = CALENDAR_DATE ( 2026, 14, 9 ) ;
#1203 = ADVANCED_FACE ( 'NONE', ( #204 ), #529, .F. ) ;
#1204 = DIRECTION ( 'NONE',  ( 0.000000000000000000, 0.000000000000000000, 1.000000000000000000 ) ) ;
#1205 = AXIS2_PLACEMENT_3D ( 'NONE', #248, #1204, #26 ) ;
#1206 = VECTOR ( 'NONE', #304, 1000.000000000000000 ) ;
#1207 = EDGE_CURVE ( 'NONE', #136, #684, #1047, .T. ) ;
#1208 = CARTESIAN_POINT ( 'NONE',  ( 29.10000000000000142, 1.699999999999999956, 46.24999999999998579 ) ) ;
#1209 = CARTESIAN_POINT ( 'NONE',  ( 29.10000000000000853, 0.8999999999999980238, 47.74999999999998579 ) ) ;
#1210 = EDGE_CURVE ( 'NONE', #194, #926, #853, .T. ) ;
#1211 = ADVANCED_FACE ( 'NONE', ( #637 ), #424, .T. ) ;
#1212 = LINE ( 'NONE', #1233, #652 ) ;
#1213 = PRODUCT_DEFINITION_SHAPE ( 'NONE', 'NONE',  #621 ) ;
#1214 = VECTOR ( 'NONE', #351, 1000.000000000000000 ) ;
#1215 = EDGE_CURVE ( 'NONE', #599, #212, #168, .T. ) ;
#1216 = ORIENTED_EDGE ( 'NONE', *, *, #1170, .T. ) ;
#1217 = ORIENTED_EDGE ( 'NONE', *, *, #817, .F. ) ;
#1218 = EDGE_CURVE ( 'NONE', #493, #501, #741, .T. ) ;
#1219 = DIRECTION ( 'NONE',  ( -0.000000000000000000, 1.000000000000000000, -0.000000000000000000 ) ) ;
#1220 = LINE ( 'NONE', #591, #47 ) ;
#1221 = ORIENTED_EDGE ( 'NONE', *, *, #594, .T. ) ;
#1222 = CIRCLE ( 'NONE', #191, 2.000000000000001776 ) ;
#1223 = VECTOR ( 'NONE', #58, 1000.000000000000000 ) ;
#1224 = EDGE_LOOP ( 'NONE', ( #512, #1081, #423, #946, #747, #157, #904, #823, #1174, #370, #77 ) ) ;
#1225 = DIRECTION ( 'NONE',  ( 0.000000000000000000, 0.000000000000000000, 1.000000000000000000 ) ) ;
#1226 = DIRECTION ( 'NONE',  ( 0.000000000000000000, -1.000000000000000000, 0.000000000000000000 ) ) ;
#1227 = VECTOR ( 'NONE', #230, 1000.000000000000000 ) ;
#1228 = VERTEX_POINT ( 'NONE', #303 ) ;
#1229 = VERTEX_POINT ( 'NONE', #93 ) ;
#1230 = AXIS2_PLACEMENT_3D ( 'NONE', #578, #271, #701 ) ;
#1231 = DIRECTION ( 'NONE',  ( -1.000000000000000000, 0.000000000000000000, -5.026856593310928720E-17 ) ) ;
#1232 = CIRCLE ( 'NONE', #1159, 0.6500000000000047962 ) ;
#1233 = CARTESIAN_POINT ( 'NONE',  ( 39.79999999999999716, 1.699999999999999956, 47.74999999999998579 ) ) ;
#1234 = EDGE_CURVE ( 'NONE', #790, #986, #1089, .T. ) ;
#1235 = VERTEX_POINT ( 'NONE', #845 ) ;
#1236 = ORIENTED_EDGE ( 'NONE', *, *, #71, .F. ) ;
#1237 = CARTESIAN_POINT ( 'NONE',  ( 38.50000000000000000, -0.4000000000000000222, 44.49999999999997158 ) ) ;
#1238 = EDGE_CURVE ( 'NONE', #1330, #715, #1270, .T. ) ;
#1239 = CARTESIAN_POINT ( 'NONE',  ( 29.10000000000000142, 0.000000000000000000, 47.74999999999998579 ) ) ;
#1240 = ORIENTED_EDGE ( 'NONE', *, *, #1171, .F. ) ;
#1241 = ORIENTED_EDGE ( 'NONE', *, *, #1351, .T. ) ;
#1242 = AXIS2_PLACEMENT_3D ( 'NONE', #189, #1038, #700 ) ;
#1243 = DIRECTION ( 'NONE',  ( 0.000000000000000000, -1.000000000000000000, 0.000000000000000000 ) ) ;
#1244 = CARTESIAN_POINT ( 'NONE',  ( 39.79999999999999716, 0.8999999999999980238, 47.74999999999998579 ) ) ;
#1245 = ORIENTED_EDGE ( 'NONE', *, *, #716, .F. ) ;
#1246 = DIRECTION ( 'NONE',  ( -1.000000000000000000, 0.000000000000000000, -0.000000000000000000 ) ) ;
#1247 = ORIENTED_EDGE ( 'NONE', *, *, #1253, .F. ) ;
#1248 = DIRECTION ( 'NONE',  ( 1.000000000000000000, 0.000000000000000000, 0.000000000000000000 ) ) ;
#1249 = LINE ( 'NONE', #290, #66 ) ;
#1250 = AXIS2_PLACEMENT_3D ( 'NONE', #356, #783, #677 ) ;
#1251 = CC_DESIGN_APPROVAL ( #227, ( #828 ) ) ;
#1252 = ORIENTED_EDGE ( 'NONE', *, *, #1215, .T. ) ;
#1253 = EDGE_CURVE ( 'NONE', #1335, #2, #1254, .T. ) ;
#1254 = LINE ( 'NONE', #215, #687 ) ;
#1255 = CARTESIAN_POINT ( 'NONE',  ( 1.150000000000000355, 0.000000000000000000, 46.29999999999996874 ) ) ;
#1256 = ORIENTED_EDGE ( 'NONE', *, *, #36, .T. ) ;
#1257 = CARTESIAN_POINT ( 'NONE',  ( -1.149999999999999467, 1.699999999999999956, 46.29999999999996874 ) ) ;
#1258 = CARTESIAN_POINT ( 'NONE',  ( 39.79999999999999716, 0.000000000000000000, 47.74999999999998579 ) ) ;
#1259 = ADVANCED_FACE ( 'NONE', ( #841 ), #848, .F. ) ;
#1260 = EDGE_LOOP ( 'NONE', ( #610, #381, #588, #1378 ) ) ;
#1261 = EDGE_CURVE ( 'NONE', #27, #260, #510, .T. ) ;
#1262 = DIRECTION ( 'NONE',  ( 0.000000000000000000, -1.000000000000000000, 0.000000000000000000 ) ) ;
#1263 = FACE_OUTER_BOUND ( 'NONE', #1094, .T. ) ;
#1264 = EDGE_LOOP ( 'NONE', ( #827, #1355, #554, #56 ) ) ;
#1265 = CARTESIAN_POINT ( 'NONE',  ( 38.50000000000000000, -0.4000000000000000222, 45.14999999999997726 ) ) ;
#1266 = DIRECTION ( 'NONE',  ( 0.000000000000000000, -1.000000000000000000, 0.000000000000000000 ) ) ;
#1267 = CARTESIAN_POINT ( 'NONE',  ( 5.100653918448726178E-15, -2.750000000000000000, -41.64999999999999858 ) ) ;
#1268 = CARTESIAN_POINT ( 'NONE',  ( -39.79999999999999716, 1.699999999999999956, 47.74999999999998579 ) ) ;
#1269 = ORIENTED_EDGE ( 'NONE', *, *, #213, .F. ) ;
#1270 = LINE ( 'NONE', #1075, #887 ) ;
#1271 = LINE ( 'NONE', #1372, #629 ) ;
#1272 = LINE ( 'NONE', #339, #20 ) ;
#1273 = AXIS2_PLACEMENT_3D ( 'NONE', #1162, #723, #1144 ) ;
#1274 = AXIS2_PLACEMENT_3D ( 'NONE', #518, #944, #1034 ) ;
#1275 = EDGE_CURVE ( 'NONE', #941, #340, #111, .T. ) ;
#1276 = DIRECTION ( 'NONE',  ( -0.000000000000000000, 1.000000000000000000, -0.000000000000000000 ) ) ;
#1277 = LINE ( 'NONE', #1138, #987 ) ;
#1278 = ORIENTED_EDGE ( 'NONE', *, *, #573, .F. ) ;
#1279 = CARTESIAN_POINT ( 'NONE',  ( -1.149999999999998801, 0.3980769230769193312, 46.29999999999996874 ) ) ;
#1280 = DIRECTION ( 'NONE',  ( 0.000000000000000000, -0.9449860734402590889, 0.3271105638831635076 ) ) ;
#1281 = VERTEX_POINT ( 'NONE', #4 ) ;
#1282 = ADVANCED_FACE ( 'NONE', ( #292 ), #207, .T. ) ;
#1283 = LINE ( 'NONE', #326, #992 ) ;
#1284 = CARTESIAN_POINT ( 'NONE',  ( -47.99999999999999289, 0.000000000000000000, 45.14999999999997016 ) ) ;
#1285 = ORIENTED_EDGE ( 'NONE', *, *, #924, .T. ) ;
#1286 = DIRECTION ( 'NONE',  ( 0.000000000000000000, -1.000000000000000000, 0.000000000000000000 ) ) ;
#1287 = CARTESIAN_POINT ( 'NONE',  ( 2.449293598294706907E-16, -0.4000000000000000222, -48.84999999999999432 ) ) ;
#1288 = ORIENTED_EDGE ( 'NONE', *, *, #1150, .T. ) ;
#1289 = VECTOR ( 'NONE', #595, 1000.000000000000000 ) ;
#1290 = CARTESIAN_POINT ( 'NONE',  ( 29.10000000000000142, 0.3807692307692332467, 46.24999999999998579 ) ) ;
#1291 = ORIENTED_EDGE ( 'NONE', *, *, #769, .T. ) ;
#1292 = AXIS2_PLACEMENT_3D ( 'NONE', #576, #1308, #263 ) ;
#1293 = EDGE_CURVE ( 'NONE', #350, #1235, #1175, .T. ) ;
#1294 = FACE_OUTER_BOUND ( 'NONE', #1015, .T. ) ;
#1295 = DIRECTION ( 'NONE',  ( 0.000000000000000000, 0.000000000000000000, -1.000000000000000000 ) ) ;
#1296 = ORIENTED_EDGE ( 'NONE', *, *, #923, .F. ) ;
#1297 = APPROVAL_STATUS ( 'not_yet_approved' ) ;
#1298 = DIRECTION ( 'NONE',  ( 0.000000000000000000, 0.000000000000000000, 1.000000000000000000 ) ) ;
#1299 = ORIENTED_EDGE ( 'NONE', *, *, #1321, .F. ) ;
#1300 = AXIS2_PLACEMENT_3D ( 'NONE', #646, #876, #544 ) ;
#1301 = ORGANIZATION ( '未', '未', '' ) ;
#1302 = DIRECTION ( 'NONE',  ( 0.000000000000000000, -1.000000000000000000, 0.000000000000000000 ) ) ;
#1303 = DIRECTION ( 'NONE',  ( 1.000000000000000000, -0.000000000000000000, -0.000000000000000000 ) ) ;
#1304 = ORIENTED_EDGE ( 'NONE', *, *, #573, .T. ) ;
#1305 = DIRECTION ( 'NONE',  ( 0.000000000000000000, -1.000000000000000000, 0.000000000000000000 ) ) ;
#1306 = ORIENTED_EDGE ( 'NONE', *, *, #1275, .T. ) ;
#1307 = PLANE ( 'NONE',  #1375 ) ;
#1308 = DIRECTION ( 'NONE',  ( 0.000000000000000000, 0.000000000000000000, -1.000000000000000000 ) ) ;
#1309 = ADVANCED_FACE ( 'NONE', ( #1067 ), #835, .F. ) ;
#1310 = AXIS2_PLACEMENT_3D ( 'NONE', #522, #731, #948 ) ;
#1311 = PERSON_AND_ORGANIZATION_ROLE ( 'design_supplier' ) ;
#1312 = CARTESIAN_POINT ( 'NONE',  ( 47.99999999999999289, 1.699999999999999956, 38.24999999999998579 ) ) ;
#1313 = EDGE_CURVE ( 'NONE', #599, #457, #185, .T. ) ;
#1314 = EDGE_CURVE ( 'NONE', #1229, #708, #857, .T. ) ;
#1315 = FACE_BOUND ( 'NONE', #870, .T. ) ;
#1316 = DIRECTION ( 'NONE',  ( 0.000000000000000000, 0.000000000000000000, 1.000000000000000000 ) ) ;
#1317 = CARTESIAN_POINT ( 'NONE',  ( -39.79999999999999716, 1.699999999999999956, 46.24999999999998579 ) ) ;
#1318 =( NAMED_UNIT ( * ) PLANE_ANGLE_UNIT ( ) SI_UNIT ( $, .RADIAN. ) );
#1319 = VERTEX_POINT ( 'NONE', #618 ) ;
#1320 = EDGE_CURVE ( 'NONE', #602, #350, #945, .T. ) ;
#1321 = EDGE_CURVE ( 'NONE', #350, #1131, #517, .T. ) ;
#1322 = CIRCLE ( 'NONE', #1337, 39.70000000000000284 ) ;
#1323 = DIRECTION ( 'NONE',  ( -0.000000000000000000, 1.000000000000000000, -0.000000000000000000 ) ) ;
#1324 = LINE ( 'NONE', #450, #302 ) ;
#1325 = CARTESIAN_POINT ( 'NONE',  ( -1.149999999999998135, 0.8999999999999988010, 47.74999999999998579 ) ) ;
#1326 = EDGE_LOOP ( 'NONE', ( #1236, #834 ) ) ;
#1327 = VERTEX_POINT ( 'NONE', #1051 ) ;
#1328 = LINE ( 'NONE', #890, #623 ) ;
#1329 = DIRECTION ( 'NONE',  ( -0.000000000000000000, 1.000000000000000000, -0.000000000000000000 ) ) ;
#1330 = VERTEX_POINT ( 'NONE', #306 ) ;
#1331 = ORIENTED_EDGE ( 'NONE', *, *, #1042, .T. ) ;
#1332 = CARTESIAN_POINT ( 'NONE',  ( -29.10000000000000142, 0.000000000000000000, 47.74999999999998579 ) ) ;
#1333 = DIRECTION ( 'NONE',  ( 0.000000000000000000, -1.000000000000000000, 0.000000000000000000 ) ) ;
#1334 = VECTOR ( 'NONE', #901, 1000.000000000000000 ) ;
#1335 = VERTEX_POINT ( 'NONE', #1143 ) ;
#1336 = ORIENTED_EDGE ( 'NONE', *, *, #1171, .T. ) ;
#1337 = AXIS2_PLACEMENT_3D ( 'NONE', #619, #634, #1058 ) ;
#1338 = DIRECTION ( 'NONE',  ( -0.000000000000000000, -0.000000000000000000, 1.000000000000000000 ) ) ;
#1339 = AXIS2_PLACEMENT_3D ( 'NONE', #1165, #1302, #322 ) ;
#1340 = CARTESIAN_POINT ( 'NONE',  ( 0.6736544032709411711, -6.790786049462083017E-16, 45.14999999999997016 ) ) ;
#1341 = AXIS2_PLACEMENT_3D ( 'NONE', #104, #1262, #970 ) ;
#1342 = ORIENTED_EDGE ( 'NONE', *, *, #1261, .F. ) ;
#1343 = CARTESIAN_POINT ( 'NONE',  ( -29.10000000000000142, 0.8999999999999980238, 47.74999999999998579 ) ) ;
#1344 = LINE ( 'NONE', #818, #514 ) ;
#1345 = EDGE_LOOP ( 'NONE', ( #1183, #1306, #642, #543 ) ) ;
#1346 = EDGE_LOOP ( 'NONE', ( #53, #105, #1137, #1037 ) ) ;
#1347 = VECTOR ( 'NONE', #1017, 1000.000000000000000 ) ;
#1348 = LINE ( 'NONE', #927, #727 ) ;
#1349 = EDGE_CURVE ( 'NONE', #1163, #1352, #1151, .T. ) ;
#1350 = CARTESIAN_POINT ( 'NONE',  ( 38.50000000000000000, -0.4000000000000000222, 43.84999999999996589 ) ) ;
#1351 = EDGE_CURVE ( 'NONE', #194, #602, #1283, .T. ) ;
#1352 = VERTEX_POINT ( 'NONE', #736 ) ;
#1353 = APPROVAL ( #355, '未' ) ;
#1354 = CARTESIAN_POINT ( 'NONE',  ( 0.000000000000000000, -2.750000000000000000, 39.70000000000000284 ) ) ;
#1355 = ORIENTED_EDGE ( 'NONE', *, *, #1207, .T. ) ;
#1356 = CARTESIAN_POINT ( 'NONE',  ( -38.50000000000000000, -0.4000000000000000222, 43.84999999999996589 ) ) ;
#1357 = VECTOR ( 'NONE', #656, 1000.000000000000227 ) ;
#1358 = DIRECTION ( 'NONE',  ( 0.000000000000000000, -0.000000000000000000, -1.000000000000000000 ) ) ;
#1359 = CC_DESIGN_PERSON_AND_ORGANIZATION_ASSIGNMENT ( #893, #556, ( #1197 ) ) ;
#1360 = VECTOR ( 'NONE', #55, 1000.000000000000000 ) ;
#1361 = APPROVAL_PERSON_ORGANIZATION ( #134, #1353, #247 ) ;
#1362 = EDGE_LOOP ( 'NONE', ( #1216, #1256, #837, #14 ) ) ;
#1363 = DIRECTION ( 'NONE',  ( -1.000000000000000000, -0.000000000000000000, -0.000000000000000000 ) ) ;
#1364 = CARTESIAN_POINT ( 'NONE',  ( 0.000000000000000000, 0.000000000000000000, 0.000000000000000000 ) ) ;
#1365 = EDGE_LOOP ( 'NONE', ( #254, #1054, #651, #699 ) ) ;
#1366 = CARTESIAN_POINT ( 'NONE',  ( -1.149999999999999467, 1.699999999999999956, 46.29999999999996874 ) ) ;
#1367 = CARTESIAN_POINT ( 'NONE',  ( 5.339460044282460190E-15, 0.000000000000000000, -43.60000000000000142 ) ) ;
#1368 = CARTESIAN_POINT ( 'NONE',  ( -30.39999999999998792, -0.4000000000000000222, 44.49999999999997158 ) ) ;
#1369 = DIRECTION ( 'NONE',  ( 0.000000000000000000, 0.000000000000000000, -1.000000000000000000 ) ) ;
#1370 = ORIENTED_EDGE ( 'NONE', *, *, #145, .T. ) ;
#1371 = DIRECTION ( 'NONE',  ( 0.000000000000000000, 0.000000000000000000, -1.000000000000000000 ) ) ;
#1372 = CARTESIAN_POINT ( 'NONE',  ( 2.449293598294707893E-16, -0.4000000000000000222, -48.84999999999999432 ) ) ;
#1373 = DIRECTION ( 'NONE',  ( -0.000000000000000000, 1.000000000000000000, -0.000000000000000000 ) ) ;
#1374 = ADVANCED_FACE ( 'NONE', ( #633 ), #751, .T. ) ;
#1375 = AXIS2_PLACEMENT_3D ( 'NONE', #575, #250, #559 ) ;
#1376 = DIRECTION ( 'NONE',  ( 0.000000000000000000, 0.000000000000000000, -1.000000000000000000 ) ) ;
#1377 = DIRECTION ( 'NONE',  ( 0.000000000000000000, 0.000000000000000000, -1.000000000000000000 ) ) ;
#1378 = ORIENTED_EDGE ( 'NONE', *, *, #1253, .T. ) ;
#1379 = EDGE_CURVE ( 'NONE', #1145, #663, #625, .T. ) ;
#1380 = DIRECTION ( 'NONE',  ( 0.000000000000000000, -1.000000000000000000, 0.000000000000000000 ) ) ;
#1381 = DIRECTION ( 'NONE',  ( 0.000000000000000000, 0.000000000000000000, 1.000000000000000000 ) ) ;
ENDSEC;
END-ISO-10303-21;
